<?xml version="1.0" encoding="utf-8"?>
<!-- Generator: Adobe Illustrator 20.1.0, SVG Export Plug-In . SVG Version: 6.00 Build 0)  -->
<svg version="1.1" id="Layer_1" xmlns="http://www.w3.org/2000/svg" xmlns:xlink="http://www.w3.org/1999/xlink" x="0px" y="0px"
	 viewBox="0 0 272 73" style="enable-background:new 0 0 272 73;" xml:space="preserve">
<style type="text/css">
	.st0{fill:#FFFFFF;}
</style>
<g>
	<g>
		<path class="st0" d="M12.1,46.6c-1.5-0.2-2.6-0.6-3.2-1c-0.7-0.5-1-1.1-1-1.7c0-0.2,0-0.6,0.1-1.1c0-0.5,0.2-1.4,0.4-2.6
			c0.2-0.9,0.4-1.9,0.7-3.1c0.3-1.2,0.5-2.2,0.8-3h9.8l2.4,9.3c0.1,0.4,0.1,0.6,0.2,0.9c0,0.2,0,0.4,0,0.6c0,0.5-0.5,0.9-1.5,1.2
			c-1,0.3-1.8,0.5-2.6,0.6v2.5h15l0,0.4h1.5l0.6-2.2c0.7,0.7,1.6,1.3,2.8,1.9c1.2,0.6,2.5,0.9,3.7,0.9c2.7,0,4.9-1,6.6-2.9
			c1.7-1.9,2.5-4.6,2.5-8c0-2.6-0.5-4.7-1.6-6.4c-1.1-1.7-2.8-3-5.1-4c-1.5-0.6-2.7-1.3-3.5-2c-0.8-0.7-1.3-1.9-1.3-3.5
			c0-1.2,0.3-2.1,0.9-2.8c0.6-0.7,1.4-1,2.4-1c1.3,0,2.5,0.8,3.6,2.4c1.1,1.6,1.9,3.5,2.4,5.7h1.4l-0.3-10.8h-1.5l-0.4,1.9
			c-0.7-0.5-1.5-0.9-2.5-1.3c-1-0.4-2.1-0.6-3.3-0.6c-2.5,0-4.6,0.9-6.1,2.8c-1.5,1.8-2.3,4.2-2.3,7.2c0,1.6,0.2,3,0.5,4.2
			c0.4,1.2,0.8,2.2,1.4,3c0.7,0.9,1.3,1.6,1.9,2c0.6,0.4,1.4,0.9,2.3,1.3c0.9,0.4,1.6,0.8,2.2,1.1c0.6,0.3,1.1,0.7,1.6,1.1
			c0.5,0.4,0.8,0.9,1.1,1.4c0.3,0.5,0.4,1.2,0.4,2.1c0,1.6-0.3,2.7-0.9,3.5c-0.6,0.8-1.5,1.1-2.7,1.1c-0.9,0-1.7-0.3-2.5-1
			c-0.8-0.7-1.5-1.5-2.1-2.4c-0.6-0.9-1.1-2-1.6-3.2c-0.5-1.2-0.8-2.3-1-3.2h-1.4l0.2,8.9c-0.3-0.1-0.6-0.1-1-0.3
			c-0.5-0.2-0.9-0.4-1.3-0.8c-0.5-0.5-0.9-1-1.1-1.5c-0.3-0.5-0.5-1.1-0.7-1.7c-1-3.9-2.3-8.8-3.7-14.7c-1.5-5.9-3.5-13.9-6.1-24.1
			h-3.9c-1.9,7.2-3.6,13.7-5.1,19.7c-1.5,5.9-3,11.9-4.6,17.8c-0.3,1-0.6,1.9-0.9,2.6c-0.4,0.7-0.8,1.4-1.4,1.9
			c-0.3,0.3-0.7,0.6-1.3,0.7c-0.5,0.2-1,0.3-1.5,0.3v2.5h11.5V46.6z M14.7,14.4l4.1,16.5h-8.2L14.7,14.4z M54.9,40.6
			c0,3,0.5,5.3,1.5,6.9c1,1.6,2.5,2.4,4.6,2.4c1.4,0,2.6-0.2,3.5-0.7c1-0.5,1.9-1,2.7-1.6V45c-0.2,0.1-0.7,0.2-1.3,0.3
			c-0.6,0.1-1.1,0.1-1.5,0.1c-1.1,0-1.8-0.5-2.3-1.6c-0.4-1-0.6-2.8-0.6-5.2V21.2H67v-3.5h-5.5V8.1H55v9.6h-3.6v3.5h3.5V40.6z
			 M70.8,45.1c0.9,1.5,2.1,2.7,3.5,3.6c1.4,0.9,3.1,1.3,5,1.3c1.2,0,2.2-0.2,3.1-0.6c0.9-0.4,1.8-1,2.7-1.8c0.8-0.8,1.5-1.7,2.2-2.7
			c0.6-1.1,1.2-2.2,1.7-3.4l-1.5-1.7c-0.7,1.7-1.5,3-2.5,4.1c-1,1.1-2.1,1.6-3.3,1.6c-2.3,0-3.9-1.1-4.9-3.4c-1-2.3-1.6-5.6-1.6-9.9
			h13.3v-2.1c0-1.8-0.2-3.5-0.5-5.2c-0.3-1.6-0.9-3.1-1.6-4.3c-0.8-1.3-1.8-2.3-2.9-3c-1.2-0.7-2.7-1.1-4.5-1.1
			c-1.7,0-3.2,0.5-4.6,1.4c-1.4,0.9-2.5,2.1-3.4,3.6C70,23.3,69.3,25,68.8,27c-0.5,2-0.7,4-0.7,6.2c0,2.4,0.2,4.6,0.7,6.6
			C69.2,41.9,69.9,43.6,70.8,45.1z M76.1,21.7c0.6-1.6,1.4-2.5,2.4-2.5c0.6,0,1.1,0.3,1.5,0.8c0.4,0.5,0.7,1.3,0.9,2.3
			c0.2,0.8,0.3,1.9,0.4,3.3c0.1,1.3,0.1,2.6,0.1,3.9l-6.3,0.1C75.2,26,75.5,23.4,76.1,21.7z M91.8,21.5c0.3,0.4,0.6,0.8,0.8,1.4
			c0.2,0.6,0.3,1.3,0.3,2v18.3c0,0.8-0.1,1.4-0.2,1.9c-0.2,0.5-0.4,0.8-0.9,1.1c-0.2,0.1-0.5,0.2-0.8,0.3c-0.3,0.1-0.7,0.1-1,0.2
			v2.4h13.2v-2.4c-0.3,0-0.7-0.1-1.4-0.3c-0.7-0.2-1.1-0.4-1.4-0.6c-0.4-0.3-0.6-0.6-0.7-1.1c-0.1-0.5-0.2-1.1-0.2-1.8V25.5
			c0.5-1.1,1.1-1.9,1.8-2.5c0.7-0.6,1.3-1,1.9-1c-0.1,0.4-0.1,0.7-0.2,1.2c-0.1,0.4-0.1,1-0.1,1.7c0,1.5,0.3,2.7,1,3.5
			c0.7,0.8,1.5,1.2,2.4,1.2c1,0,1.8-0.6,2.5-1.8c0.6-1.2,0.9-2.6,0.9-4.2c0-1.9-0.4-3.5-1.1-4.7c-0.7-1.2-1.7-1.8-3-1.8
			c-1.1,0-2.2,0.5-3.2,1.4c-1,1-2,2.3-2.9,4h-0.1v-4.6l-0.3-0.5l-9.5,0.8v2.4c0.4,0.1,0.8,0.2,1.2,0.3C91.3,21,91.6,21.2,91.8,21.5z
			 M128.9,46.6c-1.5-0.2-2.6-0.6-3.2-1c-0.7-0.5-1-1.1-1-1.7c0-0.2,0-0.6,0.1-1.1c0-0.5,0.2-1.4,0.4-2.6c0.2-0.9,0.4-1.9,0.7-3.1
			c0.3-1.2,0.5-2.2,0.8-3h9.8l2.4,9.3c0.1,0.4,0.1,0.6,0.2,0.9c0,0.2,0,0.4,0,0.6c0,0.5-0.5,0.9-1.5,1.2c-1,0.3-1.8,0.5-2.6,0.6v2.5
			h15.3v-2.5c-0.4,0-0.8-0.1-1.3-0.3c-0.5-0.2-0.9-0.4-1.3-0.8c-0.5-0.5-0.9-1-1.1-1.5c-0.3-0.5-0.5-1.1-0.7-1.7
			c-1-3.9-2.3-8.8-3.7-14.7c-1.5-5.9-3.5-13.9-6.1-24.1h-3.9c-1.9,7.2-3.6,13.7-5.1,19.7c-1.5,5.9-3.1,11.9-4.6,17.8
			c-0.3,1-0.6,1.9-0.9,2.6c-0.4,0.7-0.8,1.4-1.4,1.9c-0.3,0.3-0.7,0.6-1.3,0.7c-0.5,0.2-1,0.3-1.5,0.3v2.5h11.5V46.6z M131.5,14.4
			l4.1,16.5h-8.2L131.5,14.4z M151,23.4c1.3,5.2,2.3,9.4,3.1,12.6c0.8,3.2,1.8,7.6,3.1,13.4h3.8l4.7-21.6l5,21.6h3.9
			c0.2-1,0.4-2.2,0.7-3.7c0.3-1.5,0.5-2.7,0.8-3.6c1-4.2,1.8-7.4,2.3-9.6c0.6-2.2,1.3-5.1,2.2-8.7c0.4-1.3,0.8-2.3,1.3-2.8
			c0.5-0.5,1.1-0.8,1.7-1v-2.4h-8.1V20c0.2,0,0.5,0.1,0.8,0.2c0.3,0.1,0.6,0.3,0.9,0.4c0.3,0.2,0.6,0.4,0.8,0.7
			c0.2,0.3,0.4,0.6,0.4,1c0,0.1,0,0.3,0,0.7c0,0.3-0.1,0.7-0.2,1.2c-0.6,2.9-1.1,5.3-1.6,7.2c-0.4,1.9-1,4.4-1.8,7.6l-5-21.5h-3.9
			l-4.4,20.9c-0.8-3.5-1.6-6.5-2.2-9.1c-0.6-2.6-1.1-4.7-1.5-6.4c-0.1-0.4-0.1-0.7-0.1-0.9c0-0.2,0-0.3,0-0.6c0-0.5,0.3-0.8,0.9-1.1
			c0.6-0.3,1.2-0.4,1.6-0.5v-2.4H148V20c0.6,0.1,1.2,0.5,1.8,1C150.4,21.6,150.8,22.4,151,23.4z M189.5,50.1c1,0,1.8-0.1,2.4-0.3
			c0.6-0.2,1.2-0.5,1.8-1c0.5-0.4,0.9-0.8,1.3-1.3c0.4-0.5,0.9-1.1,1.3-1.8h0.1c0.3,1.4,0.8,2.5,1.6,3.3c0.8,0.8,1.9,1.2,3.6,1.2
			c0.9,0,1.7-0.2,2.5-0.5c0.8-0.3,1.5-0.7,2.1-1.1v-2.3c-0.4,0-0.8,0-1.3,0c-0.5,0-0.8-0.1-1.1-0.3c-0.4-0.3-0.6-0.7-0.8-1.2
			s-0.3-1.3-0.3-2.3c0-1,0-3.2,0.1-6.5c0.1-3.3,0.1-6.1,0.1-8.5c0-2.3-0.2-4.1-0.7-5.5c-0.5-1.4-1.1-2.5-2-3.2
			c-0.9-0.8-1.8-1.3-2.9-1.5c-1.1-0.2-2.2-0.4-3.5-0.4c-0.9,0-1.9,0.2-3,0.5c-1.1,0.3-2,0.8-2.9,1.5c-0.8,0.6-1.6,1.4-2.1,2.3
			c-0.6,0.9-0.9,2-0.9,3.2c0,1.4,0.3,2.5,0.8,3.3c0.6,0.9,1.4,1.3,2.5,1.3c0.8,0,1.4-0.1,1.7-0.3c0.4-0.2,0.7-0.6,1-1
			c0.2-0.3,0.4-0.7,0.5-1.3c0.1-0.5,0.2-1,0.2-1.4c0-0.8-0.1-1.6-0.3-2.5c-0.2-0.9-0.3-1.5-0.3-1.9c0.2-0.3,0.5-0.5,0.9-0.8
			c0.4-0.3,0.9-0.4,1.5-0.4c0.6,0,1.2,0.2,1.6,0.7c0.4,0.5,0.7,1,0.9,1.7c0.2,0.6,0.3,1.3,0.3,2.2c0.1,0.9,0.1,1.6,0.1,2.1V29
			c-0.8,0.6-2,1.3-3.6,2c-1.7,0.8-3.1,1.5-4.3,2.2c-0.6,0.4-1.2,0.8-1.7,1.2c-0.5,0.4-1,1-1.4,1.7c-0.4,0.7-0.8,1.6-1,2.6
			c-0.2,1-0.4,2.1-0.4,3.5c0,2.4,0.5,4.3,1.6,5.8C186.6,49.3,187.9,50.1,189.5,50.1z M191.1,37.2c0.3-0.9,0.7-1.7,1.2-2.3
			c0.5-0.6,1.1-1.1,1.8-1.6c0.7-0.5,1.5-1,2.2-1.4l-0.1,10.8c-0.4,0.7-0.8,1.3-1.3,1.8c-0.5,0.5-1.1,0.7-1.8,0.7
			c-0.7,0-1.3-0.4-1.8-1.1c-0.5-0.7-0.7-1.9-0.7-3.6C190.7,39.2,190.8,38.1,191.1,37.2z M208.5,21.5c0.3,0.4,0.6,0.8,0.8,1.4
			c0.2,0.6,0.3,1.3,0.3,2v18.3c0,0.8-0.1,1.4-0.2,1.9c-0.2,0.5-0.4,0.8-0.9,1.1c-0.2,0.1-0.5,0.2-0.8,0.3c-0.3,0.1-0.7,0.1-1,0.2
			v2.4H220v-2.4c-0.3,0-0.7-0.1-1.4-0.3c-0.7-0.2-1.1-0.4-1.4-0.6c-0.4-0.3-0.6-0.6-0.7-1.1c-0.1-0.5-0.2-1.1-0.2-1.8V25.5
			c0.5-1.1,1.1-1.9,1.8-2.5c0.7-0.6,1.3-1,1.9-1c-0.1,0.4-0.1,0.7-0.2,1.2c-0.1,0.4-0.1,1-0.1,1.7c0,1.5,0.3,2.7,1,3.5
			c0.7,0.8,1.5,1.2,2.4,1.2c1,0,1.8-0.6,2.5-1.8c0.6-1.2,0.9-2.6,0.9-4.2c0-1.9-0.4-3.5-1.1-4.7c-0.7-1.2-1.7-1.8-3-1.8
			c-1.1,0-2.2,0.5-3.2,1.4c-1,1-2,2.3-2.9,4h-0.1v-4.6l-0.3-0.5l-9.5,0.8v2.4c0.4,0.1,0.8,0.2,1.2,0.3C208,21,208.3,21.2,208.5,21.5
			z M236.3,50.1c1.1,0,2.2-0.4,3.3-1.3c1.1-0.8,2-1.8,2.6-2.9l0.1,0.1v2.9l0.3,0.4l9.8-0.8V46c-0.4,0-0.8-0.1-1.3-0.2
			c-0.5-0.1-0.9-0.3-1.2-0.5c-0.4-0.3-0.6-0.8-0.8-1.3c-0.2-0.5-0.2-1.2-0.2-2V0.5L248.6,0l-10.7,0.8v2.4c0.6,0.1,1.2,0.2,1.8,0.4
			c0.6,0.2,1.1,0.5,1.5,1c0.3,0.4,0.6,0.9,0.8,1.6c0.2,0.7,0.3,1.4,0.3,2.2v10.2c-0.6-0.5-1.3-1-2.3-1.4c-0.9-0.4-2-0.6-3-0.6
			c-2.7,0-5,1.6-7,4.8c-1.9,3.2-2.9,7-2.9,11.5c0,5,0.9,9.1,2.6,12.3C231.5,48.5,233.7,50.1,236.3,50.1z M235.5,23.3
			c0.8-2.4,1.9-3.6,3.2-3.6c0.6,0,1.1,0.2,1.5,0.5c0.4,0.3,0.8,0.7,1,1.2c0.3,0.5,0.5,1.1,0.7,1.7c0.2,0.6,0.3,1.1,0.4,1.6v18
			c-0.4,0.8-0.9,1.5-1.4,2c-0.5,0.5-1.2,0.8-2,0.8c-0.8,0-1.5-0.3-2.1-1c-0.6-0.6-1.1-1.5-1.5-2.6c-0.4-1.1-0.6-2.4-0.8-3.7
			c-0.2-1.4-0.2-2.9-0.2-4.6C234.3,29.1,234.7,25.7,235.5,23.3z M261.7,47.4c-0.9,0-1.7-0.3-2.5-1c-0.8-0.7-1.5-1.5-2.1-2.4
			c-0.6-0.9-1.1-2-1.6-3.2c-0.5-1.2-0.8-2.3-1-3.2h-1.4l0.2,11.8h1.5l0.6-2.2c0.7,0.7,1.6,1.3,2.8,1.9c1.2,0.6,2.5,0.9,3.7,0.9
			c2.7,0,4.9-1,6.6-2.9c1.7-1.9,2.5-4.6,2.5-8c0-2.6-0.5-4.7-1.6-6.4c-1.1-1.7-2.8-3-5.1-4c-1.5-0.6-2.7-1.3-3.5-2
			c-0.8-0.7-1.3-1.9-1.3-3.5c0-1.2,0.3-2.1,0.9-2.8c0.6-0.7,1.4-1,2.4-1c1.3,0,2.5,0.8,3.6,2.4c1.1,1.6,1.9,3.5,2.4,5.7h1.4
			l-0.3-10.8h-1.5l-0.4,1.9c-0.7-0.5-1.5-0.9-2.5-1.3c-1-0.4-2.1-0.6-3.3-0.6c-2.5,0-4.6,0.9-6.1,2.8c-1.5,1.8-2.3,4.2-2.3,7.2
			c0,1.6,0.2,3,0.5,4.2c0.4,1.2,0.8,2.2,1.4,3c0.7,0.9,1.3,1.6,1.9,2c0.6,0.4,1.4,0.9,2.3,1.3c0.9,0.4,1.6,0.8,2.2,1.1
			c0.6,0.3,1.1,0.7,1.6,1.1c0.5,0.4,0.8,0.9,1.1,1.4c0.3,0.5,0.4,1.2,0.4,2.1c0,1.6-0.3,2.7-0.9,3.5C263.8,47,262.9,47.4,261.7,47.4
			z M118.8,61.3c-1.1,0-1.8,0.6-1.9,1.9h3.8C120.7,62,120,61.3,118.8,61.3z M37.8,61.3c-1.4,0-2,0.9-2,2.4c0,1.3,0.6,2.2,1.9,2.2
			c1.3,0,1.9-1,1.9-2.3C39.6,62.4,39.1,61.3,37.8,61.3z M241.4,61.3c-1.1,0-1.8,0.6-1.9,1.9h3.8C243.3,62,242.6,61.3,241.4,61.3z
			 M182.4,61.4c-1.5,0-1.9,1.3-1.9,2.7c0,1.2,0.4,2.5,1.7,2.5c1.7,0,2.1-1.5,2.1-2.9C184.3,62.4,183.7,61.4,182.4,61.4z M74.1,61.3
			c-1.4,0-2,0.9-2,2.4c0,1.3,0.6,2.2,1.9,2.2c1.3,0,1.9-1,1.9-2.3C76,62.4,75.4,61.3,74.1,61.3z M105.2,61.3c-1.1,0-1.8,0.6-1.9,1.9
			h3.8C107.1,62,106.4,61.3,105.2,61.3z M197.8,65.8c0,0.6,0.5,0.9,1,0.9c1,0,1.6-1,1.6-2v-0.8h0C199.4,64.5,197.8,64.5,197.8,65.8z
			 M221.2,65.8c0,0.6,0.5,0.9,1,0.9c1,0,1.6-1,1.6-2v-0.8h0C222.7,64.5,221.2,64.5,221.2,65.8z M10.6,61.5c0-0.8-0.6-1.2-1.4-1.2h-2
			v2.6h1.6C9.9,62.8,10.6,62.7,10.6,61.5z M0,54v19h272V54H0z M10.4,67.6l-3.1-4.3h0v4.3H5.8v-8.7h3.7c1.4,0,2.4,0.8,2.4,2.4
			c0,1.8-1.1,2.5-2.4,2.5H9.2l2.9,3.8H10.4z M19.1,64.3h-4.7c0,1.4,0.7,2.3,2.1,2.3c1.1,0,1.8-0.7,2.2-1.6l0,0v1.5
			c-0.3,0.4-1.1,1.2-2.4,1.2c-2.3,0-3.2-1.7-3.2-3.9c0-2.2,1.1-3.7,3.2-3.7c2,0,2.8,1.4,2.8,3.4V64.3z M25.7,62.6
			c-0.6-0.8-1.2-1.2-2.1-1.2c-1.4,0-2,1-2,2.4c0,1.6,0.6,2.8,2,2.8c1,0,1.8-0.7,2.1-1.6v1.5c-0.5,0.9-1.5,1.2-2.2,1.2
			c-2.3,0-3.2-1.7-3.2-3.9c0-2.2,0.9-3.7,3.2-3.7c0.8,0,1.6,0.2,2.2,0.9V62.6z M30.1,67.8c-2.4,0-3.3-1.7-3.3-3.9
			c0-2.2,0.9-3.7,3.3-3.7c2.4,0,3.3,1.6,3.3,3.7C33.4,66,32.5,67.8,30.1,67.8z M40.9,66.5c0,1.5-0.6,2.8-3.3,2.8
			c-0.9,0-1.9-0.3-2.4-0.7v-1.3c0.6,0.6,1.4,0.9,2.4,0.9c1.6,0,2-0.8,2-1.8v-1h0c-0.3,1-1.4,1.4-2.3,1.4c-2,0-2.7-1.5-2.7-3.3
			c0-1.9,0.8-3.6,2.9-3.6c1,0,1.8,0.3,2.2,1.2h0v-1h1.2V66.5z M48.7,67.6h-1.3v-4.5c0-0.7-0.2-1.7-1.5-1.7c-1.5,0-1.9,1.5-1.9,2.3
			v3.9h-1.3v-7.3h1.2v1.5h0c0.6-1.2,1.3-1.6,2.5-1.6c1.7,0,2.3,1.2,2.3,2.3V67.6z M51.8,67.6h-1.3v-7.3c0.2,0.1,0.4,0.1,0.7,0.1
			s0.5,0,0.7-0.1V67.6z M51.2,59.7c-0.4,0-0.9-0.1-0.9-0.6c0-0.5,0.4-0.6,0.9-0.6c0.4,0,0.9,0.1,0.9,0.6
			C52.1,59.6,51.6,59.7,51.2,59.7z M58.5,61.7L55,66.4h3.5v1.2h-5v-1.4l3.5-4.7h-3.5v-1.2h5V61.7z M61.6,67.6h-1.3v-7.3
			c0.2,0.1,0.4,0.1,0.7,0.1c0.2,0,0.5,0,0.7-0.1V67.6z M60.9,59.7c-0.4,0-0.9-0.1-0.9-0.6c0-0.5,0.4-0.6,0.9-0.6
			c0.4,0,0.9,0.1,0.9,0.6C61.8,59.6,61.3,59.7,60.9,59.7z M69.4,67.6h-1.3v-4.5c0-0.7-0.2-1.7-1.5-1.7c-1.5,0-1.9,1.5-1.9,2.3v3.9
			h-1.3v-7.3h1.2v1.5h0c0.6-1.2,1.3-1.6,2.5-1.6c1.7,0,2.3,1.2,2.3,2.3V67.6z M77.3,66.5c0,1.5-0.6,2.8-3.3,2.8
			c-0.9,0-1.9-0.3-2.4-0.7v-1.3c0.5,0.6,1.4,0.9,2.4,0.9c1.6,0,1.9-0.8,1.9-1.8v-1h0c-0.3,1-1.4,1.4-2.3,1.4c-2,0-2.7-1.5-2.7-3.3
			c0-1.9,0.8-3.6,2.9-3.6c1,0,1.8,0.3,2.2,1.2h0v-1h1.2V66.5z M87.6,60.3h-3.9v2.4h3.9v1.3h-3.9v2.5h3.9v1.2h-5.3v-8.7h5.3V60.3z
			 M94.8,67.6h-1.5l-1.6-2.9l-1.6,2.9h-1.5l2.3-3.7l-2.2-3.7h1.5l1.5,2.8l1.6-2.8h1.5l-2.3,3.7L94.8,67.6z M101,62.6
			c-0.6-0.8-1.2-1.2-2.1-1.2c-1.4,0-2,1-2,2.4c0,1.6,0.6,2.8,2,2.8c1,0,1.8-0.7,2.1-1.6v1.5c-0.5,0.9-1.5,1.2-2.2,1.2
			c-2.3,0-3.2-1.7-3.2-3.9c0-2.2,0.9-3.7,3.2-3.7c0.8,0,1.6,0.2,2.2,0.9V62.6z M108,64.3h-4.7c0,1.4,0.7,2.3,2.1,2.3
			c1.1,0,1.8-0.7,2.2-1.6l0,0v1.5c-0.3,0.4-1.1,1.2-2.4,1.2c-2.3,0-3.2-1.7-3.2-3.9c0-2.2,1.1-3.7,3.2-3.7c2,0,2.8,1.4,2.8,3.4V64.3
			z M110.9,67.6h-1.3v-9.1h1.3V67.6z M114.1,67.6h-1.3v-9.1h1.3V67.6z M121.6,64.3h-4.7c0,1.4,0.7,2.3,2.1,2.3
			c1.1,0,1.8-0.7,2.2-1.6l0,0v1.5c-0.3,0.4-1.1,1.2-2.4,1.2c-2.3,0-3.2-1.7-3.2-3.9c0-2.2,1.1-3.7,3.2-3.7c2,0,2.8,1.4,2.8,3.4V64.3
			z M129.1,67.6h-1.3v-4.5c0-0.7-0.2-1.7-1.5-1.7c-1.5,0-1.9,1.5-1.9,2.3v3.9h-1.3v-7.3h1.2v1.5h0c0.6-1.2,1.3-1.6,2.5-1.6
			c1.7,0,2.3,1.2,2.3,2.3V67.6z M136,62.6c-0.6-0.8-1.2-1.2-2.1-1.2c-1.4,0-2,1-2,2.4c0,1.6,0.6,2.8,2,2.8c1,0,1.8-0.7,2.1-1.6v1.5
			c-0.5,0.9-1.5,1.2-2.2,1.2c-2.3,0-3.2-1.7-3.2-3.9c0-2.2,0.9-3.7,3.2-3.7c0.8,0,1.6,0.2,2.2,0.9V62.6z M143.1,64.3h-4.7
			c0,1.4,0.7,2.3,2.1,2.3c1.1,0,1.8-0.7,2.2-1.6l0,0v1.5c-0.3,0.4-1.1,1.2-2.4,1.2c-2.3,0-3.2-1.7-3.2-3.9c0-2.2,1.1-3.7,3.2-3.7
			c2,0,2.8,1.4,2.8,3.4V64.3z M149.2,67.6h-1.4v-8.7h1.4V67.6z M157,67.6h-1.3v-4.5c0-0.7-0.2-1.7-1.5-1.7c-1.5,0-1.9,1.5-1.9,2.3
			v3.9H151v-7.3h1.2v1.5h0c0.6-1.2,1.3-1.6,2.5-1.6c1.7,0,2.3,1.2,2.3,2.3V67.6z M170.5,67.6h-1.4V60h0l-2.1,7.6h-1.3l-2.1-7.6h0
			v7.6h-1.4v-8.7h2.3l1.9,6.5h0l1.9-6.5h2.3V67.6z M178.1,64.3h-4.7c0,1.4,0.7,2.3,2.1,2.3c1.1,0,1.8-0.7,2.2-1.6l0,0v1.5
			c-0.3,0.4-1.1,1.2-2.4,1.2c-2.3,0-3.2-1.7-3.2-3.9c0-2.2,1.1-3.7,3.2-3.7c2,0,2.8,1.4,2.8,3.4V64.3z M185.5,67.6h-1.2v-1.7h0
			c-0.3,1-1.2,1.8-2.3,1.8c-2.1,0-2.7-1.9-2.7-3.8c0-2.8,1.2-3.9,2.9-3.9c0.7,0,1.6,0.3,2,1.1h0v-2.7h1.3V67.6z M188.7,67.6h-1.3
			v-7.3c0.2,0.1,0.4,0.1,0.7,0.1c0.2,0,0.5,0,0.7-0.1V67.6z M188.1,59.7c-0.4,0-0.9-0.1-0.9-0.6c0-0.5,0.4-0.6,0.9-0.6
			c0.4,0,0.9,0.1,0.9,0.6C188.9,59.6,188.5,59.7,188.1,59.7z M195.7,62.6c-0.6-0.8-1.2-1.2-2.2-1.2c-1.4,0-2,1-2,2.4
			c0,1.6,0.6,2.8,2,2.8c1,0,1.8-0.7,2.2-1.6v1.5c-0.5,0.9-1.5,1.2-2.2,1.2c-2.3,0-3.2-1.7-3.2-3.9c0-2.2,0.9-3.7,3.2-3.7
			c0.8,0,1.6,0.2,2.2,0.9V62.6z M201.8,67.6h-1.3v-1.2h0c-0.4,0.8-1.1,1.4-2,1.4c-1.2,0-1.9-0.7-1.9-1.9c0-1.9,1.6-2,2.9-2.5
			c0.6-0.2,1.1-0.3,1.1-1c0-0.8-0.7-1-1.3-1c-1,0-1.7,0.4-2.3,1.2v-1.4c0.7-0.6,1.4-1.1,2.6-1.1c1.5,0,2.3,0.7,2.3,2.2V67.6z
			 M204.9,67.6h-1.3v-9.1h1.3V67.6z M218.5,67.6h-1.4V60h0l-2.1,7.6h-1.3l-2.1-7.6h0v7.6h-1.4v-8.7h2.3l1.9,6.5h0l1.9-6.5h2.3V67.6z
			 M225.1,67.6h-1.3v-1.2h0c-0.4,0.8-1.1,1.4-2,1.4c-1.2,0-1.9-0.7-1.9-1.9c0-1.9,1.6-2,2.9-2.5c0.6-0.2,1.1-0.3,1.1-1
			c0-0.8-0.7-1-1.3-1c-1,0-1.7,0.4-2.3,1.2v-1.4c0.7-0.6,1.4-1.1,2.6-1.1c1.5,0,2.3,0.7,2.3,2.2V67.6z M231,61.9
			c-0.3-0.2-0.6-0.4-1.2-0.4c-1.1,0-1.6,1-1.6,2.7v3.4h-1.3v-7.3h1.3v1.6h0c0.3-0.9,0.6-1.8,1.6-1.8c0.5,0,0.9,0.2,1.2,0.4V61.9z
			 M236,67.6l-2.5-3.5h0v3.5h-1.3v-9.1h1.3v5.3h0l2.5-3.5h1.6l-2.8,3.7l2.8,3.6H236z M244.2,64.3h-4.7c0,1.4,0.7,2.3,2.1,2.3
			c1.1,0,1.8-0.7,2.2-1.6l0,0v1.5c-0.3,0.4-1.1,1.2-2.4,1.2c-2.3,0-3.2-1.7-3.2-3.9c0-2.2,1.1-3.7,3.2-3.7c2,0,2.8,1.4,2.8,3.4V64.3
			z M249.8,61.6h-2.4v3.7c0,0.7,0.2,1.2,1,1.2c0.6,0,1.1-0.3,1.3-0.7v1.2c-0.3,0.3-1.1,0.7-1.7,0.7c-1.5,0-2-0.9-2-2.1v-4.1H245
			v-0.9c1.1-0.2,1.8-1.1,2.1-2.3h0.5l-0.1,2h2.3V61.6z M252.3,67.6H251v-7.3c0.2,0.1,0.4,0.1,0.7,0.1c0.2,0,0.5,0,0.7-0.1V67.6z
			 M251.6,59.7c-0.4,0-0.9-0.1-0.9-0.6c0-0.5,0.4-0.6,0.9-0.6c0.4,0,0.9,0.1,0.9,0.6C252.5,59.6,252,59.7,251.6,59.7z M260.1,67.6
			h-1.3v-4.5c0-0.7-0.2-1.7-1.5-1.7c-1.5,0-1.9,1.5-1.9,2.3v3.9h-1.3v-7.3h1.2v1.5h0c0.6-1.2,1.3-1.6,2.5-1.6c1.7,0,2.3,1.2,2.3,2.3
			V67.6z M268,66.5c0,1.5-0.6,2.8-3.3,2.8c-0.9,0-1.9-0.3-2.4-0.7v-1.3c0.5,0.6,1.4,0.9,2.4,0.9c1.6,0,1.9-0.8,1.9-1.8v-1h0
			c-0.3,1-1.4,1.4-2.3,1.4c-2,0-2.7-1.5-2.7-3.3c0-1.9,0.8-3.6,2.9-3.6c1,0,1.8,0.3,2.2,1.2h0v-1h1.2V66.5z M264.8,61.3
			c-1.4,0-2,0.9-2,2.4c0,1.3,0.6,2.2,1.9,2.2c1.3,0,1.9-1,1.9-2.3C266.7,62.4,266.1,61.3,264.8,61.3z M30.1,61.4
			c-1.5,0-2.1,1-2.1,2.4c0,1.6,0.6,2.8,2.1,2.8c1.5,0,2.1-1.2,2.1-2.8C32.2,62.5,31.6,61.4,30.1,61.4z M175.3,61.3
			c-1.1,0-1.8,0.6-1.9,1.9h3.8C177.1,62,176.5,61.3,175.3,61.3z M140.2,61.3c-1.1,0-1.8,0.6-1.9,1.9h3.8
			C142.1,62,141.5,61.3,140.2,61.3z M16.3,61.3c-1.1,0-1.8,0.6-1.9,1.9h3.8C18.2,62,17.5,61.3,16.3,61.3z"/>
	</g>
</g>
</svg>
