<?xml version="1.0" encoding="utf-8"?>
<!-- Generator: Adobe Illustrator 20.1.0, SVG Export Plug-In . SVG Version: 6.00 Build 0)  -->
<svg version="1.1" id="Layer_2" xmlns="http://www.w3.org/2000/svg" xmlns:xlink="http://www.w3.org/1999/xlink" x="0px" y="0px"
	 viewBox="0 0 210.2 212.6" style="enable-background:new 0 0 210.2 212.6;" xml:space="preserve">
<style type="text/css">
	.st0{opacity:0.29;fill:#FFFFFF;}
	.st1{fill:#FFFFFF;}
</style>
<g>
	<path class="st0" d="M126.3,37.7h-30H81.8h-30c-8.3,0-15,6.7-15,15v29.3v86.2v29.3c0,8.3,6.7,15,15,15h30h14.5h30
		c8.3,0,15-6.7,15-15v-29.3V82.1V52.7C141.3,44.4,134.6,37.7,126.3,37.7z"/>
	<path class="st1" d="M45.2,31.6c0-3.4,0.1-8,0-11.4c-9.2,1.7-12.3,2.8-17.1,7.1c-4.8,4.9-6.6,9.3-8.2,18.4c4-0.1,7.7,0,10.8,0
		C31.4,38.2,37.5,32.1,45.2,31.6z"/>
	<path class="st1" d="M45.1,12.7V0C17.9,2.9,3.6,18.1,0,45.7h12.4C14.6,25.2,24.7,15.6,45.1,12.7z"/>
	<path class="st1" d="M110.3,120.2c-11.1,0-13.8-2.5-17.1-14.2L73,35c-0.8-2.9-1.2-5.2-1.2-7.1c0-7.7,5.6-13.2,13-13.2
		c6.8,0,11.5,4,13.4,12.5l14.4,60L124.4,29c2.3-11.3,6.2-14.4,16.6-14.4c10.3,0,14.2,2.9,16.7,14.4l12.5,58.1l14.4-60.6
		c1.9-7.9,6.8-12.1,12.9-12.1c8,0,12.8,4.6,12.8,12.3c0,2.1-0.6,4.6-1.4,7.5L188.4,106c-3.5,12.1-6.6,14.2-16.9,14.2
		c-10.5,0-14-2.7-16.7-14.2l-14-60.4L127.5,106C124.9,117.9,121.6,120.2,110.3,120.2z"/>
	<path class="st1" d="M98.2,184.7C98.2,184.7,98.2,184.7,98.2,184.7C98.2,184.7,98.2,184.7,98.2,184.7z"/>
	<path class="st1" d="M84.9,188.4c-0.3-0.8-0.6-1.6-0.8-2.4C84.3,186.9,84.6,187.7,84.9,188.4z"/>
	<path class="st1" d="M85.9,190.6c-0.4-0.7-0.7-1.4-1-2.1C85.2,189.3,85.6,190,85.9,190.6z"/>
	<path class="st1" d="M137.7,187.6c-0.1-0.4-0.3-0.8-0.4-1.3C137.4,186.7,137.5,187.1,137.7,187.6z"/>
	<path class="st1" d="M137.2,186.1c-0.3-0.9-0.5-1.9-0.7-2.9C136.7,184.2,137,185.2,137.2,186.1z"/>
	<path class="st1" d="M136.5,183c-0.1-0.5-0.2-1-0.2-1.5C136.4,182.1,136.4,182.6,136.5,183z"/>
	<path class="st1" d="M142.8,154.6c0.3-0.2,0.5-0.4,0.8-0.5C143.3,154.3,143,154.4,142.8,154.6z"/>
	<path class="st1" d="M142,155.2c0.2-0.2,0.5-0.4,0.7-0.6C142.5,154.8,142.3,155,142,155.2z"/>
	<path class="st1" d="M104.2,131.4c-0.1-0.3-0.1-0.6-0.1-0.9c0-1,0.6-1.5,1.5-1.5c1,0,1.5,0.7,1.6,1.8l1.2,8.2h0.1l1.3-7.5
		c0.3-1.7,0.6-2.4,1.6-2.4c0.6,0,1.2,0.3,1.4,1.4l1.7,8.6h0.1l1.2-8.3c0.2-1.1,0.7-1.6,1.6-1.6c0.8,0,1.4,0.6,1.4,1.5
		c0,0.2,0,0.4-0.1,0.8l-2,9.7c-0.2,1.2-0.6,1.8-2,1.8c-1.5,0-1.9-0.8-2.2-2.2l-1.1-5.5h-0.1l-1.1,6.1c-0.2,1-0.8,1.6-2,1.6
		c-1.2,0-1.8-0.6-2.1-2L104.2,131.4z"/>
	<path class="st1" d="M123.5,134.2v-1.1c0-1,0.3-1.8,1.3-1.8c1,0,1.3,0.8,1.3,1.8v1.1H123.5z M120.4,137.3c0,3.4,0.5,5.5,4.6,5.5
		c2.4,0,4.1-1.4,4.1-3.8c0-1.2-0.6-1.5-1.5-1.5c-0.8,0-1.4,0.3-1.5,1.6c0,0.7-0.5,1.4-1.2,1.4c-1.2,0-1.4-1.2-1.4-2.8v-1.3h4
		c1.5,0,1.7-0.9,1.7-2.1c0-3.5-1.1-5.2-4.2-5.2c-4.1,0-4.6,2.2-4.6,5.5V137.3z"/>
	<path class="st1" d="M134.7,134.6c0-2.7,0.8-3.2,1.5-3.2c1,0,1.3,0.8,1.3,3.7v1.7c0,2.2-0.1,3.5-1.3,3.5c-1.2,0-1.5-1.3-1.5-3.2
		V134.6z M131.6,141c0,1.2,0.6,1.8,1.5,1.8c0.9,0,1.5-0.7,1.5-1.5h0.1c0.5,1,1.5,1.5,2.7,1.5c2.7,0,3.2-2.4,3.2-5.1v-3.5
		c0-2.7-0.5-5.1-3.2-5.1c-1.1,0-2.1,0.5-2.7,1.5h-0.1v-4.1c0-1.2-0.6-1.8-1.5-1.8c-0.9,0-1.5,0.6-1.5,1.8V141z"/>
	<path class="st1" d="M149,138c0,1.4-0.6,2.5-1.6,2.5c-0.6,0-1.1-0.6-1.1-1.6c0-1.1,0.2-1.6,1.6-2.5l1.1-0.7V138z M152,132.9
		c0-2.1-0.4-3.9-4.5-3.9c-2.3,0-4.2,1.2-4.2,3.5c0,0.9,0.9,1.2,1.6,1.2c0.8,0,1.4-0.4,1.4-1c0.1-1,0.4-1.6,1.5-1.6
		c0.8,0,1.2,0.6,1.2,1.3c0,0.6-0.3,1-1,1.4l-2.7,1.4c-1.6,0.8-2.2,2-2.2,4c0,2.5,1.3,3.5,3.1,3.5c1.1,0,2.2-0.5,2.7-1.7l0.1,0
		c0,1.3,0.8,1.7,1.6,1.7c1,0,1.5-0.4,1.5-1.2c0-0.4-0.2-1.1-0.2-2V132.9z"/>
	<path class="st1" d="M154.2,131.4c-0.1-0.3-0.1-0.6-0.1-0.9c0-1,0.6-1.5,1.5-1.5c1,0,1.5,0.7,1.6,1.8l1.2,8.2h0.1l1.3-7.5
		c0.3-1.7,0.6-2.4,1.6-2.4c0.6,0,1.2,0.3,1.4,1.4l1.7,8.6h0l1.2-8.3c0.2-1.1,0.7-1.6,1.6-1.6c0.8,0,1.4,0.6,1.4,1.5
		c0,0.2,0,0.4-0.1,0.8l-2,9.7c-0.2,1.2-0.6,1.8-2,1.8c-1.5,0-1.9-0.8-2.2-2.2l-1.1-5.5h0l-1.1,6.1c-0.2,1-0.8,1.6-2,1.6
		c-1.2,0-1.8-0.6-2-2L154.2,131.4z"/>
	<path class="st1" d="M179,139.7c0,0.9,0.2,1.6,0.2,2c0,0.8-0.5,1.2-1.5,1.2c-0.8,0-1.6-0.4-1.6-1.7l-0.1,0
		c-0.5,1.2-1.7,1.7-2.7,1.7c-1.8,0-3.1-1-3.1-3.5c0-2,0.6-3.1,2.2-4l2.7-1.4c0.7-0.3,1-0.8,1-1.4c0-0.7-0.4-1.3-1.2-1.3
		c-1,0-1.4,0.5-1.5,1.6c-0.1,0.6-0.6,1-1.4,1c-0.7,0-1.6-0.3-1.6-1.2c0-2.3,1.9-3.5,4.2-3.5c4,0,4.5,1.8,4.5,3.9V139.7z M176,135.7
		l-1.1,0.7c-1.3,0.9-1.6,1.4-1.6,2.5c0,1,0.4,1.6,1.1,1.6c1,0,1.6-1.1,1.6-2.5V135.7z"/>
	<path class="st1" d="M181.8,130.6c0-1,0.4-1.6,1.4-1.6c1,0,1.4,0.6,1.4,1.6v1.2h0c0.4-1.7,1.2-2.8,2.2-2.8c0.8,0,1.5,0.6,1.5,1.9
		c0,0.9-0.5,1.8-1.9,1.8c-0.9,0-1.7,0.6-1.7,1.8v6.5c0,1.2-0.6,1.8-1.5,1.8s-1.5-0.6-1.5-1.8V130.6z"/>
	<path class="st1" d="M192.9,135.2c0-2.9,0.3-3.7,1.3-3.7c0.7,0,1.5,0.5,1.5,3.2v2.5c0,1.9-0.3,3.2-1.5,3.2c-1.1,0-1.3-1.3-1.3-3.5
		V135.2z M189.7,137.7c0,2.7,0.5,5.1,3.2,5.1c1.1,0,2.1-0.5,2.7-1.5h0c0,0.9,0.6,1.5,1.5,1.5c0.9,0,1.5-0.6,1.5-1.8v-14.6
		c0-1.2-0.6-1.8-1.5-1.8c-0.9,0-1.5,0.6-1.5,1.8v4.1h0c-0.5-1-1.6-1.5-2.7-1.5c-2.7,0-3.2,2.4-3.2,5.1V137.7z"/>
	<path class="st1" d="M128.6,38.1c-0.7-0.1-1.4-0.2-2.2-0.2h0h-3.8l-9.9,49.4l-11.9-49.4H73.7L93.2,106c3.3,11.7,6,14.2,17.1,14.2
		c11.3,0,14.6-2.3,17.1-14.2l12.9-58.7C138.5,42.5,134,38.8,128.6,38.1z"/>
	<path class="st1" d="M96.1,141.3c0,1.3-0.6,1.9-1.6,1.9c-0.9,0-1.6-0.6-1.6-1.9v-8.5c0-1-0.5-1.5-1.2-1.5c-1,0-1.6,0.7-1.6,2.5v7.4
		c0,1.3-0.6,1.9-1.6,1.9c-0.9,0-1.6-0.6-1.6-1.9v-8.5c0-1-0.5-1.5-1.2-1.5c-1,0-1.6,0.7-1.6,2.5v7.4c0,1.3-0.6,1.9-1.6,1.9
		c-0.9,0-1.6-0.6-1.6-1.9v-10.8c0-1.3,0.6-1.9,1.6-1.9c0.9,0,1.6,0.6,1.6,1.8h0.1c0.5-1.2,1.7-1.8,2.9-1.8c1.4,0,2.2,0.4,2.8,1.6
		c0.9-1.1,1.8-1.6,3.1-1.6c1.7,0,3,1.1,3,3.4V141.3z"/>
	<path class="st1" d="M100.5,139.3c1.1,0,1.9,0.9,1.9,1.9c0,1.1-0.9,1.9-1.9,1.9c-1.1,0-1.9-0.9-1.9-1.9
		C98.5,140.2,99.4,139.3,100.5,139.3z"/>
</g>
</svg>
