<?xml version="1.0" encoding="utf-8"?>
<!-- Generator: Adobe Illustrator 20.1.0, SVG Export Plug-In . SVG Version: 6.00 Build 0)  -->
<svg version="1.1" id="Isolation_Mode" xmlns="http://www.w3.org/2000/svg" xmlns:xlink="http://www.w3.org/1999/xlink" x="0px"
	 y="0px" viewBox="0 0 206.8 170.3" style="enable-background:new 0 0 206.8 170.3;" xml:space="preserve">
<style type="text/css">
	.st0{fill:#FFFFFF;}
	.st1{opacity:0.29;fill:#FFFFFF;}
</style>
<g>
	<path class="st0" d="M106.9,105.7c-11.1,0-13.8-2.5-17.1-14.2l-20.2-71c-0.8-2.9-1.2-5.2-1.2-7.1c0-7.7,5.6-13.2,13-13.2
		c6.8,0,11.5,4,13.4,12.5l14.4,60l11.7-58.1c2.3-11.3,6.2-14.4,16.6-14.4c10.3,0,14.2,2.9,16.7,14.4l12.5,58.1l14.4-60.6
		C183,4.2,187.9,0,193.9,0c8,0,12.8,4.6,12.8,12.3c0,2.1-0.6,4.6-1.4,7.5l-20.4,71.8c-3.5,12.1-6.6,14.2-16.9,14.2
		c-10.5,0-14-2.7-16.7-14.2l-14-60.4L124,91.5C121.5,103.4,118.2,105.7,106.9,105.7z"/>
	<path class="st1" d="M154.1,23.4c-0.7-0.1-1.4-0.2-2.2-0.2h0H80h-8.8H56.4H34.3h-4.5h-15c-2.8,0-5.4,0.8-7.6,2c0,0,0,0,0,0
		c0,0,0,0,0,0c-1.1,0.6-2.1,1.4-3,2.3c0,0,0,0,0,0c0,0,0,0,0,0C1.6,30.2,0,33.6,0,37.5v7.6v109.5v0c0,7.2,5.5,13.1,12.7,14.1
		c0.7,0.1,1.4,0.2,2.2,0.2h0h117.7h4.5h15c2.8,0,5.4-0.8,7.6-2c0,0,0,0,0,0c0,0,0,0,0,0c1.1-0.6,2.1-1.4,3-2.3c0,0,0,0,0,0
		c0,0,0,0,0,0c2.6-2.6,4.1-6,4.1-9.9V147V37.5v0C166.8,30.3,161.3,24.4,154.1,23.4z"/>
	<path class="st0" d="M123.8,170.2C123.7,170.2,123.7,170.3,123.8,170.2C123.7,170.3,123.7,170.2,123.8,170.2z"/>
	<path class="st0" d="M82.3,118.6c-0.1-0.3-0.1-0.7-0.1-1c0-1.1,0.7-1.7,1.7-1.7c1.1,0,1.6,0.8,1.8,1.9l1.4,8.9h0.1l1.4-8.2
		c0.3-1.8,0.7-2.7,1.8-2.7c0.7,0,1.3,0.3,1.5,1.5l1.8,9.4h0.1l1.4-9.1c0.2-1.2,0.8-1.8,1.8-1.8c0.9,0,1.5,0.6,1.5,1.6
		c0,0.2,0,0.5-0.1,0.9L96,129.1c-0.3,1.4-0.7,2-2.2,2c-1.6,0-2.1-0.8-2.4-2.4l-1.2-6h-0.1l-1.2,6.7c-0.2,1.1-0.9,1.8-2.2,1.8
		c-1.4,0-1.9-0.6-2.2-2.2L82.3,118.6z"/>
	<path class="st0" d="M103.6,121.7v-1.2c0-1.1,0.4-1.9,1.4-1.9c1.1,0,1.4,0.9,1.4,1.9v1.2H103.6z M100.1,125.1c0,3.7,0.5,6.1,5,6.1
		c2.7,0,4.5-1.6,4.5-4.2c0-1.3-0.7-1.6-1.7-1.6c-0.9,0-1.6,0.3-1.6,1.7c0,0.8-0.6,1.5-1.3,1.5c-1.4,0-1.5-1.4-1.5-3.1V124h4.3
		c1.7,0,1.8-1,1.8-2.3c0-3.8-1.2-5.7-4.6-5.7c-4.5,0-5,2.4-5,6.1V125.1z"/>
	<path class="st0" d="M115.8,122.2c0-2.9,0.8-3.5,1.6-3.5c1.1,0,1.4,0.9,1.4,4.1v1.9c0,2.4-0.2,3.8-1.4,3.8c-1.3,0-1.7-1.5-1.7-3.5
		V122.2z M112.4,129.2c0,1.3,0.7,2,1.7,2c1,0,1.7-0.7,1.7-1.7h0.1c0.6,1.1,1.7,1.7,2.9,1.7c3,0,3.5-2.7,3.5-5.6v-3.9
		c0-3-0.5-5.6-3.5-5.6c-1.2,0-2.3,0.6-2.9,1.7h-0.1v-4.5c0-1.3-0.7-2-1.7-2c-1,0-1.7,0.6-1.7,2V129.2z"/>
	<path class="st0" d="M131.5,125.9c0,1.5-0.6,2.7-1.7,2.7c-0.7,0-1.2-0.6-1.2-1.7c0-1.2,0.3-1.7,1.7-2.7l1.2-0.8V125.9z
		 M134.8,120.3c0-2.4-0.5-4.3-4.9-4.3c-2.5,0-4.6,1.3-4.6,3.8c0,1,1,1.3,1.7,1.3c0.9,0,1.5-0.4,1.6-1c0.1-1.1,0.5-1.7,1.6-1.7
		c0.8,0,1.3,0.7,1.3,1.4c0,0.6-0.3,1.1-1.1,1.5l-3,1.5c-1.7,0.9-2.4,2.2-2.4,4.4c0,2.7,1.5,3.9,3.4,3.9c1.2,0,2.4-0.5,3-1.8l0.1,0
		c0,1.4,0.8,1.8,1.7,1.8c1.1,0,1.7-0.4,1.7-1.3c0-0.5-0.2-1.2-0.2-2.2V120.3z"/>
	<path class="st0" d="M137.2,118.6c-0.1-0.3-0.1-0.7-0.1-1c0-1.1,0.7-1.7,1.7-1.7c1.1,0,1.6,0.8,1.8,1.9l1.4,8.9h0.1l1.4-8.2
		c0.3-1.8,0.6-2.7,1.8-2.7c0.7,0,1.3,0.3,1.5,1.5l1.8,9.4h0.1l1.4-9.1c0.2-1.2,0.8-1.8,1.8-1.8c0.9,0,1.5,0.6,1.5,1.6
		c0,0.2,0,0.5-0.1,0.9l-2.2,10.6c-0.3,1.4-0.7,2-2.2,2c-1.6,0-2.1-0.8-2.4-2.4l-1.2-6h-0.1l-1.2,6.7c-0.2,1.1-0.9,1.8-2.2,1.8
		c-1.4,0-1.9-0.6-2.2-2.2L137.2,118.6z"/>
	<path class="st0" d="M164.4,127.7c0,0.9,0.2,1.7,0.2,2.2c0,0.9-0.6,1.3-1.7,1.3c-0.9,0-1.7-0.4-1.7-1.8l-0.1,0
		c-0.6,1.3-1.8,1.8-3,1.8c-1.9,0-3.4-1.1-3.4-3.9c0-2.2,0.6-3.4,2.4-4.4l3-1.5c0.7-0.4,1.1-0.9,1.1-1.5c0-0.8-0.4-1.4-1.3-1.4
		c-1.1,0-1.5,0.6-1.6,1.7c-0.1,0.6-0.7,1-1.6,1c-0.7,0-1.7-0.3-1.7-1.3c0-2.5,2.1-3.8,4.6-3.8c4.4,0,4.9,1.9,4.9,4.3V127.7z
		 M161.1,123.3l-1.2,0.8c-1.5,1-1.7,1.5-1.7,2.7c0,1.1,0.5,1.7,1.2,1.7c1.1,0,1.7-1.2,1.7-2.7V123.3z"/>
	<path class="st0" d="M167.4,117.8c0-1.1,0.5-1.8,1.5-1.8c1.1,0,1.5,0.7,1.5,1.8v1.4h0.1c0.5-1.8,1.3-3.1,2.5-3.1
		c0.9,0,1.6,0.6,1.6,2.1c0,1-0.5,2-2.1,2c-1,0-1.9,0.7-1.9,2v7.2c0,1.3-0.6,2-1.7,2c-1,0-1.7-0.6-1.7-2V117.8z"/>
	<path class="st0" d="M179.6,122.8c0-3.2,0.3-4.1,1.4-4.1c0.8,0,1.6,0.6,1.6,3.5v2.7c0,2.1-0.4,3.5-1.7,3.5c-1.2,0-1.4-1.4-1.4-3.8
		V122.8z M176.1,125.5c0,3,0.5,5.6,3.5,5.6c1.2,0,2.3-0.5,2.9-1.7h0.1c0,1,0.7,1.7,1.7,1.7c1,0,1.7-0.6,1.7-2v-16c0-1.3-0.7-2-1.7-2
		c-1,0-1.7,0.6-1.7,2v4.5h-0.1c-0.6-1.1-1.7-1.7-2.9-1.7c-3,0-3.5,2.7-3.5,5.6V125.5z"/>
	<path class="st0" d="M166.8,72.2l-0.1,0.5l-10.5-48.9c-0.7-0.2-1.4-0.4-2.1-0.4c-0.7-0.1-1.4-0.2-2.2-0.2h-32.8l-9.9,49.5
		L97.3,23.2H70.3l19.5,68.3c3.3,11.7,6,14.2,17.1,14.2c11.3,0,14.6-2.3,17.1-14.2l13.2-60.4l14,60.4c2.6,11,6,14,15.5,14.2V72.2z"/>
</g>
</svg>
