<?xml version="1.0" encoding="utf-8"?>
<!-- Generator: Adobe Illustrator 20.1.0, SVG Export Plug-In . SVG Version: 6.00 Build 0)  -->
<svg version="1.1" id="Layer_1" xmlns="http://www.w3.org/2000/svg" xmlns:xlink="http://www.w3.org/1999/xlink" x="0px" y="0px"
	 viewBox="0 0 100.9 30.4" style="enable-background:new 0 0 100.9 30.4;" xml:space="preserve">
<style type="text/css">
	.st0{fill-rule:evenodd;clip-rule:evenodd;fill:#FFFFFF;}
</style>
<g id="amazon">
	<path class="st0" d="M40.9,30.4c-10.3,0-19.5-3.8-26.5-10.1c-0.5-0.5-0.1-1.2,0.6-0.8c7.5,4.4,16.9,7,26.5,7
		c6.5,0,13.6-1.3,20.2-4.1c1-0.4,1.8,0.7,0.9,1.4C56.7,28.1,48.2,30.4,40.9,30.4"/>
	<path class="st0" d="M65,21c-0.7-1-5-0.5-6.8-0.2c-0.6,0.1-0.7-0.4-0.1-0.8c3.4-2.4,8.9-1.7,9.5-0.9c0.6,0.8-0.2,6.3-3.3,8.9
		c-0.5,0.4-0.9,0.2-0.7-0.3C64.2,25.9,65.8,22,65,21z"/>
	<path class="st0" d="M58.3,3.3V1c0-0.3,0.3-0.6,0.6-0.6l10.3,0c0.3,0,0.6,0.2,0.6,0.6l0,2c0,0.3-0.3,0.8-0.8,1.4L63.7,12
		c2,0,4.1,0.2,5.9,1.3c0.4,0.2,0.5,0.6,0.5,0.9v2.4c0,0.3-0.4,0.7-0.8,0.5c-3.2-1.7-7.4-1.8-10.8,0c-0.4,0.2-0.7-0.2-0.7-0.5v-2.3
		c0-0.4,0-1,0.4-1.6l6.2-8.8l-5.4,0C58.6,3.9,58.3,3.7,58.3,3.3z"/>
	<path class="st0" d="M20.9,17.6h-3.1c-0.3,0-0.5-0.2-0.6-0.5l0-16c0-0.3,0.3-0.6,0.6-0.6l2.9,0c0.3,0,0.5,0.2,0.6,0.5v2.1h0.1
		c0.8-2,2.2-3,4.1-3c2,0,3.2,0.9,4.1,3c0.8-2,2.5-3,4.3-3c1.3,0,2.7,0.5,3.6,1.8c1,1.3,0.8,3.3,0.8,5l0,10.1c0,0.3-0.3,0.6-0.6,0.6
		h-3.1c-0.3,0-0.6-0.3-0.6-0.6l0-8.5c0-0.7,0.1-2.4-0.1-3c-0.2-1.1-0.9-1.4-1.8-1.4c-0.8,0-1.5,0.5-1.9,1.3
		c-0.3,0.8-0.3,2.2-0.3,3.1v8.5c0,0.3-0.3,0.6-0.6,0.6h-3.1c-0.3,0-0.6-0.3-0.6-0.6l0-8.5c0-1.8,0.3-4.4-1.9-4.4
		c-2.2,0-2.2,2.6-2.2,4.4l0,8.5C21.5,17.4,21.2,17.6,20.9,17.6z"/>
	<path class="st0" d="M78.6,0.2c4.6,0,7.1,4,7.1,9c0,4.9-2.8,8.8-7.1,8.8c-4.5,0-7-4-7-8.9C71.6,4,74.1,0.2,78.6,0.2z M78.6,3.4
		c-2.3,0-2.4,3.1-2.4,5.1c0,2,0,6.1,2.4,6.1c2.4,0,2.5-3.4,2.5-5.4c0-1.3-0.1-3-0.5-4.3C80.3,3.9,79.6,3.4,78.6,3.4z"/>
	<path class="st0" d="M91.8,17.6h-3.1c-0.3,0-0.6-0.3-0.6-0.6l0-16c0-0.3,0.3-0.5,0.6-0.5l2.9,0c0.3,0,0.5,0.2,0.6,0.4v2.5h0.1
		c0.9-2.2,2.1-3.2,4.3-3.2c1.4,0,2.8,0.5,3.6,1.9c0.8,1.3,0.8,3.4,0.8,5v10.1c0,0.3-0.3,0.5-0.6,0.5h-3.1c-0.3,0-0.5-0.2-0.6-0.5
		V8.4c0-1.8,0.2-4.3-2-4.3c-0.8,0-1.5,0.5-1.8,1.3c-0.4,1-0.5,2-0.5,3v8.6C92.4,17.4,92.1,17.6,91.8,17.6z"/>
	<path class="st0" d="M50.2,10c0,1.2,0,2.2-0.6,3.3c-0.5,0.9-1.3,1.4-2.2,1.4c-1.2,0-1.9-0.9-1.9-2.3c0-2.7,2.4-3.1,4.6-3.1V10z
		 M53.3,17.6c-0.2,0.2-0.5,0.2-0.7,0.1c-1-0.9-1.2-1.3-1.8-2.1c-1.7,1.7-2.9,2.3-5.1,2.3c-2.6,0-4.7-1.6-4.7-4.9
		c0-2.5,1.4-4.3,3.3-5.1C46,7.1,48.3,7,50.2,6.8V6.4c0-0.7,0.1-1.6-0.4-2.3c-0.4-0.6-1.1-0.8-1.8-0.8c-1.2,0-2.3,0.6-2.5,1.9
		c-0.1,0.3-0.3,0.6-0.5,0.6l-3-0.3c-0.3-0.1-0.5-0.3-0.5-0.7c0.7-3.7,4-4.8,7-4.8C50,0,52,0.4,53.2,1.6c1.5,1.4,1.4,3.3,1.4,5.4v4.9
		c0,1.5,0.6,2.1,1.2,2.9c0.2,0.3,0.2,0.6,0,0.8C55.1,16.1,53.9,17,53.3,17.6L53.3,17.6z"/>
	<path class="st0" d="M9.2,10c0,1.2,0,2.2-0.6,3.3c-0.5,0.9-1.3,1.4-2.2,1.4c-1.2,0-1.9-0.9-1.9-2.3c0-2.7,2.4-3.1,4.6-3.1V10z
		 M12.4,17.6c-0.2,0.2-0.5,0.2-0.7,0.1c-1-0.9-1.2-1.3-1.8-2.1c-1.7,1.7-2.9,2.3-5.1,2.3C2,17.9,0,16.2,0,13c0-2.5,1.4-4.3,3.3-5.1
		C5,7.1,7.4,7,9.2,6.8V6.4c0-0.7,0.1-1.6-0.4-2.3C8.4,3.5,7.7,3.3,7.1,3.3c-1.2,0-2.3,0.6-2.5,1.9C4.5,5.5,4.3,5.7,4,5.8L1,5.4
		C0.7,5.4,0.5,5.2,0.5,4.8c0.7-3.7,4-4.8,7-4.8C9,0,11,0.4,12.2,1.6c1.5,1.4,1.4,3.3,1.4,5.4v4.9c0,1.5,0.6,2.1,1.2,2.9
		c0.2,0.3,0.2,0.6,0,0.8C14.1,16.1,13,17,12.4,17.6L12.4,17.6z"/>
</g>
</svg>
