<?xml version="1.0" encoding="utf-8"?>
<!-- Generator: Adobe Illustrator 20.1.0, SVG Export Plug-In . SVG Version: 6.00 Build 0)  -->
<svg version="1.1" id="Layer_1" xmlns="http://www.w3.org/2000/svg" xmlns:xlink="http://www.w3.org/1999/xlink" x="0px" y="0px"
	 viewBox="0 0 102.7 38.6" style="enable-background:new 0 0 102.7 38.6;" xml:space="preserve">
<style type="text/css">
	.st0{fill:#FFFFFF;}
</style>
<title>Artboard 1</title>
<g id="ameritas">
	<path class="st0" d="M6.7,12.7H5.4L0,26h1.8l1.7-4.3h4.9l1.7,4.3H12L6.7,12.7L6.7,12.7z M7.9,20.3H4.1L6,15.5L7.9,20.3z"/>
	<rect x="44.8" y="13.7" class="st0" width="1.7" height="1.7"/>
	<path class="st0" d="M62.9,23.8v-4.2c0.1-1.8-1.3-3.4-3.1-3.5c-0.1,0-0.3,0-0.4,0c-1.5-0.1-3,0.4-4.1,1.5l-0.1,0.1l1,1.2l0.1-0.1
		c0.8-0.7,1.8-1.1,2.8-1.1c1.1-0.2,2,0.6,2.2,1.6c0,0.2,0,0.4,0,0.6v0h-0.5c-1.6,0-6,0-6,3.4c0,2,1.8,2.9,3.4,2.9
		c1.2,0.1,2.5-0.4,3.2-1.4c0,0.4,0.1,0.8,0.1,1.2h1.6C63,25.3,63,24.5,62.9,23.8 M60.8,21.3h0.5v0.5c0.1,1.4-0.9,2.7-2.3,2.8
		c-0.1,0-0.2,0-0.4,0c-0.9,0-2-0.4-2-1.5S58,21.3,60.8,21.3"/>
	<rect x="44.8" y="16.4" class="st0" width="1.7" height="9.7"/>
	<path class="st0" d="M54,24.3c-0.5,0.3-1,0.4-1.5,0.4c-0.8,0-1.2-0.2-1.2-1.5v-5.3H54v-1.6h-2.6v-2.6h-1.7v2.6h-2v1.6h2v5.7
		c-0.2,1.3,0.7,2.5,2,2.7c0.2,0,0.3,0,0.5,0c0.6,0,1.3-0.1,1.8-0.4V24.3z"/>
	<path class="st0" d="M42.7,16.3c-1.1,0-2.1,0.4-2.7,1.3v-1.3h-1.7V26H40v-5.2c-0.1-1.5,1.1-2.8,2.6-3c0.3,0,0.6,0,0.9,0.1v-1.6
		C43.5,16.3,43,16.3,42.7,16.3"/>
	<path class="st0" d="M35.4,23.1c-0.6,1-1.7,1.6-2.8,1.6c-1.7,0-3.1-1.3-3.2-3H37v-0.8c0.1-2.5-1.8-4.7-4.3-4.8c-0.1,0-0.3,0-0.4,0
		c-2.7,0-4.9,2.2-4.9,4.9c0,0.1,0,0.1,0,0.2c-0.1,2.7,2.1,5,4.8,5.1c0.1,0,0.2,0,0.2,0c1.6,0,3.2-0.7,4.2-2.1L35.4,23.1z M32.4,17.7
		c1.4-0.1,2.7,0.9,2.8,2.4c0,0.1,0,0.2,0,0.3h-5.9C29.6,18.8,30.8,17.7,32.4,17.7"/>
	<path class="st0" d="M69.2,20.5l-1.3-0.3c-1.3-0.3-1.7-0.6-1.7-1.3s0.9-1.2,1.7-1.2c0.8,0,1.6,0.5,1.9,1.2V19l1.5-1V18
		c-0.6-1.2-1.9-2-3.3-1.8c-1.8,0-3.6,0.9-3.6,3c0,1.3,0.9,2.2,2.5,2.6l1.3,0.3c1,0.2,1.6,0.5,1.6,1.3c0,0.9-1,1.4-2,1.4
		c-1,0-1.9-0.5-2.3-1.4l-0.1-0.2l-1.4,1.1l0.1,0.1c0.8,1.3,2.3,2.1,3.8,2c1.8,0,3.8-0.8,3.8-3c0-1.4-1.1-2.5-2.4-2.7"/>
	<path class="st0" d="M22.8,16.1c-1.2,0-2.2,0.6-2.8,1.6c-0.5-1-1.6-1.7-2.8-1.6c-1-0.1-1.9,0.4-2.6,1.1v-0.9H13V26h1.7
		c0,0,0-6.3,0-6.3l0,0c0-1.1,0.9-2,2-2c0,0,0,0,0.1,0c1-0.1,1.9,0.6,2,1.6c0,0.1,0,0.1,0,0.2c0,0.1,0,0.3,0,0.4V26h1.7v-6.4
		c0-1.1,0.9-2,2-2c0,0,0,0,0.1,0c1-0.1,1.9,0.6,2.1,1.6c0,0.1,0,0.3,0,0.4V26h1.7v-6.5c0.2-1.7-1.1-3.3-2.8-3.5
		C23.2,16.1,23,16.1,22.8,16.1"/>
	<path class="st0" d="M100.5,18.3c1.6-1.8,1.9-4.4,0.8-6.6l0,0c-1.1-2.5-3.5-4.4-3.9-6.4c-0.2-1,1-1,1.5-0.4s0.7,1.1,1.7,1.2
		s1.6-0.5,2.1-0.7c-0.1-0.1-2.2-1-3.9-1.7c-4.7-1.9-2,3.8-1.7,4.7l0,0c-2.2-1-4.2-2.4-6.1-3.9c-1.3-1.1-2.8-2.1-4.3-3l0,0
		C85.5,0.5,84,0.1,82.4,0c-1.9,0-3.6,1.2-4.2,3c0.8,0,1.5,0,2.3,0c0,0-0.3,0.7-1.6,0.7c-1.6,0-2.3,0-2.6,0C73.9,3.8,74.5,7,74.5,7
		c-0.8-0.3-0.9-1.5-0.8-2c-0.5,0.2-2.8,3.8,0.4,4.5c-0.3,2.5,0,4.8,1,5.4c0,0,0.1,0,0.1,0c0.9-0.2,1.1,3.3,0.9,3.9
		c0.4,0,0.7-0.1,1-0.4l0,0c0.5,0.3,0.6,0.9,0.3,1.4c-0.1,0.1-0.2,0.3-0.4,0.3l0,0c1.2,0.4,2.5-0.3,2.9-1.5c0.1-0.2,0.1-0.5,0.1-0.8
		c0.3,0.1,0.6,0.4,0.6,0.7c0,0.1,0,0.2-0.1,0.3c0.8-0.3,1.4-0.9,1.7-1.7c0,2-2.1,3.2-2.9,4.1c-0.2,0.4,0.3,1.5,0.4,1.8
		s0.4,0,2.2,0.6c0.3,0.1,1.3,0.5,1.3,0.7c-0.1,0.1-0.3,0.2-0.4,0.3c-0.1,0.4-0.3,1.3-0.3,1.3h3.8c0-0.3,0-0.6,0-0.8
		c0.1-0.3,0.2-0.6,0.4-0.9c0.4,0,0.8,0,1.2,0.1c-0.1-0.3-0.1-0.6-0.1-0.9c0.3,0.1,0.7,0.1,1,0.1c-0.4-0.9,0-4.5,3-2.7
		c-0.7,2.1-1.6,3.7-2.4,3.8c-0.1,0-0.1,0-0.2,0c-0.2,0.4-0.3,0.9-0.5,1.3h3.4c0-0.9,0.8-2.3,2.2-3.5c0.5-0.4,1.1-0.8,1.6-1.2
		c-0.3-0.5-0.5-0.9-0.5-1.1h0.4c0.6,0,1.2-0.1,1.8-0.2c0.6,0.9,0.9,2,0.9,3.1c0,0.7-0.5,1.4-1.2,1.7c-0.2,0.4-0.3,0.9-0.5,1.3h3.3
		c0-1.6,0.4-3.2,1.2-4.5C100.8,20.6,100.5,19.4,100.5,18.3L100.5,18.3 M79.9,14.8L79.9,14.8c-1.1-0.4-0.6,0.6-1.7,0.6l0,0
		c-1.1,0-0.6-1-1.6-0.6h-0.1c-0.1,0-0.2-0.1-0.2-0.1v0c0,0,0-0.1,0-0.1c0-0.1,0.1-0.1,0.2-0.1c1.1-0.4,2.2-0.4,3.3,0
		c0.1,0,0.1,0.1,0.2,0.1l0,0c0,0,0,0.1,0,0.1C80,14.8,80,14.8,79.9,14.8L79.9,14.8 M82,11.5c-0.2,0.6-0.9,0.4-1,0.2
		c-0.1-0.5,0.4-0.4,0.8-1.1S82.2,11.2,82,11.5 M82.4,7.7c0.5-0.7,1.5-0.4,1.5-2.7c1.8,2.3,0.8,3.5,0.2,3.9
		C82.9,9.8,81.7,8.8,82.4,7.7 M85.4,22c-0.1,0.5-0.4,0.9-0.8,1.2c0-0.4-0.1-0.9-0.2-1.3c-0.7,0.2-1.4,0.1-2-0.1
		c1.1-0.4,2.1-1.1,2.8-2.1C85.7,20.4,85.7,21.2,85.4,22 M99.5,17.3l-0.2,0.2l0,0c0.2-4.1-6.3-3.4-11.2-2.4c4.8-3.5,0.8-7.2,0.8-7.8
		C89.4,7.8,90.1,8,90.8,8c-0.6-1-1.1-2-1.5-3.1V4.8l0.9,0.7c2.2,2,4.8,3.5,7.6,4.7c1.8,0.6,2.9,2.3,2.8,4.2
		C100.6,15.4,100.2,16.5,99.5,17.3"/>
	<path class="st0" d="M69,34.8c0.1-0.6,0.7-1.1,1.3-1.2c0.8,0,0.9,0.5,0.8,1.2H69z M70.9,35.8c-0.2,0.5-0.7,0.8-1.2,0.8
		c-0.7,0-1-0.5-0.8-1.3h2.8c0.3-1.4-0.1-2.2-1.2-2.2c-1.2,0-2.2,1-2.3,2.1c-0.2,1.1,0.2,1.9,1.3,1.9c0.4,0,0.8-0.1,1.1-0.3
		c0.4-0.2,0.7-0.6,0.9-1.1L70.9,35.8z M67.8,33.7l0.1-0.5h-0.7l0.1-0.5c0.1-0.3,0.2-0.5,0.5-0.5h0.3l0.1-0.6h-0.3
		c-0.6-0.1-1.1,0.3-1.2,0.8l-0.1,0.7h-0.5L66,33.7h0.5L65.8,37h0.7l0.7-3.3H67.8z M65.3,32.4l0.2-0.7h-0.7l-0.2,0.7H65.3z
		 M65.1,33.1h-0.7L63.6,37h0.7L65.1,33.1z M63.6,31.7h-0.7L61.8,37h0.7L63.6,31.7z M58.9,33.1h-0.6l-0.1,0.6c-0.1-0.4-0.6-0.7-1-0.7
		c-1,0.1-1.9,0.9-2,1.9c-0.2,0.9-0.1,2.2,1.2,2.2c0.5,0,0.9-0.2,1.2-0.6v0.2c-0.1,0.5-0.3,1.4-1.4,1.4c-0.2,0-0.8,0-0.7-0.6h-0.7
		c-0.1,1,0.8,1.2,1.2,1.2c1.1,0.1,2.1-0.8,2.2-1.9L58.9,33.1z M55.8,35.1c0.1-0.5,0.4-1.4,1.4-1.4s0.8,1,0.7,1.6
		c-0.1,0.7-0.6,1.3-1.3,1.3C55.8,36.6,55.6,35.9,55.8,35.1 M54.1,34.4c0.2-1.1-0.5-1.3-1.1-1.3c-0.5,0-1,0.3-1.3,0.7l0,0l0.1-0.5
		h-0.6L50.4,37H51l0.4-2.1c0.2-1,0.9-1.3,1.3-1.3c0.6,0,0.8,0.3,0.6,1L52.9,37h0.7L54.1,34.4z M50,32.5l0.2-0.7h-0.7l-0.2,0.7H50z
		 M49.9,33.2h-0.7L48.4,37h0.7L49.9,33.2z M48.2,31.7h-0.7L46.4,37H47L48.2,31.7z M46.2,31.7h-0.7L44.4,37H45L46.2,31.7z M44,32.5
		l0.2-0.7h-0.7l-0.2,0.7H44z M43.9,33.2h-0.7L42.4,37H43L43.9,33.2z M42,33.7l0.1-0.5h-0.7l0.1-0.5c0.1-0.3,0.2-0.5,0.5-0.5h0.3
		l0.1-0.6h-0.3c-0.6-0.1-1.1,0.3-1.2,0.8l-0.1,0.7h-0.5l-0.1,0.5h0.5L40,37h0.7l0.7-3.3H42z M39.5,31.7h-0.7L37.7,37h0.7L39.5,31.7z
		 M36.4,37l0.8-3.8h-0.7l-0.5,2.1c-0.1,0.7-0.6,1.2-1.3,1.3c-0.4,0-0.7-0.2-0.6-0.8l0.5-2.6h-0.7l-0.6,2.8c-0.2,0.9,0.4,1.2,1,1.2
		c0.5,0,1.1-0.2,1.4-0.7l0,0L35.7,37L36.4,37z M32.8,33.7l0.1-0.5h-0.7l0.1-0.5c0.1-0.3,0.2-0.5,0.5-0.5h0.3l0.1-0.6h-0.3
		c-0.6-0.1-1.1,0.3-1.2,0.8l-0.1,0.7h-0.5L31,33.7h0.5L30.8,37h0.7l0.7-3.3H32.8z"/>
	<path class="st0" d="M73.7,24c0.1,0.1,0.3,0.1,0.3,0.2c0.1,0.1,0.2,0.2,0.2,0.3c0.1,0.3,0.1,0.6,0,0.9c-0.1,0.3-0.3,0.5-0.6,0.6
		c-0.3,0.1-0.6,0.1-0.9,0c-0.1-0.1-0.3-0.1-0.3-0.2c-0.1-0.1-0.2-0.2-0.2-0.3c-0.2-0.4-0.1-0.9,0.2-1.2c0.1-0.1,0.2-0.2,0.3-0.2
		C73.1,23.9,73.4,23.9,73.7,24 M72.9,24.2c-0.2,0.1-0.4,0.3-0.5,0.5c-0.1,0.2-0.1,0.5,0,0.8c0,0.1,0.1,0.2,0.2,0.3
		c0.1,0.1,0.2,0.2,0.3,0.2C73,26,73.2,26,73.3,26c0.3,0,0.5-0.1,0.7-0.3c0.1-0.1,0.2-0.2,0.2-0.3c0.1-0.2,0.1-0.5,0-0.8
		c0-0.1-0.1-0.2-0.2-0.3c-0.1-0.1-0.2-0.2-0.3-0.2c-0.1-0.1-0.2-0.1-0.4-0.1C73.2,24.1,73,24.1,72.9,24.2 M72.9,25.7v-1.2h0.5
		c0.1,0,0.2,0,0.3,0.1c0.1,0.1,0.1,0.2,0.1,0.2c0,0,0,0.1,0,0.1c0,0,0,0.1-0.1,0.1l-0.1,0.1h-0.1l0.3,0.5h-0.2l-0.3-0.5h-0.3v0.5
		L72.9,25.7z M73.4,25h0.1c0,0,0.1,0,0.1-0.1c0,0,0-0.1,0-0.1c0,0,0-0.1,0-0.1c0,0,0,0-0.1-0.1h-0.1h-0.4v0.4L73.4,25"/>
	<path class="st0" d="M72.1,36.3c0-0.4,0.3-0.7,0.7-0.7s0.7,0.3,0.7,0.7s-0.3,0.7-0.7,0.7c0,0,0,0,0,0
		C72.5,37.1,72.1,36.7,72.1,36.3C72.1,36.3,72.1,36.3,72.1,36.3z M72.9,36.9c0.3,0,0.6-0.2,0.6-0.6c0-0.3-0.2-0.6-0.6-0.6
		c-0.3,0-0.6,0.2-0.6,0.6c0,0,0,0,0,0C72.2,36.7,72.5,36.9,72.9,36.9C72.8,37,72.8,37,72.9,36.9L72.9,36.9z M72.7,36.8h-0.1v-0.8
		h0.3c0.2,0,0.3,0.1,0.3,0.2c0,0.1-0.1,0.2-0.2,0.2c0,0,0,0,0,0l0.2,0.4h-0.1l-0.2-0.4h-0.1L72.7,36.8z M72.9,36.3
		c0.1,0,0.2,0,0.2-0.1S73,36,72.9,36h-0.2v0.3L72.9,36.3z"/>
</g>
</svg>
