<?xml version="1.0" encoding="utf-8"?>
<!-- Generator: Adobe Illustrator 20.1.0, SVG Export Plug-In . SVG Version: 6.00 Build 0)  -->
<svg version="1.1" id="Layer_1" xmlns="http://www.w3.org/2000/svg" xmlns:xlink="http://www.w3.org/1999/xlink" x="0px" y="0px"
	 viewBox="0 0 540 284.8" style="enable-background:new 0 0 540 284.8;" xml:space="preserve">
<style type="text/css">
	.st0{fill:#FFFFFF;}
</style>
<g>
	<path class="st0" d="M208.4,260.6l-0.1,21.5l1.6,0.3c4.9,0.9,9.9,1.6,14.9,1.9c4.4,0.4,8.8,0.5,13.2,0.3c4.2-0.3,8.4-1.1,12.4-2.3
		c4.7-1.3,9.1-3.7,12.9-6.9c3.4-2.9,6-6.6,7.5-10.7c2.7-7,2.6-14.7-0.1-21.6c-1.5-3.6-3.8-6.8-6.7-9.3c-2.9-2.6-6.2-4.5-9.9-5.7
		l-16.2-6c-1.9-0.8-3.5-2.3-4.4-4.2c-0.7-1.6-0.6-3.4,0.2-4.9c0.3-0.5,0.7-1,1.1-1.5c0.5-0.5,1.1-0.9,1.7-1.3
		c0.2-0.1,0.5-0.3,0.7-0.4c1.8-0.9,3.8-1.5,5.8-1.7c3.4-0.5,6.9-0.5,10.4,0.1c4,0.4,8.1,1.2,12,2.1l0.8,0.2v-19.9l-1.6-0.3
		c-4-1-8.1-1.7-12.2-2.2c-5.3-0.7-10.7-0.7-16.1-0.1c-6.8,0.6-13.2,3.2-18.5,7.4c-3.6,2.8-6.3,6.6-7.9,10.9
		c-2.4,6.5-2.4,13.7,0,20.2c1.2,3.3,3.2,6.2,5.7,8.6c2.2,2.1,4.7,3.9,7.4,5.3c3.5,1.9,7.3,3.4,11.2,4.4c1.3,0.4,2.6,0.8,3.8,1.2
		l1.9,0.7c0.2,0.1,0.4,0.1,0.6,0.2c1.9,0.7,3.6,1.7,5.1,3.1c1,0.9,1.8,2.1,2.3,3.4c0.3,1.2,0.3,2.4,0,3.6c-0.6,1.9-1.9,3.5-3.7,4.5
		c-1.9,1-4,1.7-6.2,1.9c-3.2,0.5-6.4,0.7-9.6,0.5c-4.2-0.3-8.4-0.9-12.5-1.7c-2.2-0.4-4.3-0.9-6.5-1.5L208.4,260.6"/>
	<path class="st0" d="M120.1,281.4v-25l-0.5,0.2c-5.6,2.7-11.8,4.3-18,4.6c-6.5,0.5-13-1.4-18.1-5.3c-3.7-2.9-6.5-6.8-7.9-11.2
		c-1.6-4.8-1.8-10.1-0.5-15c1.2-5.1,4-9.6,8-12.8c3.6-3,8-4.9,12.6-5.5c8.2-0.9,16.5,0.6,23.9,4.5l0.5,0.3v-25.2l-1.1-0.3
		c-7.3-2.4-15.1-3.4-22.8-3c-7,0.2-13.9,1.8-20.3,4.6c-6.5,3-12.2,7.4-16.6,12.9c-14,17.8-14.4,42.7-0.9,60.9
		c6.6,8.5,16,14.5,26.5,17c11.1,2.7,22.6,2.3,33.5-1.2L120.1,281.4"/>
	<polyline class="st0" points="176.4,283 176.4,189.2 152.7,189.2 152.7,283 176.4,283 	"/>
	<polyline class="st0" points="526.4,272.1 526.4,270.7 516.4,270.7 516.4,272.1 520.6,272.1 520.6,283 522.3,283 522.3,272.1 
		526.4,272.1 	"/>
	<polyline class="st0" points="527.4,283 529,283 529,273.2 529.2,273.2 532.8,283 534.4,283 538.3,272.7 538.3,283 540,283 
		540,270.7 537.4,270.7 533.8,280.9 530.1,270.7 527.4,270.7 527.4,283 	"/>
	<path class="st0" d="M0,113.8c0.2,3,1.5,5.7,3.7,7.7c2.2,2,5,3.1,8,3.1c3,0,5.8-1.1,8-3.1c2.2-2,3.5-4.8,3.7-7.7v-26
		c-0.1-3-1.4-5.9-3.6-8c-2.2-2.1-5.1-3.3-8.1-3.3c-3,0-5.9,1.2-8.1,3.3c-2.2,2.1-3.5,5-3.6,8V113.8"/>
	<path class="st0" d="M64.8,113.8c0.2,3,1.5,5.7,3.7,7.7c2.2,2,5,3.1,8,3.1c3,0,5.8-1.1,8-3.1c2.2-2,3.5-4.8,3.7-7.7V55.6
		c-0.1-3-1.4-5.9-3.6-8c-2.2-2.1-5.1-3.3-8.1-3.3c-3,0-5.9,1.2-8.1,3.3c-2.2,2.1-3.5,5-3.6,8V113.8"/>
	<path class="st0" d="M129.2,137.3c0.2,3,1.5,5.7,3.7,7.7c2.2,2,5,3.1,8,3.1c3,0,5.8-1.1,8-3.1c2.2-2,3.5-4.8,3.7-7.7V11.2
		c-0.1-3-1.4-5.9-3.6-8c-2.2-2.1-5.1-3.3-8.1-3.3c-3,0-5.9,1.2-8.1,3.3c-2.2,2.1-3.5,5-3.6,8V137.3"/>
	<path class="st0" d="M193.9,113.8c0.2,3,1.5,5.7,3.7,7.7c2.2,2,5,3.1,8,3.1c3,0,5.8-1.1,8-3.1c2.2-2,3.5-4.8,3.7-7.7V55.6
		c-0.1-3-1.4-5.9-3.6-8c-2.2-2.1-5.1-3.3-8.1-3.3c-3,0-5.9,1.2-8.1,3.3c-2.2,2.1-3.5,5-3.6,8V113.8"/>
	<path class="st0" d="M258.4,113.8c0.2,3,1.5,5.7,3.7,7.7c2.2,2,5,3.1,8,3.1c3,0,5.8-1.1,8-3.1c2.2-2,3.5-4.8,3.7-7.7v-26
		c-0.1-3-1.4-5.9-3.6-8c-2.2-2.1-5.1-3.3-8.1-3.3s-5.9,1.2-8.1,3.3c-2.2,2.1-3.5,5-3.6,8V113.8"/>
	<path class="st0" d="M323.1,113.8c0.2,3,1.5,5.7,3.7,7.7c2.2,2,5,3.1,8,3.1c3,0,5.8-1.1,8-3.1c2.2-2,3.5-4.8,3.7-7.7V55.6
		c-0.1-3-1.4-5.9-3.6-8c-2.2-2.1-5.1-3.3-8.1-3.3c-3,0-5.9,1.2-8.1,3.3c-2.2,2.1-3.5,5-3.6,8V113.8"/>
	<path class="st0" d="M387.5,137.3c0.2,3,1.5,5.7,3.7,7.7c2.2,2,5,3.1,8,3.1c3,0,5.8-1.1,8-3.1c2.2-2,3.5-4.8,3.7-7.7V11.2
		c-0.1-3-1.4-5.9-3.6-8c-2.2-2.1-5.1-3.3-8.1-3.3c-3,0-5.9,1.2-8.1,3.3c-2.2,2.1-3.5,5-3.6,8V137.3"/>
	<path class="st0" d="M452.1,113.8c0.2,3,1.5,5.7,3.7,7.7c2.2,2,5,3.1,8,3.1c3,0,5.8-1.1,8-3.1c2.2-2,3.5-4.8,3.7-7.7V55.6
		c-0.1-3-1.4-5.9-3.6-8c-2.2-2.1-5.1-3.3-8.1-3.3c-3,0-5.9,1.2-8.1,3.3c-2.2,2.1-3.5,5-3.6,8V113.8"/>
	<path class="st0" d="M516.6,113.8c0.2,3,1.5,5.7,3.7,7.7c2.2,2,5,3.1,8,3.1c3,0,5.8-1.1,8-3.1c2.2-2,3.5-4.8,3.7-7.7v-26
		c-0.1-3-1.4-5.9-3.6-8c-2.2-2.1-5.1-3.3-8.1-3.3c-3,0-5.9,1.2-8.1,3.3c-2.2,2.1-3.5,5-3.6,8V113.8"/>
	<path class="st0" d="M367.3,281.4v-25l-0.5,0.2c-5.6,2.7-11.8,4.3-18,4.6c-6.5,0.5-13-1.4-18.1-5.3c-3.7-2.9-6.5-6.8-7.9-11.2
		c-1.6-4.8-1.8-10.1-0.5-15c1.2-5.1,4-9.6,8-12.8c3.6-3,8-4.9,12.6-5.5c8.2-0.9,16.5,0.6,23.9,4.5l0.5,0.3v-25.2l-1.1-0.3
		c-7.3-2.4-15.1-3.4-22.8-3c-7,0.2-13.9,1.8-20.3,4.6c-6.5,3-12.2,7.4-16.6,12.9c-14,17.8-14.4,42.7-0.9,60.9
		c6.6,8.5,16,14.5,26.5,17c11.1,2.7,22.6,2.3,33.5-1.2L367.3,281.4"/>
	<path class="st0" d="M392.2,236.2c0.2,14.8,7.1,28.8,18.8,38c11.6,9.2,26.8,12.7,41.3,9.5c19.7-3.7,35-19.2,38.5-38.9
		c3.5-19.7-5.5-39.5-22.7-49.8c-15.2-9.4-34.2-9.9-49.9-1.4C402.5,202.1,392.6,218.3,392.2,236.2 M426.5,216.9
		c5.1-4.1,11.6-6,18.1-5.2c6.5,0.7,12.4,4,16.5,9.1c4.1,5.1,6,11.6,5.2,18.1c-0.7,6.5-4,12.4-9.1,16.5c-5.1,4.1-11.6,6-18.1,5.2
		c-6.5-0.7-12.4-4-16.5-9.1c-4.1-5.1-6-11.6-5.2-18.1C418.1,227,421.4,221,426.5,216.9"/>
</g>
</svg>
