<?xml version="1.0" encoding="utf-8"?>
<!-- Generator: Adobe Illustrator 20.1.0, SVG Export Plug-In . SVG Version: 6.00 Build 0)  -->
<svg version="1.1" id="Layer_1" xmlns="http://www.w3.org/2000/svg" xmlns:xlink="http://www.w3.org/1999/xlink" x="0px" y="0px"
	 viewBox="0 0 189 53" style="enable-background:new 0 0 189 53;" xml:space="preserve">
<style type="text/css">
	.st0{fill:#666766;}
</style>
<path class="st0" d="M92.5,25l-4.4-2.6c-1.3,2.1-3.3,3.5-6,3.5c-4.4,0-7.5-3.3-7.5-7.4c0-4.1,3.2-7.4,7.5-7.4c2.8,0,4.7,1.4,6,3.4
	l4.4-2.5c-2.3-3.2-5.5-5.5-10.4-5.5c-8.1,0-12.8,6-12.8,12.1c0,6.1,4.7,12.1,12.8,12.1C86.5,30.5,90.5,28.2,92.5,25 M110.2,17.8
	L118.1,7h-6l-6.1,8.7h-2.6V0.1h-5v15.5h-3.2v4.6h3.2v9.6h5v-9.6h3l6.1,9.6h5.9L110.2,17.8z M126.3,9.5L126.3,9.5L126.3,7h-4.7v22.9
	h5V14.7c0-2.1,1.7-3.5,3.5-3.5c0.5,0,1.4,0.3,1.9,0.7l1.8-4.9c-0.7-0.4-1.6-0.7-2.7-0.7C128.9,6.4,127.2,7.6,126.3,9.5 M34.3,0H8.9
	C5.5,5.3,3.5,11.6,3.5,18.4c0,3.6,0.6,7.1,1.7,10.4L34.3,0z M35.2,14.2l18.3,12.2V0h-4L35.2,14.2z M10.7,39.2
	C17,47.3,27,52.6,38.2,52.6c5.5,0,10.7-1.3,15.3-3.5v-8.3L26.9,23.2L10.7,39.2z M0,43.6v9.2h8.8C5.5,50.1,2.5,47,0,43.6 M69.5,52.7
	h2.6v-14h-2.6V52.7z M70.8,32.6c-0.9,0-1.7,0.7-1.7,1.7c0,0.9,0.8,1.6,1.7,1.6c0.9,0,1.7-0.7,1.7-1.6C72.5,33.4,71.7,32.6,70.8,32.6
	 M83.4,38.5c-2.4,0-4.2,1.3-5,3.2h-0.1c0.2-0.8,0.2-2.1,0.2-3H76v14h2.6V46c0-3.1,1.7-5.5,4-5.5c1.9,0,2.4,1.2,2.4,3.2v9h2.6V43
	C87.6,40.5,86.6,38.5,83.4,38.5 M96.5,50.8c-1.6,0-2-0.6-2-2.9v-7.2h4v-2h-4v-5.2l-2.6,0.7v4.5H89v2h2.9v8.1c0,3,0.9,4.2,3.8,4.2
	c0.9,0,2-0.1,2.9-0.3l-0.3-2.1C97.8,50.7,97.2,50.8,96.5,50.8 M106.2,38.5c-4,0-6.3,3.1-6.3,7.3c0,4.9,2.3,7.2,6.7,7.2
	c1.8,0,3.5-0.3,4.9-0.9l-0.4-2c-1.3,0.6-2.7,0.8-4.1,0.8c-3,0-4.6-1.6-4.5-5.3h9.3c0.1-0.6,0.1-1,0.1-1.3
	C111.8,41.2,110.2,38.5,106.2,38.5 M102.6,43.9c0.3-2.1,1.6-3.5,3.5-3.5c2,0,3.2,1.4,3.2,3.5H102.6z M117,42L117,42
	c0.2-1.2,0.3-2.5,0.3-3.3h-2.5v14h2.6v-5.6c0-4.5,1.4-6.6,4.4-6.1l0.1-2.5C119,38.2,117.6,40.1,117,42 M133.4,43.1L133.4,43.1
	c0-2.7-1.2-4.6-5.3-4.6c-1.8,0-3.7,0.4-5.1,1l0.5,2.1c1.2-0.6,2.8-1,4.1-1c2.3,0,3.1,1.1,3.1,3v0.9c-5.4,0-8.5,1.8-8.5,4.8
	c0,2.3,1.6,3.8,3.9,3.8c2.3,0,4.1-1.3,4.8-3h0.1c-0.1,0.8-0.1,1.8-0.1,2.8h2.5c0-1.2-0.1-2.7-0.1-4V43.1z M130.9,46.5
	c0,2.2-1.5,4.5-3.9,4.5c-1.3,0-2.2-0.9-2.2-2.1c0-1.4,1.3-2.7,6-2.7V46.5z M143,50.8c-3.1,0-4-2.2-4-4.9c0-3.1,1.4-5.2,4-5.2
	c1.2,0,2.3,0.3,3.2,0.6l0.5-2.2c-1-0.4-2.2-0.6-3.5-0.6c-4.6,0-6.9,3.2-6.9,7.7c0,5.2,2.8,6.8,6.2,6.8c1.5,0,3-0.3,4.2-0.8l-0.4-2.1
	C145.3,50.5,144.2,50.8,143,50.8 M154.5,50.8c-1.6,0-2-0.6-2-2.9v-7.2h4v-2h-4v-5.2l-2.6,0.7v4.5H147v2h2.9v8.1c0,3,0.9,4.2,3.8,4.2
	c0.9,0,2-0.1,2.9-0.3l-0.3-2.1C155.8,50.7,155.1,50.8,154.5,50.8 M160.4,32.6c-0.9,0-1.7,0.7-1.7,1.7c0,0.9,0.8,1.6,1.7,1.6
	c0.9,0,1.7-0.7,1.7-1.6C162.1,33.4,161.3,32.6,160.4,32.6 M159.1,52.7h2.6v-14h-2.6V52.7z M171,47.2c-0.3,0.8-0.6,1.7-0.8,2.6h-0.1
	c-0.2-0.9-0.5-1.7-0.8-2.7l-3-8.4h-2.9l5.3,14h2.7l5.4-14h-2.8L171,47.2z M189,44.4c0-3.2-1.7-5.9-5.7-5.9c-4,0-6.3,3.1-6.3,7.3
	c0,4.9,2.3,7.2,6.7,7.2c1.8,0,3.5-0.3,4.9-0.9l-0.4-2c-1.3,0.6-2.7,0.8-4.1,0.8c-3,0-4.6-1.6-4.5-5.3h9.3v0
	C189,45.1,189,44.7,189,44.4 M179.7,43.8c0.3-2.1,1.6-3.5,3.5-3.5c2,0,3.2,1.4,3.2,3.5H179.7z"/>
</svg>
