<?xml version="1.0" encoding="utf-8"?>
<!-- Generator: Adobe Illustrator 20.1.0, SVG Export Plug-In . SVG Version: 6.00 Build 0)  -->
<svg version="1.1" id="Layer_1" xmlns="http://www.w3.org/2000/svg" xmlns:xlink="http://www.w3.org/1999/xlink" x="0px" y="0px"
	 viewBox="0 0 45.7 45.8" style="enable-background:new 0 0 45.7 45.8;" xml:space="preserve">
<style type="text/css">
	.st0{fill:#FFFFFF;}
</style>
<title>Artboard 1</title>
<g id="dominos">
	<path class="st0" d="M0.5,29.8c-0.6,0.6-0.6,1.7,0,2.3l13.1,13.1c0.6,0.6,1.7,0.6,2.3,0L30.1,31L14.7,15.6L0.5,29.8z M11.9,33.6
		c-1.5,1.5-3.9,1.5-5.4,0c-1.5-1.5-1.5-3.9,0-5.4c1.5-1.5,3.9-1.5,5.4,0c0.7,0.7,1.1,1.7,1.1,2.7C13,31.9,12.6,32.9,11.9,33.6z
		 M17.6,28.4c1.5-1.5,3.9-1.5,5.4,0c1.5,1.5,1.5,3.9,0,5.4s-3.9,1.5-5.4,0c-0.7-0.7-1.1-1.7-1.1-2.7C16.5,30.1,16.9,29.1,17.6,28.4
		L17.6,28.4z"/>
	<path class="st0" d="M45.2,13.6L32.1,0.5c-0.6-0.6-1.7-0.6-2.3,0L15.6,14.7L31,30.1l14.2-14.2C45.9,15.3,45.9,14.2,45.2,13.6z
		 M33.7,17.4c-1.5,1.5-3.9,1.4-5.4-0.1s-1.4-3.9,0.1-5.4c1.5-1.5,3.9-1.4,5.4,0.1c0.7,0.7,1.1,1.7,1.1,2.7
		C34.8,15.7,34.4,16.7,33.7,17.4L33.7,17.4z"/>
	<path class="st0" d="M19.9,45.8v-0.7h-0.3v-0.2h0.7v0.2h-0.2v0.7L19.9,45.8z"/>
	<path class="st0" d="M21.2,45.8v-0.6l-0.2,0.6h-0.1l-0.2-0.6v0.6h-0.2v-0.9h0.3l0.2,0.6l0.2-0.6h0.3v0.9L21.2,45.8z"/>
</g>
</svg>
