<?xml version="1.0" encoding="utf-8"?>
<!-- Generator: Adobe Illustrator 20.1.0, SVG Export Plug-In . SVG Version: 6.00 Build 0)  -->
<svg version="1.1" id="Layer_1" xmlns="http://www.w3.org/2000/svg" xmlns:xlink="http://www.w3.org/1999/xlink" x="0px" y="0px"
	 viewBox="0 0 102.1 14.5" style="enable-background:new 0 0 102.1 14.5;" xml:space="preserve">
<style type="text/css">
	.st0{fill:#FFFFFF;}
</style>
<title>Artboard 1</title>
<g id="genentech">
	<path class="st0" d="M13.8,5.3V3.9c0,0,0.4-3.9-6.8-3.9C0.4,0,0,3.9,0,3.9v6.9c0,0,0.6,3.8,7,3.8c5.4,0,6.8-2.7,6.8-2.7V6.9H7v1.8
		h3.2v3c0,0-0.2,0.9-3.2,0.9c-3.6,0-3.4-2-3.4-2V3.9c0,0-0.2-2.1,3.4-2.1s3.2,2.1,3.2,2.1v1.4H13.8z"/>
	<path class="st0" d="M26.4,4.8v9.3h2.9V6.9c0,0,0-1.2,2.4-1.2s2.4,1.2,2.4,1.2v7.2H37V6.6c0,0-0.1-2.5-5.3-2.5
		c-1.3-0.1-2.6,0.2-3.7,0.7L26.4,4.8L26.4,4.8z"/>
	<path class="st0" d="M49.5,4.8v9.3h2.9V6.9c0,0,0-1.2,2.4-1.2s2.4,1.2,2.4,1.2v7.2h3V6.6c0,0-0.1-2.5-5.3-2.5
		c-1.3-0.1-2.6,0.2-3.7,0.7L49.5,4.8L49.5,4.8z"/>
	<path class="st0" d="M78.8,10.1h-7.7v1.7c0,0,0,1.2,2.4,1.2s2.4-1.2,2.4-1.2V11h2.9v0.8c0,0,0.2,2.7-5.3,2.7s-5.3-2.7-5.3-2.7V7.1
		c0,0-0.2-2.8,5.3-2.8S78.8,7,78.8,7V10.1L78.8,10.1z M71.2,7.1v1.1h4.8V7.1c0,0,0-1.2-2.4-1.2S71.2,7.1,71.2,7.1L71.2,7.1z"/>
	<path class="st0" d="M90.4,8.4V7.1c0,0,0.2-2.8-5.3-2.8s-5.3,2.7-5.3,2.7v4.8c0,0-0.2,2.7,5.3,2.7s5.3-2.7,5.3-2.7v-1.2h-2.9v1.2
		c0,0,0,1.2-2.4,1.2s-2.4-1.2-2.4-1.2s0-4.7,0-4.7s0-1.2,2.5-1.2s2.3,1.2,2.3,1.2v1.2L90.4,8.4z"/>
	<path class="st0" d="M60.7,4.7h0.9V2.4h2.9v2.2h3.2v1.6h-3.2V12c0,0,0.2,1.5,3,1v1.4c-2.5,0.3-5.9,0.1-5.9-2.5V6.3h-0.9L60.7,4.7
		L60.7,4.7z"/>
	<path class="st0" d="M91.6,0.1h2.9v4.3c0.8-0.2,1.6-0.2,2.4-0.2c5.2,0,5.3,2.5,5.3,2.5v7.5h-2.9V6.9c0,0,0-1.2-2.4-1.2
		s-2.4,1.2-2.4,1.2v7.2h-2.9L91.6,0.1L91.6,0.1z"/>
	<path class="st0" d="M48.5,10.1h-7.7v1.7c0,0,0,1.2,2.4,1.2c2.4,0,2.4-1.2,2.4-1.2V11h2.9v0.8c0,0,0.2,2.7-5.3,2.7
		s-5.3-2.7-5.3-2.7V7.1c0,0-0.2-2.8,5.3-2.8S48.5,7,48.5,7V10.1L48.5,10.1z M40.8,7.1v1.1h4.8V7.1c0,0,0-1.2-2.4-1.2
		S40.8,7.1,40.8,7.1L40.8,7.1z"/>
	<path class="st0" d="M25.4,10.1h-7.7v1.7c0,0,0,1.2,2.4,1.2s2.4-1.2,2.4-1.2V11h2.9v0.8c0,0,0.2,2.7-5.3,2.7s-5.3-2.7-5.3-2.7V7.1
		c0,0-0.2-2.8,5.3-2.8S25.4,7,25.4,7V10.1L25.4,10.1z M17.7,7.1v1.1h4.8V7.1c0,0,0-1.2-2.4-1.2S17.7,7.1,17.7,7.1L17.7,7.1z"/>
</g>
</svg>
