<?xml version="1.0" encoding="utf-8"?>
<!-- Generator: Adobe Illustrator 20.1.0, SVG Export Plug-In . SVG Version: 6.00 Build 0)  -->
<svg version="1.1" id="Layer_1" xmlns="http://www.w3.org/2000/svg" xmlns:xlink="http://www.w3.org/1999/xlink" x="0px" y="0px"
	 viewBox="0 0 90.4 59.6" style="enable-background:new 0 0 90.4 59.6;" xml:space="preserve">
<style type="text/css">
	.st0{fill:#FFFFFF;}
</style>
<title>Artboard 1</title>
<g id="intel">
	<path class="st0" d="M42.9,53.1C25.1,54.8,6.5,52.2,3.9,38.2c-1.3-6.9,1.9-14.2,6-18.7v-2.4C2.4,23.7-1.7,32,0.7,41.8
		c3,12.6,19,19.7,43.3,17.4c9.7-0.9,22.3-4,31.1-8.9v-6.9C67.1,48.2,53.9,52.1,42.9,53.1z M90,16.9c-4.2-20.7-44.4-22-70.3-6.2v1.7
		C45.6-0.9,82.3-0.8,85.6,18.3c1.1,6.3-2.4,12.9-8.8,16.7v4.9C84.5,37.1,92.3,28,90,16.9z"/>
	<path class="st0" d="M73.6,13.9H69v20.9c0,2.4,1.2,4.6,4.7,4.9V13.9z"/>
	<path class="st0" d="M17.9,21.5h-4.7v13.6c0,2.5,1.2,4.6,4.7,4.9L17.9,21.5z"/>
	<rect x="13.2" y="14.6" class="st0" width="4.7" height="4.4"/>
	<path class="st0" d="M45.9,39.9c-2.8,0.2-5.2-1.8-5.4-4.6c0-0.2,0-0.4,0-0.7V16.5h4.7v5h3.5v3.8h-3.5v9.1c-0.1,0.8,0.4,1.5,1.2,1.6
		c0.1,0,0.3,0,0.4,0h1.9v3.9L45.9,39.9"/>
	<path class="st0" d="M54.5,32.1c-0.1,2.1,1.5,4,3.6,4.1c0.2,0,0.4,0,0.5,0c1.6,0.1,3.2-0.5,4.3-1.8l2.9,2.7c-1.8,2-4.5,3.1-7.2,2.9
		c-4.4,0-8.7-2.4-8.7-9.5c0-6,3.7-9.5,8.6-9.5s7.8,4,7.8,9.2v1.7L54.5,32.1 M58.2,25.1c-1.4-0.1-2.7,0.7-3.3,1.9
		c-0.3,0.6-0.4,1.3-0.4,2h7.2C61.5,27,60.6,25.1,58.2,25.1z"/>
	<path class="st0" d="M30.5,25.3c1.4,0,1.9,0.7,1.9,1.8v12.8h4.6V27c0-2.6-1.4-5.5-5.5-5.5H22v18.3h4.7V25.3H30.5z"/>
	<path class="st0" d="M78.7,17.6c-1,0-1.9-0.8-1.9-1.9c0-1,0.8-1.9,1.9-1.9s1.9,0.8,1.9,1.9C80.5,16.8,79.7,17.6,78.7,17.6z
		 M78.7,14.2c-0.9,0-1.6,0.7-1.6,1.5c0,0.9,0.7,1.6,1.5,1.6c0.9,0,1.6-0.7,1.6-1.5C80.2,15,79.5,14.2,78.7,14.2z M79.5,16.9h-0.3
		c0,0,0,0-0.1,0l-0.5-0.8h-0.1h-0.2v0.7c0,0,0,0.1-0.1,0.1c0,0,0,0,0,0H78c0,0-0.1,0-0.1-0.1v-2c0-0.1,0-0.2,0.1-0.2h0.6
		c0.6,0,0.9,0.2,0.9,0.7l0,0c0,0.3-0.2,0.5-0.4,0.6l0.5,0.8C79.6,16.8,79.6,16.8,79.5,16.9C79.6,16.9,79.6,16.9,79.5,16.9
		C79.5,16.9,79.5,16.9,79.5,16.9z M79.1,15.3c0-0.2-0.1-0.3-0.4-0.3h-0.3v0.6h0.3C78.9,15.6,79.1,15.5,79.1,15.3L79.1,15.3z"/>
</g>
</svg>
