<?xml version="1.0" encoding="utf-8"?>
<!-- Generator: Adobe Illustrator 20.1.0, SVG Export Plug-In . SVG Version: 6.00 Build 0)  -->
<svg version="1.1" id="Layer_1" xmlns="http://www.w3.org/2000/svg" xmlns:xlink="http://www.w3.org/1999/xlink" x="0px" y="0px"
	 viewBox="0 0 88.5 13.2" style="enable-background:new 0 0 88.5 13.2;" xml:space="preserve">
<style type="text/css">
	.st0{fill:#FFFFFF;}
</style>
<g>
	<path class="st0" d="M42.3,0h4.9L48,6.8h0.1c0.2-0.6,0.4-1.2,0.6-1.7L51,0h4.9L56,13h-4.6l0.5-7.1h-0.1c-0.2,0.4-0.3,0.9-0.5,1.3
		L48.4,13h-2.8l-0.8-5.5c-0.1-0.6-0.1-1.1,0-1.6h-0.2c-0.1,0.5-0.2,1.1-0.4,1.6L42.7,13H38L42.3,0"/>
	<polygon class="st0" points="2.1,0 6.9,0 4.8,13 0,13 	"/>
	<path class="st0" d="M7.4,3.3h3.5l2.4,5.4h0.1c0-0.8,0-1.7,0.1-2.5l0.5-2.9h3.4L15.8,13h-3.4L10,7.9H9.9c0,0.7,0,1.3-0.1,2L9.3,13
		H5.8L7.4,3.3"/>
	<polygon class="st0" points="18.3,3.3 25.8,3.3 25.3,6.4 23.4,6.3 22.3,13 18.7,13 19.7,6.3 17.7,6.4 	"/>
	<polygon class="st0" points="26.7,3.3 33.4,3.3 33,5.9 29.9,5.9 29.8,6.9 32.6,6.9 32.2,9.4 29.4,9.4 29.2,10.4 32.4,10.4 31.9,13 
		25.2,13 	"/>
	<path class="st0" d="M37.5,6h0.3c0.6,0,1.1,0.1,1,0.8c-0.1,0.7-0.7,0.8-1.3,0.8h-0.2L37.5,6 M32.9,13.1h3.5l0.5-3.1H37l1.1,3.1h4.2
		l-1.6-3.2c-0.2-0.3-0.4-0.4-0.5-0.6l0-0.1c1.4-0.4,2.1-1.1,2.3-2.5c0.4-2.5-1.3-3.4-3.6-3.4h-4.4L32.9,13.1z"/>
	<path class="st0" d="M66.8,3.3L65.9,9c-0.5,2.9-2.5,4.1-5.3,4.1c-2.8,0-4.4-1.3-3.9-4.1l0.9-5.8h3.6l-0.9,5.4
		c-0.1,0.8-0.2,1.4,0.8,1.4c1,0,1.1-0.7,1.2-1.4l0.9-5.4H66.8"/>
	<path class="st0" d="M67.8,3.3h3.5l2.4,5.4h0.1c0-0.8,0-1.7,0.1-2.5l0.5-2.9h3.4L76.2,13h-3.4l-2.3-5.1h-0.1c0,0.7,0,1.3-0.1,2
		L69.7,13h-3.4L67.8,3.3"/>
	<g>
		<polygon class="st0" points="78.9,3.3 85.5,3.3 85.1,5.9 82.1,5.9 81.9,6.9 84.7,6.9 84.3,9.4 81.5,9.4 81.4,10.4 84.5,10.4 
			84.1,13 77.3,13 		"/>
		<path class="st0" d="M86.9,5.4c-0.6,0-0.9-0.4-0.8-1c0.1-0.6,0.6-1,1.1-1c0.6,0,0.9,0.4,0.8,1C88,5,87.5,5.4,86.9,5.4 M86.9,5.8
			c0.7,0,1.4-0.6,1.5-1.3c0.1-0.7-0.4-1.3-1.1-1.3c-0.7,0-1.4,0.6-1.5,1.3C85.7,5.2,86.1,5.8,86.9,5.8 M87.4,4.5
			c0.2,0,0.3-0.1,0.4-0.4c0.1-0.3-0.1-0.4-0.4-0.4h-0.7l-0.2,1.4h0.3l0.1-0.6h0.2l0.2,0.6h0.3L87.4,4.5z M86.9,4.3l0-0.3h0.3
			c0.1,0,0.3,0,0.3,0.1c0,0.1-0.2,0.1-0.3,0.1H86.9z"/>
	</g>
</g>
</svg>
