<?xml version="1.0" encoding="utf-8"?>
<!-- Generator: Adobe Illustrator 20.1.0, SVG Export Plug-In . SVG Version: 6.00 Build 0)  -->
<svg version="1.1" id="Layer_1" xmlns="http://www.w3.org/2000/svg" xmlns:xlink="http://www.w3.org/1999/xlink" x="0px" y="0px"
	 viewBox="0 0 102.5 30.2" style="enable-background:new 0 0 102.5 30.2;" xml:space="preserve">
<style type="text/css">
	.st0{fill:#FFFFFF;}
</style>
<title>Artboard 1</title>
<g id="Intuit">
	<path class="st0" d="M4.1,8.7h-3C0.5,8.7,0,9.3,0,9.9l0,0v18.8c0,0.6,0.5,1.2,1.1,1.2c0,0,0,0,0,0h3c0.6,0,1.1-0.5,1.1-1.2l0,0V9.9
		C5.3,9.3,4.8,8.7,4.1,8.7C4.1,8.7,4.1,8.7,4.1,8.7z"/>
	<path class="st0" d="M79.3,8.7h-3c-0.6,0-1.2,0.5-1.2,1.1v0v18.8c0,0.6,0.5,1.2,1.2,1.2l0,0h3c0.6,0,1.2-0.5,1.2-1.1v0V9.9
		C80.4,9.3,79.9,8.7,79.3,8.7L79.3,8.7z"/>
	<path class="st0" d="M47.2,8.7H32.5c-0.6,0-1.2,0.5-1.2,1.1v0v3c0,0.6,0.5,1.2,1.1,1.2h0h4.8v14.6c0,0.6,0.5,1.2,1.2,1.2l0,0h3
		c0.6,0,1.2-0.5,1.2-1.1v0V14h4.7c0.6,0,1.2-0.5,1.2-1.1v0v-3C48.4,9.3,47.9,8.7,47.2,8.7L47.2,8.7L47.2,8.7z"/>
	<path class="st0" d="M100.7,12.9v-3c0-0.6-0.5-1.2-1.2-1.2l0,0H84.8c-0.6,0-1.2,0.5-1.2,1.1v0v3c0,0.6,0.5,1.2,1.2,1.2l0,0h4.7
		v14.6c0,0.6,0.5,1.2,1.2,1.2l0,0h3c0.6,0,1.2-0.5,1.2-1.1v0V14h4.7C100.2,14,100.7,13.5,100.7,12.9z"/>
	<path class="st0" d="M24.6,8.8L24.6,8.8c-0.8-0.3-1.6-0.4-2.4-0.4c-2.4,0.1-4.7,1.1-6.5,2.6V9.9c0-0.6-0.5-1.2-1.1-1.2h0h-3
		c-0.6,0-1.2,0.5-1.2,1.1v0v18.8c0,0.6,0.5,1.2,1.1,1.2h0h3c0.6,0,1.2-0.5,1.2-1.1v0V15.3c2.3-1.6,3.9-2.2,5.1-2.2
		c0.6,0,1.1,0.2,1.6,0.5c0.6,0.5,1,1.1,1.1,1.8c0.2,0.6,0.2,1.1,0.3,1.7v11.5c0,0.6,0.5,1.2,1.1,1.2h0h3c0.6,0,1.2-0.5,1.2-1.1v0
		V15.5c0,0,0-0.1,0-0.2c0-1.1-0.2-2.1-0.7-3.1C27.7,10.6,26.3,9.3,24.6,8.8z"/>
	<path class="st0" d="M69.2,8.7h-3c-0.3,0-0.7,0.1-0.9,0.4c-0.3,0.2-0.5,0.5-0.5,0.8v13.3c-2.2,1.6-3.8,2.2-4.9,2.2
		c-0.5,0-1.1-0.1-1.5-0.5c-0.6-0.5-1-1.1-1.2-1.8C57.1,22.6,57,22,57,21.4V9.9c0-0.6-0.5-1.2-1.2-1.2l0,0h-3c-0.6,0-1.2,0.5-1.2,1.1
		v0V23c0,0,0,0.1,0,0.2c0,1.1,0.2,2.1,0.7,3.1c0.7,1.6,2.1,2.9,3.8,3.5l0,0c0.8,0.3,1.6,0.4,2.4,0.4c2.4-0.1,4.7-1.1,6.5-2.6v1.1
		c0,0.6,0.5,1.2,1.2,1.2l0,0h3c0.3,0,0.5-0.1,0.7-0.4c0.1-0.2,0.2-0.5,0.2-0.8V9.9c0-0.3,0-0.5-0.2-0.8C69.7,8.9,69.4,8.7,69.2,8.7z
		"/>
	<circle class="st0" cx="39.8" cy="3.3" r="3.3"/>
	<circle class="st0" cx="92.2" cy="3.3" r="3.3"/>
	<path class="st0" d="M102.2,27c-0.2-0.3-0.4-0.5-0.7-0.7c-0.5-0.3-1.2-0.3-1.7,0c-0.3,0.1-0.5,0.4-0.7,0.7
		c-0.2,0.3-0.2,0.6-0.2,0.9c0,0.3,0.1,0.6,0.2,0.9c0.1,0.3,0.4,0.5,0.7,0.7c0.5,0.3,1.2,0.3,1.8,0c0.3-0.2,0.5-0.4,0.7-0.7
		C102.5,28.2,102.5,27.5,102.2,27L102.2,27z M102,28.6c-0.1,0.2-0.3,0.4-0.6,0.5c-0.5,0.3-1,0.3-1.5,0c-0.2-0.1-0.4-0.3-0.5-0.5
		c-0.1-0.2-0.2-0.5-0.2-0.7c0-0.3,0.1-0.5,0.2-0.7c0.1-0.2,0.3-0.4,0.6-0.5c0.4-0.3,1-0.3,1.4,0c0.2,0.1,0.4,0.3,0.6,0.5
		c0.1,0.2,0.2,0.5,0.2,0.7C102.2,28.1,102.1,28.4,102,28.6L102,28.6z"/>
	<path class="st0" d="M101,28.1c0,0-0.1-0.1-0.2-0.1c0.1,0,0.3-0.1,0.4-0.2c0.1-0.1,0.1-0.2,0.2-0.4c0-0.1,0-0.2-0.1-0.3
		c-0.1-0.1-0.1-0.1-0.2-0.2c-0.2,0-0.3-0.1-0.5,0h-0.7v1.9h0.3v-0.8h0.2c0.1,0,0.2,0,0.2,0.1c0.1,0.1,0.2,0.3,0.3,0.4l0.2,0.3h0.4
		l-0.2-0.4C101.2,28.4,101.1,28.2,101,28.1z M100.6,27.8h-0.4v-0.6h0.3c0.1,0,0.2,0,0.3,0c0.1,0,0.1,0.1,0.1,0.1c0,0,0,0.1,0,0.2
		c0,0.1,0,0.2-0.1,0.2C100.8,27.7,100.7,27.8,100.6,27.8L100.6,27.8z"/>
</g>
</svg>
