<?xml version="1.0" encoding="utf-8"?>
<!-- Generator: Adobe Illustrator 20.1.0, SVG Export Plug-In . SVG Version: 6.00 Build 0)  -->
<svg version="1.1" id="Layer_1" xmlns="http://www.w3.org/2000/svg" xmlns:xlink="http://www.w3.org/1999/xlink" x="0px" y="0px"
	 viewBox="0 0 175.7 60.5" style="enable-background:new 0 0 175.7 60.5;" xml:space="preserve">
<style type="text/css">
	.st0{fill:#FFFFFF;}
</style>
<path class="st0" d="M88.2,10.4c-0.4-0.3-0.9-0.7-1.4-0.8L86,25.9l4-11.3C90.4,12.9,89.5,11.4,88.2,10.4L88.2,10.4z M83.9,8.4
	c2.9,0.1,4-2,4.1-4C88.1,1.3,86.2,0,83.9,0s-4.1,1.3-4,4.3C79.9,6,80.6,8.3,83.9,8.4L83.9,8.4z M75.2,7.4c0.2-5-7.5-4.8-7.3,0
	C67.7,12.4,75.7,12.5,75.2,7.4L75.2,7.4z M99,10c0.1-4.9-7.3-5-7.1,0C91.8,14.6,99.2,14.8,99,10L99,10L99,10z M99,10L99,10L99,10
	L99,10z M101.9,34.4v-3.3c-2.7,1.2-5.1,2.2-7.7,3.3H101.9L101.9,34.4z M65.1,34.4h8.4l-8.4-3.6V34.4L65.1,34.4z M101.9,30.3v-3.4
	c-2.6,1.7-5.4,3.5-7.9,5.2L101.9,30.3L101.9,30.3z M65.1,30.1c2.9,0.6,6,1.4,8.6,2l-8.6-5.6L65.1,30.1L65.1,30.1z M101.9,26.1v-4.5
	L93,30.3C96,28.9,98.8,27.5,101.9,26.1L101.9,26.1z M65.1,25.8l9.4,4.3c-3.1-3.1-6.3-6.1-9.4-9.2V25.8L65.1,25.8z M101.3,17.8
	c-0.2-0.4-0.5-0.8-0.8-1.2l-8.9,12.1c3.6-2.6,7-5.3,10.3-8C101.9,19.7,101.8,18.6,101.3,17.8L101.3,17.8z M65.1,20.1
	c3.6,2.8,7.3,5.6,10.9,8.4l-9.8-13.8C65.3,16.3,65,18.1,65.1,20.1L65.1,20.1z M95.6,14.3l-5.9,13.1l10.3-11.2
	C98.9,14.9,97.3,14.4,95.6,14.3L95.6,14.3z M89.7,17.8l-1.8,8.9c2.4-4.1,4.7-8.2,7-12.3C92.7,14.5,90.5,15.3,89.7,17.8L89.7,17.8z
	 M66.5,14.3l11.1,12.9L70.8,12C69,12.1,67.4,13,66.5,14.3L66.5,14.3z M71.3,11.9c2.7,4.7,5.5,9.9,8.2,14.4c-0.9-4-1.9-10.6-3.3-12.5
	C74.6,11.6,71.3,11.9,71.3,11.9L71.3,11.9z M79.6,10.4c-1.3,1-2.2,2.5-1.9,4.2l4,11.3L81,9.6C80.5,9.7,79.9,10,79.6,10.4L79.6,10.4z
	 M81.5,9.4l2.4,16.3l2.4-16.3C84.9,8.9,83.1,8.9,81.5,9.4L81.5,9.4z"/>
<path class="st0" d="M20,60.3h2.2v-13H20V60.3L20,60.3z M32.1,56.6c0-1.9-1.2-3-3.4-3.9c-1.8-0.6-2.6-1.1-2.6-2.1
	c0-0.8,0.8-1.7,2.4-1.7c1.1,0,2.2,0.4,2.7,0.7v-1.9c-0.5-0.3-1.7-0.6-2.7-0.6c-2.8,0-4.7,1.6-4.7,3.6c0,1.9,1.5,3,3.6,3.8
	c1.7,0.6,2.4,1.2,2.4,2.2c0,1.1-1,1.8-2.5,1.8c-1.2,0-2.7-0.4-3.5-1v2c0.7,0.4,2,0.8,3.4,0.8C30.6,60.5,32.1,58.7,32.1,56.6
	L32.1,56.6z M44.9,54.9h1.2c1,1.6,3.2,5.5,3.2,5.5h2.6l-3.5-5.6c0.8-0.2,1.4-0.5,1.8-0.9c0.7-0.6,1.3-1.6,1.3-2.7
	c0-1.3-0.5-2.1-1.3-2.7c-0.8-0.7-1.9-1-3.7-1h-3.8v5.5l0,0v5.6h-6.9v-3.7h4v-1.8h-4v-3.7c0.6,0,5,0,5,0v-1.8c-1.4,0-7.1,0-7.1,0v13
	h11.3L44.9,54.9L44.9,54.9z M44.9,52.8v-3.6h1.9c1.7,0,2.3,0.7,2.3,1.9c0,1.3-0.7,1.8-2.3,1.8L44.9,52.8L44.9,52.8L44.9,52.8z
	 M15.7,56.6l1.3,3.7h2.3l-4.5-13H12l-3.8,11l-3.7-4.7l5-6.3H6.8l-4.6,6.1v-6.1H0v13h2.2V54L7,60.3h0.5l0,0h2.1l1.3-3.7L15.7,56.6
	L15.7,56.6z M13.2,49.4L13.2,49.4l1.9,5.4h-3.6L13.2,49.4L13.2,49.4z"/>
<path class="st0" d="M96.1,56.7l-2.2-9.4h-4v13c1.2,0,2.2,0,2.2,0V49.2L95,60.3c0,0,1,0,2.3,0l2.8-11.1v11.1h2.1V47.3h-3.8
	L96.1,56.7L96.1,56.7z M169.4,56.9c0-1.6,1.3-2.9,2.9-2.9c1.6,0,2.9,1.3,2.9,2.9s-1.3,2.9-2.9,2.9C170.6,59.8,169.4,58.5,169.4,56.9
	L169.4,56.9z M172.2,60.4c1.9,0,3.5-1.5,3.5-3.5c0-2-1.6-3.5-3.5-3.5c-1.9,0-3.5,1.5-3.5,3.5C168.7,58.9,170.4,60.4,172.2,60.4
	L172.2,60.4z M171.5,57.1h0.8l1,1.8h0.8l-1.3-1.8c0.6-0.1,1.1-0.4,1.1-1.1c0-0.8-0.5-1.1-1.5-1.1h-1.5v4h0.6V57.1L171.5,57.1z
	 M171.5,56.6v-1.3h0.9c0.4,0,0.9,0.1,0.9,0.6c0,0.6-0.5,0.6-1,0.6H171.5L171.5,56.6z M67.4,48.2c-0.8-0.7-1.8-1-3.7-1h-3.8v13h2.2
	V55h1.6c1.9,0,2.9-0.3,3.7-1c0.7-0.7,1.3-1.7,1.3-2.9C68.7,49.9,68.2,48.9,67.4,48.2L67.4,48.2z M64,53h-1.8v-3.8H64
	c1.8,0,2.4,0.8,2.4,1.8C66.4,52.2,65.7,53,64,53L64,53z M86.7,53.8c0.7-0.7,1.3-1.6,1.3-2.8c0-1.2-0.6-2.1-1.3-2.7
	c-0.8-0.7-1.9-1-3.8-1h-3.7v5.6l0,0v5.6h-6.9v-3.6h4v-1.9h-4v-3.6c0.5,0,4.9,0,4.9,0v-1.9c-1.3,0-7.1,0-7.1,0v13h11.4v-5.6h1.1
	c1.1,1.7,3.3,5.6,3.3,5.6h2.6l-3.5-5.7C85.7,54.5,86.2,54.2,86.7,53.8L86.7,53.8z M81.4,52.9v-3.7h1.8c1.8,0,2.4,0.7,2.4,1.8
	c0,1.3-0.7,1.9-2.4,1.9H81.4L81.4,52.9z M146.5,47.3L146.5,47.3h-0.4v10.1l-5.2-10.1h-3v11.1h-6.8v-3.6h4v-1.9h-4v-3.6
	c0.5,0,4.9,0,4.9,0v-1.9c-1.3,0-7.1,0-7.1,0v13h11l0,0c0.1,0,0.2,0,0.2,0v-9.9l5.2,9.9h3V49.2c1.4,0,2.8,0,4,0v11.1h2.2V49.2h3.9
	l-0.1-1.9L146.5,47.3L146.5,47.3z M167,58.4h-5.4v-3.6h3.9v-1.9h-3.9v-3.6c0.5,0,4.9,0,4.9,0v-1.9c-1.4,0-7.1,0-7.1,0v13h7.6
	L167,58.4L167,58.4z M124.4,57.3l-5.2-10h-3v13c1.1,0,2.1,0,2.1,0v-9.8l5.2,9.8h3v-13h-2.1V57.3L124.4,57.3z M107.9,47.3l-4.5,13
	h2.2l1.2-3.8h4.8l1.3,3.8h2.3l-4.5-13H107.9L107.9,47.3z M107.4,54.8l1.8-5.5l0,0l1.8,5.5H107.4L107.4,54.8z"/>
</svg>
