<?xml version="1.0" encoding="utf-8"?>
<!-- Generator: Adobe Illustrator 20.1.0, SVG Export Plug-In . SVG Version: 6.00 Build 0)  -->
<svg version="1.1" id="Layer_1" xmlns="http://www.w3.org/2000/svg" xmlns:xlink="http://www.w3.org/1999/xlink" x="0px" y="0px"
	 viewBox="0 0 103.9 34.8" style="enable-background:new 0 0 103.9 34.8;" xml:space="preserve">
<style type="text/css">
	.st0{fill:#FFFFFF;}
</style>
<title>Artboard 1</title>
<g id="mount_sinai">
	<polyline class="st0" points="19.2,34.8 15,34.8 34.9,4.6 37.1,7.9 19.2,34.8 	"/>
	<polyline class="st0" points="26.7,34.8 22.4,34.8 38.6,10 40.8,13.3 26.7,34.8 	"/>
	<path class="st0" d="M32.2,0.7L32.2,0.7C32,0.5,31.8,0,31.2,0s-0.8,0.5-1,0.7l0,0l-22.8,34h4.2L33.5,2.6L32.2,0.7"/>
	<path class="st0" d="M21.3,5.7L21.3,5.7C21.2,5.5,21,5,20.4,5s-0.8,0.5-1,0.7l0,0L0,34.7h4.2L22.6,7.6L21.3,5.7"/>
	<path class="st0" d="M21.3,5.7L21.3,5.7c-0.2-0.2-0.4-0.7-1-0.7s-0.8,0.5-1,0.7l-1.3,1.9l18.3,27.1h4.2L21.3,5.7"/>
	<path class="st0" d="M32.2,0.7L32.2,0.7C32,0.5,31.8,0,31.2,0s-0.8,0.5-1,0.7L29,2.6l22.4,32.1h4.2L32.2,0.7"/>
	<polyline class="st0" points="37.1,7.9 34.9,4.7 32.7,7.9 34.9,11.1 37.1,7.9 	"/>
	<polyline class="st0" points="40.8,13.3 38.6,10 36.4,13.3 38.7,16.5 40.8,13.3 	"/>
	<polyline class="st0" points="44,34.8 48.2,34.8 27.7,4.6 25.5,7.9 44,34.8 	"/>
	<path class="st0" d="M32.2,0.7L32.2,0.7C32,0.5,31.8,0,31.2,0H31c-0.4,0.1-0.6,0.5-0.8,0.7l0,0l-1.2,1.7L29,2.6l2.2,3.2l2.2-3.3
		L32.2,0.7"/>
	<polyline class="st0" points="27.7,4.6 25.5,7.9 27.7,11.1 29.9,7.9 27.7,4.6 	"/>
	<polyline class="st0" points="31.4,16.5 33.6,13.2 31.4,10 29.2,13.3 31.4,16.5 	"/>
	<polyline class="st0" points="35.1,21.9 37.3,18.7 35.1,15.4 32.9,18.7 35.1,21.9 	"/>
	<path class="st0" d="M21.3,5.7c-0.2-0.2-0.4-0.7-1-0.7h-0.2c-0.4,0.1-0.6,0.5-0.8,0.7l0,0l-1.3,1.9l2.2,3.3l2.2-3.3l0,0L21.3,5.7
		L21.3,5.7"/>
	<polyline class="st0" points="26.3,13.2 24.1,9.9 21.9,13.2 24.1,16.4 26.3,13.2 	"/>
	<polyline class="st0" points="29.9,18.6 27.8,15.4 25.6,18.7 27.8,21.9 29.9,18.6 	"/>
	<polyline class="st0" points="33.6,24.2 31.5,20.9 29.3,24.2 31.5,27.4 33.6,24.2 	"/>
	<path class="st0" d="M56.9,19c0.9,0,1.6-0.2,1.6-1.9V9.7l-1.3-0.1V9.1l4,0.1l2.6,7.1l0,0l2.6-7.1l4-0.1v0.6L69,9.7V19l1.3,0.1v0.6
		c-0.7,0-1.9-0.1-2.6-0.1s-1.8,0.1-2.5,0.1v-0.6l1.3-0.1v-8.6l0,0l-3.3,9.2h-0.8l-3.3-9.2l0,0v6.7c0,1.7,0.7,1.9,1.7,1.9v0.6
		c-0.8,0-1.3-0.1-2-0.1s-1.2,0.1-2,0.1L56.9,19"/>
	<path class="st0" d="M70.8,15.9c-0.2-2.1,1.4-4,3.5-4.1c0.2,0,0.3,0,0.5,0c2.2,0,4.1,1.2,4.1,4c0.2,2.1-1.3,4-3.4,4.1
		c-0.2,0-0.4,0-0.6,0C72.6,19.9,70.8,18.7,70.8,15.9 M76.4,15.8c0-2.3-0.4-3.5-1.6-3.5s-1.6,1.2-1.6,3.5s0.5,3.5,1.6,3.5
		S76.4,18,76.4,15.8L76.4,15.8z"/>
	<path class="st0" d="M80.3,13.5c0-0.9-0.3-0.9-1.1-0.9V12l3.3-0.2v4.6c0,1.6,0,2.4,1.1,2.4c0.8,0,1.8-1,1.8-2.6v-2.7
		c0-0.9-0.4-0.9-1.1-0.9V12l3.3-0.2v7.1h1.1v0.6l-3.2,0.2v-1.5l0,0c-0.6,1-1.6,1.6-2.8,1.6c-1.8,0-2.4-0.9-2.4-2.8L80.3,13.5"/>
	<path class="st0" d="M93.5,19v0.6c-0.8,0-1.2-0.1-2.2-0.1s-1.4,0.1-2.2,0.1V19l1.1-0.1v-5.5c0-0.9-0.3-0.9-1.1-0.9V12l3.2-0.2v1.5
		l0,0c0.6-1,1.6-1.6,2.8-1.6c1.4,0,2.4,0.8,2.4,3V19l1.2,0.1v0.6c-0.8,0-1.3-0.1-2.2-0.1s-1.4,0.1-2.2,0.1v-0.6l1.1-0.1v-3.9
		c0-1.8-0.2-2.5-1.1-2.5s-1.8,1-1.8,2.6V19L93.5,19"/>
	<path class="st0" d="M101.7,17.4c0,1,0,1.6,0.7,1.6s1-0.9,1-0.9l0.5,0.2c-0.3,0.9-1.1,1.6-2.1,1.5c-2,0-2.3-1.1-2.3-2.4v-4.8h-1.2
		V12h1.2V9.2c0.7,0,1.5-0.1,2.2-0.3V12h1.9v0.7h-1.9L101.7,17.4"/>
	<path class="st0" d="M58.3,30.5c0.1,0.8,1.2,3.6,3.4,3.6c1.4,0,1.9-0.8,1.9-1.6c0-3.1-5.7-1.4-5.7-5.6c0-1.8,1.4-3.3,3.2-3.3
		c0.1,0,0.2,0,0.3,0c0.8,0,1.6,0.2,2.4,0.5c0.3,0,0.4-0.4,0.4-0.4h0.6c0,0.5,0,1,0,1.5c0,0.8,0,1.2,0,1.8h-0.6
		c-0.1-0.7-1.1-2.8-2.9-2.8c-0.8-0.1-1.6,0.5-1.7,1.4c0,0,0,0.1,0,0.1c0,2.8,5.9,1.2,5.9,5.7c0,2.4-1.8,3.4-3.9,3.4
		c-1,0-2-0.2-3-0.6c-0.3,0-0.4,0.4-0.4,0.4h-0.6c0-0.8,0.1-1.3,0.1-2.1c0-0.8-0.1-1.2-0.1-1.9L58.3,30.5"/>
	<path class="st0" d="M70.6,33.9v0.5c-0.8,0-1.3-0.1-2.2-0.1s-1.5,0.1-2.2,0.1v-0.6l1.1-0.1v-5.4c0-0.9-0.3-0.9-1.1-0.9v-0.6
		l3.3-0.2v7.1L70.6,33.9 M68.4,22.6c0.7,0,1.2,0.6,1.2,1.3c0,0.7-0.6,1.2-1.3,1.2c-0.7,0-1.2-0.6-1.2-1.3c0-0.7,0.6-1.3,1.2-1.3
		C68.3,22.6,68.4,22.6,68.4,22.6z"/>
	<path class="st0" d="M75.4,33.9v0.5c-0.8,0-1.2-0.1-2.2-0.1s-1.4,0.1-2.3,0.1v-0.6l1.1-0.1v-5.5c0-0.9-0.3-0.9-1.1-0.9v-0.6
		l3.2-0.2v1.5l0,0c0.6-1,1.6-1.6,2.8-1.6c1.4,0,2.4,0.8,2.4,3v4.3l1.2,0.1v0.5c-0.8,0-1.3-0.1-2.2-0.1s-1.3,0.1-2.1,0.1v-0.6
		l1.1-0.1v-3.8c0-1.8-0.2-2.5-1.1-2.5s-1.8,1-1.8,2.6v3.7L75.4,33.9"/>
	<path class="st0" d="M89.4,33.1c-0.2,0.9-1,1.6-1.9,1.5c-0.8,0.1-1.5-0.4-1.8-1.2l0,0c-0.4,0.8-1.3,1.3-2.3,1.2
		c-1.2,0.2-2.4-0.7-2.5-2c0-0.1,0-0.2,0-0.3c0-2.2,2.6-2.4,4.8-2.3v-0.8c0-1.3-0.1-2.2-1.2-2.2c-0.5-0.1-1,0.2-1.3,0.6
		c0.3,0.2,0.4,0.5,0.4,0.8c0,0.6-0.4,1-1,1c0,0-0.1,0-0.1,0c-0.5,0.1-1.1-0.3-1.1-0.8c0-0.1,0-0.1,0-0.2c0-1.2,1.5-1.8,3.3-1.8
		c2.9,0,3.2,1.7,3.1,3.2l-0.1,3.1c0,0.5,0.2,0.9,0.5,0.9s0.7-0.7,0.7-0.7L89.4,33.1 M85.6,30.7c-2.1,0-2.5,0.5-2.5,1.6
		c0,1,0.4,1.5,1.1,1.5s1.4-0.6,1.4-1.8L85.6,30.7z"/>
	<path class="st0" d="M93.9,33.9v0.5c-0.8,0-1.3-0.1-2.2-0.1s-1.4,0.1-2.2,0.1v-0.6l1.1-0.1v-5.4c0-0.9-0.3-0.9-1.1-0.9v-0.6
		l3.3-0.2v7.1L93.9,33.9 M91.7,22.6c0.7,0,1.2,0.6,1.2,1.3c0,0.7-0.6,1.2-1.3,1.2c-0.7,0-1.2-0.6-1.2-1.3
		C90.4,23.2,91,22.6,91.7,22.6C91.7,22.6,91.7,22.6,91.7,22.6L91.7,22.6z"/>
</g>
</svg>
