<?xml version="1.0" encoding="utf-8"?>
<!-- Generator: Adobe Illustrator 20.1.0, SVG Export Plug-In . SVG Version: 6.00 Build 0)  -->
<svg version="1.1" id="Layer_1" xmlns="http://www.w3.org/2000/svg" xmlns:xlink="http://www.w3.org/1999/xlink" x="0px" y="0px"
	 viewBox="0 0 673.5 225.4" style="enable-background:new 0 0 673.5 225.4;" xml:space="preserve">
<style type="text/css">
	.st0{fill:#FFFFFF;}
</style>
<polyline class="st0" points="124.3,225.4 96.9,225.4 226.1,30.1 240.7,51.2 124.3,225.4 "/>
<polyline class="st0" points="172.8,225.4 145.4,225.4 250.2,65 264.7,86 172.8,225.4 "/>
<path class="st0" d="M208.5,4.7L208.5,4.7C207.6,3.3,206,0,202.4,0c-3.7,0-5.2,3.4-6.1,4.7h0L48.5,225.4h27.4l141-208.6L208.5,4.7"
	/>
<path class="st0" d="M138.3,37.1L138.3,37.1c-0.9-1.4-2.6-4.6-6.1-4.6c-3.7,0-5.2,3.4-6.1,4.6h0L0,225.4h27.4L146.5,49.5L138.3,37.1
	"/>
<path class="st0" d="M138.3,37.2L138.3,37.2c-0.9-1.3-2.5-4.6-6.1-4.6c-3.7,0-5.2,3.4-6.1,4.6l-8.3,12.4l118.8,175.8H264L138.3,37.2
	"/>
<path class="st0" d="M208.5,4.7L208.5,4.7C207.6,3.3,206,0,202.4,0c-3.7,0-5.2,3.4-6.1,4.7L188,17.1l145.5,208.3h27.4L208.5,4.7"/>
<polyline class="st0" points="240.6,51.2 226.1,30.2 212,51.5 226.6,72.3 240.6,51.2 "/>
<polyline class="st0" points="264.7,86.1 250.2,65 236.3,86.2 250.8,107.1 264.7,86.1 "/>
<polyline class="st0" points="285,225.4 312.4,225.4 179.5,29.9 165.1,51.2 285,225.4 "/>
<path class="st0" d="M208.5,4.7L208.5,4.7C207.6,3.3,206,0,202.4,0c-0.5,0-0.9,0.1-1.3,0.1c-2.7,0.7-4,3.4-4.8,4.5h0l-7.5,11.2
	l-0.8,1.2l14.6,20.9l14.3-21.2L208.5,4.7"/>
<polyline class="st0" points="179.5,29.9 165.1,51.2 179.5,72.1 193.8,50.9 179.5,29.9 "/>
<polyline class="st0" points="203.5,106.9 217.5,85.8 203.2,64.8 189.1,86 203.5,106.9 "/>
<polyline class="st0" points="227.7,142.1 241.6,121.2 227.2,100.1 213.4,121.3 227.7,142.1 "/>
<path class="st0" d="M138.3,37.2c-0.9-1.3-2.6-4.6-6.1-4.6c-0.5,0-0.9,0.1-1.3,0.1c-2.7,0.7-4,3.4-4.8,4.5h0l-8.3,12.4l14.3,21.2
	l14.4-21.3l-0.1-0.2L138.3,37.2L138.3,37.2"/>
<polyline class="st0" points="170.5,85.4 156.4,64.3 142.1,85.6 156.2,106.5 170.5,85.4 "/>
<polyline class="st0" points="194.1,120.8 180.1,99.7 166,121 180.1,141.8 194.1,120.8 "/>
<polyline class="st0" points="218.1,156.7 204,135.6 190.2,156.8 204.3,177.6 218.1,156.7 "/>
<path class="st0" d="M369.4,123.5c5.8,0,10.3-1.2,10.3-12.4V62.8l-8.5-0.4v-3.7l26.1,0.4l16.7,45.9h0.1l16.9-45.9l25.8-0.4v3.7
	l-8.7,0.4v60.2l8.7,0.4v3.7c-4.3,0-12.4-0.4-16.7-0.4c-4.3,0-12,0.4-16.3,0.4v-3.7l8.6-0.4V67.6h-0.2L411,127h-5.3l-21.5-59.4H384
	v43.5c0,11.2,4.2,12.4,11.1,12.4v3.7c-5.4,0-8.5-0.4-12.8-0.4c-4.3,0-7.5,0.4-12.9,0.4V123.5"/>
<path class="st0" d="M458.7,102.8c0-18.4,12.4-26.9,26.2-26.9c14,0,26.3,7.4,26.3,25.8c0,18.5-12.1,26.9-26.3,26.9
	C470.9,128.6,458.7,121.3,458.7,102.8 M495.5,102.3c0-14.7-2.9-22.7-10.6-22.7c-7.4,0-10.5,8-10.5,22.7c0,14.8,3,22.7,10.5,22.7
	C492.6,124.9,495.5,117,495.5,102.3z"/>
<path class="st0" d="M520.5,87.4c0-5.9-1.8-5.9-7.3-5.9v-3.7l21.6-1.1v29.7c0,10.4,0.2,15.7,6.9,15.7c5.3,0,12-6.3,12-16.8V87.4
	c0-5.9-2.5-5.9-7.2-5.9v-3.7l21.5-1.1v46.2l7.3,0.2v3.7l-20.7,1.1l-0.3-9.6h-0.1c-3.5,5.8-9.5,10.2-18,10.2
	c-11.3,0-15.5-5.8-15.5-18.1V87.4"/>
<path class="st0" d="M606.2,123.5v3.7c-5.2,0-8-0.4-14.2-0.4c-6.3,0-9.2,0.4-14.5,0.4v-3.7l7.3-0.5V87.1c0-5.7-1.8-5.7-7.3-5.7v-3.7
	l20.7-1.1l0.2,9.4h0.1c3.7-5.9,9.5-10.3,18-10.3c9.1,0,15.5,5.5,15.5,19.1V123l7.4,0.5v3.7c-5.3,0-8.2-0.4-14.5-0.4
	c-6.3,0-9,0.4-14.2,0.4v-3.7l7.1-0.5V98c0-11.7-1.3-15.9-7-15.9c-5.3,0-11.9,6.3-11.9,16.8v24L606.2,123.5"/>
<path class="st0" d="M659.4,112.8c-0.2,6.7,0,10.4,4.4,10.4c4,0,6.3-5.7,6.3-5.7l3.5,1.3c0,0-2.3,9.9-13.6,9.9
	c-13.3,0-14.7-7.2-14.7-15.7V82h-8.1v-4.2h8.1v-18c8.1,0,14.1-2.1,14.1-2.1v20.1h12.1V82h-12.1V112.8"/>
<path class="st0" d="M378.1,198c0.9,4.9,7.9,23.2,22,23.2c8.9,0,12.4-5,12.4-10.6c0-20-37.2-8.9-37.2-36.2
	c0-16.1,13.3-21.4,23.1-21.4c9,0,13.6,2.9,15.3,2.9c1.8,0,2.4-2.4,2.4-2.4h3.6c0,3.6-0.2,6.2-0.2,9.6c0,5.1,0.2,8,0.2,11.4h-3.6
	c-0.9-4.8-7-17.9-18.6-17.9c-6.5,0-10.9,4-10.9,9.6c0,18.4,38.3,7.8,38.3,36.7c0,15.9-12,22.2-25.2,22.2c-11.4,0-17.4-3.9-19.3-3.9
	c-2.3,0-2.7,2.6-2.7,2.6h-3.6c0-5.2,0.3-8.3,0.3-13.5c0-5-0.3-8.1-0.3-12.5H378.1"/>
<path class="st0" d="M458,219.5v3.7c-5.2,0-8.2-0.4-14.5-0.4s-9.2,0.4-14.5,0.4v-3.7l7.3-0.5v-35.6c0-5.9-1.9-5.9-7.3-5.9v-3.7
	l21.6-1.1V219L458,219.5 M443.6,146.9c4.4,0,8.6,2.9,8.6,8.2s-4.2,8.2-8.6,8.2c-4.5,0-8.7-2.9-8.7-8.2S439.1,146.9,443.6,146.9z"/>
<path class="st0" d="M488.9,219.5v3.7c-5.2,0-8-0.4-14.2-0.4s-9.2,0.4-14.5,0.4v-3.7l7.3-0.5v-35.8c0-5.7-1.8-5.7-7.3-5.7v-3.7
	l20.7-1.1l0.2,9.4h0.1c3.7-5.9,9.5-10.3,18-10.3c9.1,0,15.5,5.5,15.5,19.1V219l7.4,0.5v3.7c-5.3,0-8.2-0.4-14.5-0.4
	c-6.3,0-9,0.4-14.2,0.4v-3.7l7.1-0.5V194c0-11.7-1.3-15.9-7-15.9c-5.3,0-11.9,6.3-11.9,16.8v24L488.9,219.5"/>
<path class="st0" d="M579.9,214.9c0,0-1.5,9.8-12.6,9.8c-5.3,0-9.7-2.2-11.6-7.6h-0.2c-2.4,4.5-6.9,8-14.8,8
	c-7.6,0-16.5-3.5-16.5-14.8c0-14,16.5-15.3,31.2-15.2v-5.3c0.3-8.6-0.4-14.4-7.4-14.4c-5.4,0-7.8,2.7-8.3,3.8c0,0,2.4,1.3,2.4,5
	c0,3.8-2.8,6.5-7.2,6.5c-4.2,0-7.2-2.6-7.2-6.9c0-7.7,9.8-12,21.5-12c18.9,0,20.5,10.7,20.3,20.8l-0.5,20.4c-0.1,3.3,1,5.6,3.3,5.6
	c3.1,0,4.2-4.6,4.2-4.6L579.9,214.9 M555.2,198.8c-13.4-0.2-16.4,3.3-16.4,10.1c0,6.4,2.5,9.6,7,9.6c4.2,0,9-3.7,9.2-11.4
	L555.2,198.8z"/>
<path class="st0" d="M608.9,219.5v3.7c-5.2,0-8.2-0.4-14.5-0.4c-6.3,0-9.2,0.4-14.5,0.4v-3.7l7.3-0.5v-35.6c0-5.9-1.9-5.9-7.3-5.9
	v-3.7l21.6-1.1V219L608.9,219.5 M594.6,146.9c4.4,0,8.6,2.9,8.6,8.2s-4.2,8.2-8.6,8.2c-4.5,0-8.7-2.9-8.7-8.2S590,146.9,594.6,146.9
	z"/>
</svg>
