<?xml version="1.0" encoding="utf-8"?>
<!-- Generator: Adobe Illustrator 20.1.0, SVG Export Plug-In . SVG Version: 6.00 Build 0)  -->
<svg version="1.1" id="Layer_1" xmlns="http://www.w3.org/2000/svg" xmlns:xlink="http://www.w3.org/1999/xlink" x="0px" y="0px"
	 viewBox="0 0 102.4 27" style="enable-background:new 0 0 102.4 27;" xml:space="preserve">
<style type="text/css">
	.st0{fill:#FFFFFF;}
</style>
<title>Artboard 1</title>
<g id="netapp">
	<polygon class="st0" points="0,0 0,0.1 0,25.3 11.7,25.3 11.7,10.4 17.1,10.4 17.1,25.3 29.4,25.3 29.4,0.1 	"/>
	<path class="st0" d="M35.6,24.7V12.5h2.8l5.6,7.3l-0.2-7.3h2.8v12.3h-2.2l-6.2-8.4c0.1,1.6,0.1,8.3,0.1,8.3L35.6,24.7z"/>
	<path class="st0" d="M50.9,20.9c0.1,1.2,1.3,1.9,2.7,1.8c1.2,0,1.4-0.7,2.2-1l1,1.8c-1,0.8-2.3,1.3-3.6,1.4c-3.2,0-5-1.8-5-4.8
		c0-2.4,1.5-5,4.8-5c3,0,4.2,2.4,4.2,4.7c0,0.4,0,0.8-0.1,1.2L50.9,20.9z M54.3,18.9c0.1-0.9-0.6-1.8-1.5-1.9c0,0-0.1,0-0.1,0
		c-1,0.1-1.8,0.9-1.8,1.9H54.3z"/>
	<path class="st0" d="M61.4,13v2.2h1.8v2.2h-1.8v3.9c0,1,0.2,1.4,1,1.4c0.4,0,0.8,0,1.2-0.1v1.9c-0.7,0.1-1.4,0.2-2.1,0.2
		c-0.7,0-1.4-0.2-1.9-0.7c-0.5-0.7-0.8-1.5-0.7-2.3v-4.3h-1.1v-2.2H59V13H61.4z"/>
	<path class="st0" d="M68.2,21.6l-1,3.2h-2.8l4.6-12.5h3L77,24.7h-2.8L73,21.5L68.2,21.6z M72.2,19.5c0,0-1.3-4.3-1.5-5h-0.1
		c-0.2,0.7-1.4,5-1.4,5H72.2z"/>
	<path class="st0" d="M77.5,15.3H80l0.2,1.2l0,0c0.8-0.8,2-1.3,3.1-1.4c2.1,0,3.9,1.6,3.9,4.4c0.2,2.3-1.5,4.4-3.9,4.6
		c-0.1,0-0.3,0-0.4,0c-0.9,0.1-1.8-0.3-2.4-1h-0.2V27h-2.8L77.5,15.3z M80.4,20.3c0,0.2,0,0.4,0.1,0.6c0.3,0.8,1.1,1.4,2,1.3
		c1.3,0,2.3-0.9,2.4-2.2c0-0.1,0-0.2,0-0.4c0.2-1.2-0.7-2.4-2-2.5c-0.1,0-0.2,0-0.3,0c-0.9,0-1.7,0.6-2,1.4c0,0.2-0.1,0.3-0.1,0.5
		L80.4,20.3z"/>
	<path class="st0" d="M88.4,15.3H91l0.1,1.2l0,0c0.8-0.8,2-1.3,3.1-1.4c2.1,0,3.9,1.6,3.9,4.4c0.2,2.3-1.5,4.4-3.9,4.6
		c-0.1,0-0.3,0-0.4,0c-0.9,0.1-1.8-0.3-2.4-1h-0.2V27h-2.8L88.4,15.3z M91.3,20.3c0,0.2,0,0.4,0.1,0.6c0.3,0.8,1.1,1.4,2,1.3
		c1.3,0,2.3-0.9,2.4-2.2c0-0.1,0-0.2,0-0.4c0.2-1.2-0.7-2.4-2-2.5c-0.1,0-0.2,0-0.3,0c-0.9,0-1.7,0.6-2,1.4c0,0.2-0.1,0.3-0.1,0.5
		L91.3,20.3z"/>
	<polygon class="st0" points="99.8,14.6 97.8,14.6 97.8,15.4 98.5,15.4 98.5,17.1 99.2,17.1 99.2,15.4 99.8,15.4 	"/>
	<polygon class="st0" points="101.7,14.6 101.2,15.5 100.7,14.6 100,14.6 100,17.1 100.7,17.1 100.7,15.8 101.2,16.6 101.7,15.8 
		101.7,17.1 102.4,17.1 102.4,14.6 	"/>
</g>
</svg>
