<?xml version="1.0" encoding="utf-8"?>
<!-- Generator: Adobe Illustrator 20.1.0, SVG Export Plug-In . SVG Version: 6.00 Build 0)  -->
<svg version="1.1" id="Layer_1" xmlns="http://www.w3.org/2000/svg" xmlns:xlink="http://www.w3.org/1999/xlink" x="0px" y="0px"
	 viewBox="0 0 181.4 38.9" style="enable-background:new 0 0 181.4 38.9;" xml:space="preserve">
<style type="text/css">
	.st0{fill:#FFFFFF;}
</style>
<path class="st0" d="M87.8,6.6c-0.6,0.4-0.9,1-0.8,1.7c0.1,0.8,0.8,1.3,1.4,1.6V8C88.2,7.9,88,7.5,88,7.5c-0.3-0.3,0.1-0.7,0.1-1
	C87.9,6.5,87.9,6.6,87.8,6.6z M93.4,9.4c0.6-0.5,0.7-1.3,0.5-2c-0.1-0.4-0.6-0.8-1-0.8C92.8,6.7,93,6.7,93,6.9
	c0.1,0.3,0,0.6-0.2,0.8c-1.7,1.3-3.6,2.4-5.3,3.7c-0.3,0.4-0.6,0.7-0.6,1.2c0,0.1,0,0.8,0.5,1.3c0.2,0.2,0.5,0.3,0.7,0.3
	c0.1-0.2-0.1-0.2-0.2-0.3c-0.2-0.4,0.1-0.7,0.3-1C89.9,11.7,91.8,10.7,93.4,9.4z M92.3,19.6v-3.1c-1.2,0.7-2.5,1.6-3.6,2.4v0.5
	c-0.1,0.3-0.3,0.4-0.6,0.5c0,0.2,0,0.2,0.1,0.3h4.6h0.1C93.1,19.8,92.4,20,92.3,19.6z M109.6,0h-39v0.6h39V0z M70.6,22.3h39v-0.6
	h-39V22.3z M92.1,14.2c-1.7,1.2-3.4,1.9-4.8,3.4c-0.6,0.6-0.3,1.9,0.6,2c0.2,0,0-0.4,0.2-0.5c0.2-0.3,0.5-0.5,0.8-0.7
	c1.7-1.2,3.3-2,4.8-3.4c0.6-0.6,0.4-1.7-0.4-2.1c-0.1-0.1-0.3-0.2-0.5-0.1C93.3,13.4,92.7,13.9,92.1,14.2z M78.3,3.7h9.9V2.8H77.4
	L78.3,3.7z M88.2,5V4.1h-9.5L79.6,5H88.2z M88.2,6.3V5.4H80l0.9,0.9H88.2z M103.5,2.8H92.7v0.9h9.9L103.5,2.8z M102.3,4.1h-9.5V5
	h8.6L102.3,4.1z M101,5.4h-8.2v0.9h7.3L101,5.4z M75.2,20.3L75.2,20.3c0.2-0.1,0.2-0.2,0.1-0.3c-0.2-0.2-0.5-0.1-0.6-0.4v-0.1v-8.3
	V6.5l1.6,1.6l9.7,9.7l0.5,0.5c0.1-0.5,0.3-0.9,0.7-1.3l5-3.4c0.1-0.4-0.1-0.9,0.2-1.2h12.8l0.2,0.1v7.1c-0.1,0.2-0.3,0.3-0.5,0.3
	c-0.1,0.1-0.1,0.3,0,0.4h4.7c0.4-0.7-0.6-0.3-0.6-0.8V2.9c0.1-0.3,0.3-0.5,0.6-0.5c0.1,0,0.1-0.3,0-0.3h-4.7l0,0h-0.1
	c-0.1,0-0.1,0.3,0,0.3c0.3,0,0.6,0.2,0.6,0.5V3v5.8c0,0.1-0.1,0.2-0.2,0.2H94.3c-1.4,2-3.7,2.7-5.6,4.2v2.6h-0.1L75.8,2.7
	c-0.1-0.4,0.5-0.3,0.3-0.7c-1.7-0.1-3.7-0.1-5.4,0c-0.3,0.6,0.5,0.3,0.5,0.7v5v11.9c-0.1,0.3-0.4,0.2-0.6,0.4
	c-0.1,0.1-0.1,0.3,0.1,0.3L75.2,20.3z M92.8,2h-4.5c-0.4,0.5,0.4,0.4,0.5,0.8v7.3c1.3-0.7,2.4-1.5,3.6-2.3V3V2.8
	C92.3,2.3,93.2,2.5,92.8,2z M93.1,19.6c0.6-0.2,1-0.7,0.9-1.3c-0.1-0.7-0.8-1.3-1.3-1.6v2c0.1,0.1,0.4,0.4,0.4,0.4
	c0,0.2,0,0.3,0,0.3C92.9,19.7,93.1,19.6,93.1,19.6z M9.4,27.6c0.4,0,0.4,0.1,0.4,0.5v7.1L3,28c-0.1-0.1-0.2-0.2-0.2-0.2
	c0-0.1,0.1-0.2,0.4-0.2v-0.2H0v0.2c0.3,0,0.4,0.1,0.4,0.5V38c0,0.3,0,0.5-0.4,0.5v0.2h2.7v-0.2c-0.3,0-0.4-0.1-0.4-0.5v-7.6l7,7.5
	c0.2,0.2,0.3,0.3,0.3,0.4c0,0.1-0.2,0.1-0.3,0.1v0.2h2.9v-0.2c-0.3,0-0.4-0.1-0.4-0.5V28c0-0.3,0.1-0.5,0.4-0.5v-0.2H9.4V27.6z
	 M18.9,29.1c-3.4,0-5.8,2.1-5.8,4.9c0,2.7,2.4,4.9,5.8,4.9s5.8-2.1,5.8-4.9C24.7,31.2,22.3,29.1,18.9,29.1z M18.9,37.3
	c-2.4,0-4-1.4-4-3.4s1.6-3.4,4-3.4s4,1.4,4,3.4C22.9,35.9,21.2,37.3,18.9,37.3z M35.1,38.1l-2.4-3.4c1.5-0.2,2.6-1.2,2.6-2.6
	c0-2.1-1.6-2.9-4.4-2.9h-5.3v0.2c0.3,0,0.3,0.1,0.3,0.4v8.3c0,0.3,0,0.4-0.3,0.4v0.2h2.5v-0.2c-0.2,0-0.3-0.1-0.3-0.4v-3.4h2.7
	l1.9,2.9c0.2,0.3,0.4,0.6,0.4,0.7c0,0.1-0.1,0.1-0.1,0.1v0.2h2.8v-0.2C35.5,38.5,35.3,38.3,35.1,38.1z M31.8,33.2h-3.9v-2.5h3.6
	c1.3,0,2,0.4,2,1.2C33.5,32.8,33.1,33.2,31.8,33.2z M45,29.2h-8c-0.3,0-0.4,0-0.4-0.2h-0.2v1.9h0.2c0-0.2,0.1-0.2,0.4-0.2h3v7.4
	c0,0.3,0,0.4-0.3,0.4v0.2h2.5v-0.2c-0.3,0-0.3-0.1-0.3-0.4v-7.4H45c0.3,0,0.4,0,0.4,0.2h0.2V29h-0.2C45.4,29.2,45.3,29.2,45,29.2z
	 M54.2,29.4c0.3,0,0.3,0.1,0.3,0.4V33h-5.8v-3.2c0-0.3,0.1-0.4,0.4-0.4v-0.2h-2.6v0.2c0.3,0,0.3,0.1,0.3,0.4v8.3
	c0,0.3,0,0.4-0.3,0.4v0.2h2.6v-0.2c-0.3,0-0.4-0.1-0.4-0.4v-3.4h5.8v3.4c0,0.3,0,0.4-0.3,0.4v0.2h2.6v-0.2c-0.3,0-0.4-0.1-0.4-0.4
	v-8.3c0-0.3,0.1-0.4,0.4-0.4v-0.2h-2.6V29.4z M59.9,31.8c0-0.9,1.2-1.3,2.9-1.3c1.7,0,3.3,0.7,3.3,1.1v0.2l0.2,0.1l1-1.9l-0.1,0
	c0,0-0.1,0.1-0.2,0.1s-0.5-0.3-1.2-0.5c-0.9-0.3-1.7-0.5-3.1-0.5c-3.2,0-4.6,1.5-4.6,3.2c0,3.9,7.6,1.3,7.6,3.5
	c0,0.9-0.8,1.6-2.8,1.6c-1.9,0-3.8-0.7-3.8-1.2c0-0.1,0-0.1,0-0.2L59,35.8l-1.1,2.1l0.2,0.1c0.1,0,0.2-0.1,0.2-0.1
	c0.2,0,0.5,0.2,1.1,0.5c0.6,0.2,1.6,0.5,3.1,0.5c3,0,5-1.1,5-3.1C67.5,31.1,59.9,34.2,59.9,31.8z M68.9,29.4c0.4,0,0.4,0.1,0.4,0.4
	v8.3c0,0.3,0,0.4-0.4,0.4v0.2h2.7v-0.2c-0.3,0-0.4-0.1-0.4-0.4v-8.3c0-0.3,0.1-0.4,0.4-0.4v-0.2h-2.7V29.4z M78.7,29.2h-5.1v0.2
	c0.2,0,0.3,0.1,0.3,0.4v8.3c0,0.3-0.1,0.4-0.3,0.4v0.2h5.1c3.5,0,4.8-2,4.8-4.7C83.5,31.2,81.9,29.2,78.7,29.2z M78.5,37.1h-2.8
	v-6.4h2.8c2.4,0,3.2,1,3.2,3.2C81.6,36.3,80.8,37.1,78.5,37.1z M93.4,37.1H87v-2.5h4c0.3,0,0.4,0.1,0.4,0.2h0.2v-1.9h-0.2
	c0,0.1-0.1,0.2-0.4,0.2h-4v-2.4h6.2c0.3,0,0.4,0.1,0.4,0.3h0.2v-2h-0.2c0,0.1-0.1,0.2-0.4,0.2h-8.4v0.2c0.2,0,0.3,0.1,0.3,0.4v8.3
	c0,0.3,0,0.4-0.3,0.4v0.2h8.5c0.3,0,0.4,0,0.4,0.2H94V37h-0.2C93.8,37.1,93.7,37.1,93.4,37.1z M111.1,27.6c0.4,0,0.5,0.1,0.5,0.5
	v3.7h-7v-3.7c0-0.3,0.1-0.5,0.4-0.5v-0.2h-3v0.2c0.4,0,0.5,0.1,0.5,0.5V38c0,0.3-0.1,0.5-0.5,0.5v0.2h3.1v-0.2
	c-0.4,0-0.4-0.1-0.4-0.5v-4.3h7V38c0,0.3-0.1,0.5-0.5,0.5v0.2h3.1v-0.2c-0.4,0-0.4-0.1-0.4-0.5v-9.9c0-0.3,0.1-0.5,0.4-0.5v-0.2
	h-3.1L111.1,27.6L111.1,27.6z M121.2,29.1c-3.4,0-5.8,2.1-5.8,4.9c0,2.7,2.4,4.9,5.8,4.9s5.8-2.1,5.8-4.9
	C127,31.2,124.6,29.1,121.2,29.1z M121.2,37.3c-2.4,0-4-1.4-4-3.4s1.6-3.4,4-3.4s4,1.4,4,3.4C125.2,35.9,123.6,37.3,121.2,37.3z
	 M129.8,31.8c0-0.9,1.2-1.3,2.9-1.3s3.3,0.7,3.3,1.1v0.2l0.2,0.1l1-1.9l-0.2-0.1c0,0-0.1,0.1-0.2,0.1c-0.1,0-0.5-0.3-1.2-0.5
	c-0.9-0.3-1.7-0.5-3.1-0.5c-3.2,0-4.6,1.5-4.6,3.2c0,3.9,7.6,1.3,7.6,3.5c0,0.9-0.8,1.6-2.8,1.6c-1.9,0-3.8-0.7-3.8-1.2
	c0-0.1,0-0.1,0-0.2l-0.2-0.1l-1.1,2.1l0.2,0.1c0.1,0,0.2-0.1,0.2-0.1c0.2,0,0.5,0.2,1.1,0.5c0.7,0.2,1.6,0.5,3.1,0.5
	c3,0,5-1.1,5-3.1C137.4,31.1,129.8,34.2,129.8,31.8z M145.4,29.2h-6v0.2c0.3,0,0.3,0.1,0.3,0.4v8.3c0,0.3,0,0.4-0.3,0.4v0.2h2.5
	v-0.2c-0.2,0-0.3-0.1-0.3-0.4v-3.4h4c2.2,0,3.1-1.1,3.1-2.7C148.6,30.1,147.5,29.2,145.4,29.2z M145.1,33.2h-3.6v-2.5h3.6
	c1.2,0,1.6,0.3,1.6,1.2C146.7,32.9,146.4,33.2,145.1,33.2z M149.9,29.4c0.4,0,0.4,0.1,0.4,0.4v8.3c0,0.3,0,0.4-0.4,0.4v0.2h2.7v-0.2
	c-0.3,0-0.4-0.1-0.4-0.4v-8.3c0-0.3,0.1-0.4,0.4-0.4v-0.2h-2.7V29.4z M159.1,38.1v-7.4h3.1c0.3,0,0.4,0,0.4,0.2h0.2V29h-0.2
	c0,0.1-0.1,0.2-0.4,0.2h-8c-0.3,0-0.4,0-0.4-0.2h-0.2v1.9h0.2c0-0.2,0.1-0.2,0.4-0.2h3.1v7.4c0,0.3,0,0.4-0.3,0.4v0.2h2.5v-0.2
	C159.2,38.5,159.1,38.4,159.1,38.1z M171.1,38l-3.7-8.1c-0.1-0.1-0.1-0.2-0.1-0.3c0-0.1,0.1-0.2,0.2-0.2v-0.2h-2.7v0.2
	c0.1,0,0.2,0.1,0.2,0.2s-0.1,0.2-0.1,0.3l-3.5,7.8c-0.2,0.5-0.2,0.7-0.5,0.7v0.2h2.4v-0.2c-0.2,0-0.3-0.1-0.3-0.2
	c0-0.1,0.1-0.2,0.9-2.1h4.5c0.9,1.9,0.9,2,0.9,2.2c0,0.1-0.1,0.2-0.2,0.2v0.2h2.5v-0.2C171.4,38.5,171.3,38.3,171.1,38z M164.5,34.6
	l1.5-3.4l1.6,3.4H164.5z M181.2,36.8c0,0.2-0.1,0.3-0.4,0.3h-6v-7.4c0-0.3,0-0.4,0.3-0.4v-0.2h-2.6v0.2c0.3,0,0.3,0.1,0.3,0.4V38
	c0,0.3-0.1,0.4-0.3,0.4v0.2h8.2c0.3,0,0.4,0.1,0.4,0.2h0.2L181.2,36.8L181.2,36.8L181.2,36.8z"/>
</svg>
