<?xml version="1.0" encoding="utf-8"?>
<!-- Generator: Adobe Illustrator 20.1.0, SVG Export Plug-In . SVG Version: 6.00 Build 0)  -->
<svg version="1.1" id="Layer_1" xmlns="http://www.w3.org/2000/svg" xmlns:xlink="http://www.w3.org/1999/xlink" x="0px" y="0px"
	 viewBox="0 0 137.6 55.9" style="enable-background:new 0 0 137.6 55.9;" xml:space="preserve">
<style type="text/css">
	.st0{fill:#FFFFFF;}
</style>
<g>
	<path class="st0" d="M123.8,50.5c-1,0-2,0.9-2,2.1c0,1.3,1,2.2,2,2.2c1.1,0,1.9-0.8,1.9-2.1C125.7,51.4,124.8,50.5,123.8,50.5
		L123.8,50.5z M121.8,55.8h-1.2v-8.7h1.2v3.3c0.5-0.6,1.2-1,2.1-1c1.5,0,3,1.2,3,3.2c0,2-1.5,3.3-3,3.3c-1,0-1.6-0.4-2.1-1V55.8
		L121.8,55.8z M52.9,49.6l1.9,4.7l1.9-4.7H58l-2.7,6.3h-1l-2.7-6.3H52.9L52.9,49.6z M62.6,52c0-1-0.6-1.5-1.6-1.5
		c-0.7,0-1.2,0.2-1.7,0.4l-0.5-0.9c0.8-0.4,1.4-0.6,2.3-0.6c0.9,0,1.6,0.2,2,0.7c0.4,0.4,0.7,1.1,0.7,1.8v3.8h-1.2v-0.6
		c-0.4,0.4-1.1,0.8-2,0.8c-1.2,0-2.4-0.7-2.4-2c0-1.4,1.1-2.1,2.7-2.1C61.7,51.8,62.2,51.9,62.6,52L62.6,52z M62.7,53
		c-0.4-0.1-0.9-0.2-1.6-0.2c-1.1,0-1.6,0.5-1.6,1c0,0.6,0.6,1.1,1.3,1.1c1,0,1.8-0.6,1.8-1.4V53L62.7,53z M68.2,49.4
		c1.2,0,1.9,0.5,2.5,1.1L70,51.5c-0.6-0.6-1.1-1-1.8-1c-1.1,0-2,0.9-2,2.1c0,1.2,0.9,2.2,2,2.2c0.7,0,1.2-0.3,1.7-0.8l0.9,0.6
		c-0.7,0.8-1.5,1.3-2.6,1.3c-1.8,0-3.2-1.5-3.2-3.2C65,51,66.4,49.4,68.2,49.4L68.2,49.4z M75.8,52c0-1-0.6-1.5-1.6-1.5
		c-0.7,0-1.2,0.2-1.7,0.4L72,50.1c0.8-0.4,1.4-0.6,2.3-0.6c0.9,0,1.6,0.2,2,0.7c0.4,0.4,0.7,1.1,0.7,1.8v3.8h-1.2v-0.6
		c-0.4,0.4-1.1,0.8-2,0.8c-1.2,0-2.4-0.7-2.4-2c0-1.4,1.1-2.1,2.7-2.1C74.8,51.8,75.3,51.9,75.8,52L75.8,52z M75.8,53
		c-0.4-0.1-0.9-0.2-1.6-0.2c-1.1,0-1.6,0.5-1.6,1c0,0.6,0.6,1.1,1.3,1.1c1,0,1.8-0.6,1.8-1.4V53L75.8,53z M78.8,50.6H78v-1.1h0.8
		v-1.8H80v1.8h1.9v1.1H80V54c0,0.6,0.3,0.8,0.8,0.8c0.3,0,0.5-0.1,0.8-0.2l0.2-0.1v1.1c-0.4,0.2-0.8,0.3-1.2,0.3
		c-1,0-1.8-0.5-1.8-1.8V50.6L78.8,50.6z M84.4,47.3v1.3h-1.3v-1.3H84.4L84.4,47.3z M84.4,49.6v6.2h-1.2v-6.2H84.4L84.4,49.6z
		 M89,49.4c1.9,0,3.2,1.5,3.2,3.2c0,1.8-1.4,3.3-3.3,3.3c-1.9,0-3.2-1.5-3.2-3.2C85.8,51,87.1,49.4,89,49.4L89,49.4z M89,50.5
		c-1.2,0-2,1-2,2.1c0,1.2,0.9,2.2,2,2.2c1.2,0,2-1,2-2.1C91,51.5,90.1,50.5,89,50.5L89,50.5z M94.7,49.6v0.7c0.4-0.5,1-0.8,1.9-0.8
		c1.5,0,2.4,1,2.4,2.5v3.8h-1.2v-3.6c0-1-0.5-1.6-1.5-1.6c-0.9,0-1.6,0.7-1.6,1.7v3.5h-1.2v-6.2H94.7L94.7,49.6z M106.8,49.4
		c1.2,0,1.9,0.5,2.5,1.1l-0.7,0.9c-0.6-0.6-1.1-1-1.8-1c-1.1,0-2,0.9-2,2.1c0,1.2,0.9,2.2,2,2.2c0.7,0,1.2-0.3,1.7-0.8l0.9,0.6
		c-0.7,0.8-1.5,1.3-2.6,1.3c-1.8,0-3.2-1.5-3.2-3.2C103.7,51,105,49.4,106.8,49.4L106.8,49.4z M111.8,47.1v8.7h-1.2v-8.7H111.8
		L111.8,47.1z M113.5,49.6h1.2v3.6c0,1,0.5,1.6,1.5,1.6c0.9,0,1.6-0.7,1.6-1.7v-3.5h1.2v6.2h-1.2v-0.7c-0.4,0.5-1,0.8-1.9,0.8
		c-1.5,0-2.4-1-2.4-2.5V49.6L113.5,49.6z"/>
	<polygon class="st0" points="134.1,13.5 135.2,15.7 137.6,16 135.8,17.7 136.2,20.1 134.1,19 131.9,20.1 132.3,17.7 130.6,16 
		133,15.7 	"/>
	<polygon class="st0" points="134.1,25.1 135.2,27.3 137.6,27.7 135.8,29.4 136.2,31.8 134.1,30.6 131.9,31.8 132.3,29.4 
		130.6,27.7 133,27.3 	"/>
	<polygon class="st0" points="134.1,36.8 135.2,39 137.6,39.3 135.8,41 136.2,43.4 134.1,42.3 131.9,43.4 132.3,41 130.6,39.3 
		133,39 	"/>
	<path class="st0" d="M0,28.5c0-20.5,30.4-20.5,30.4,0C30.4,49.1,0,49.1,0,28.5z M26.7,28.5c0-15.9-23-15.9-23,0
		C3.7,44.5,26.7,44.5,26.7,28.5z M4.1,28.5c0,15.5,22.1,15.2,22.1,0C26.3,13.4,4.1,13.1,4.1,28.5z M22.7,28.5
		c0,10.8-14.9,10.8-14.9,0C7.8,17.9,22.7,17.9,22.7,28.5z"/>
	<path class="st0" d="M57.3,42.2v1.1h-8.5l-5.1-8.7h-3.9v8.7c-2.5,0-5.1,0-7.6,0c0-9.9,0-19.7,0-29.6c4.3,0,8.7,0,13,0
		c11.6,0,13.8,14.1,6.3,19.1L57.3,42.2z M45.3,31.4c0.3,0,0.6,0,0.8,0l5.5,9.1h0.5l-4.3-7l-1.3-2.2c8-1.3,7.7-14.4-1.3-14.4h-9.5
		v23.6h0.4v-9.1H45.3z M45.3,31h-9.1V17.3h9.1C54.1,17.3,54.2,31,45.3,31z M45.3,20.5c-1.8,0-3.6,0-5.4,0c0,2.4,0,5,0,7.3h5.4
		C49.4,27.8,49.6,20.5,45.3,20.5z"/>
	<path class="st0" d="M59.7,43.3V13.7h7.5v29.6H59.7z M63.6,40.5V16.7h-0.4v23.8H63.6z"/>
	<path class="st0" d="M109.3,28.8v14.6c-2.6,0-5.2,0-7.8,0V13.6h2.8l15,14.7V13.7c2.6,0,5.2,0,7.7,0v29.7h-2.7L109.3,28.8z
		 M105.1,40.4h0.5v-20c3,2.8,5.9,5.8,8.8,8.6c2.8,2.8,5.7,5.5,8.6,8.4h0.3V16.6h-0.5v20.1c-3-2.9-5.9-5.8-8.9-8.6
		c-2.8-2.8-5.6-5.6-8.4-8.3h-0.5V40.4z"/>
	<g>
		<path class="st0" d="M69.2,28.5c0-20.5,30.4-20.5,30.4,0C99.6,49.1,69.2,49.1,69.2,28.5z M95.9,28.5c0-15.9-23-15.9-23,0
			C72.9,44.5,95.9,44.5,95.9,28.5z M73.4,28.5c0,15.5,22.1,15.2,22.1,0C95.5,13.4,73.4,13.1,73.4,28.5z M91.9,28.5
			c0,10.8-14.9,10.8-14.9,0C77,17.9,91.9,17.9,91.9,28.5z"/>
		<path class="st0" d="M73.6,7.6L75,9.3l2.6,2.4l-1.9,0.7l-5.2-3.4c-2.3,0.9-4,1.5-4.4,0.5c-0.4-1,1.2-1.7,3.5-2.7L71,0.7L72.9,0
			l-0.2,3.5l0.2,2.2l1.9-0.6l0.7-1.5l1.7-0.7L77,5.2l1.6,1.5l-1.7,0.7l-1.5-0.6L73.6,7.6L73.6,7.6z"/>
		<path class="st0" d="M96.4,4.9C93.8,0.4,86.6,0.6,78,4.6c5.9-1.9,10.7-1.4,12.6,1.9c1.2,2,1.2,4.8,0.2,7.9
			c-0.3,1.1-0.7,2.2-1.2,3.3c-0.1,0.1-0.1,0.3-0.2,0.4c-0.5,1-1,2.1-1.7,3.1c-2.3,3.9-5.6,8-9.6,11.8c-0.2,0.2-0.3,0.3-0.5,0.5
			c-0.1,0.1-0.2,0.2-0.3,0.3c-0.3,0.3-0.6,0.6-0.9,0.9c-0.1,0.1-0.3,0.2-0.4,0.3c-0.1,0.1-0.2,0.1-0.2,0.2c0,0,0,0,0,0
			c-0.1,0.1-0.2,0.2-0.3,0.2c-0.1,0.1-0.2,0.2-0.3,0.2c-1.7,1.2-3.2,1.8-3.5,1.4c-0.1-0.2-0.2-0.3-0.3-0.5c-1.5,1.4-2.1,3.2-1.3,4.3
			c0.7,0.9,2.2,0.9,3.7,0.2c0.1,0,0.6-0.3,0.8-0.4c0,0,0,0,0.1-0.1c0.1,0,0.1-0.1,0.2-0.1c0.1,0,0.1-0.1,0.2-0.1c0,0,0,0,0,0
			c0.9-0.7,1.9-1.4,2.8-2.1c0.1-0.1,0.2-0.2,0.3-0.3c0.2-0.2,0.4-0.3,0.6-0.5c0.8-0.6,1.5-1.3,2.3-2c4-3.6,7.4-7.4,10.1-11.2
			c0.8-1.1,1.5-2.2,2.2-3.3c0.1-0.1,0.2-0.3,0.3-0.4c0.7-1.2,1.3-2.3,1.8-3.4C97.5,12.3,98.1,7.8,96.4,4.9z"/>
	</g>
</g>
</svg>
