<?xml version="1.0" encoding="utf-8"?>
<!-- Generator: Adobe Illustrator 20.1.0, SVG Export Plug-In . SVG Version: 6.00 Build 0)  -->
<svg version="1.1" id="Layer_2" xmlns="http://www.w3.org/2000/svg" xmlns:xlink="http://www.w3.org/1999/xlink" x="0px" y="0px"
	 viewBox="0 0 499.8 119.2" style="enable-background:new 0 0 499.8 119.2;" xml:space="preserve">
<style type="text/css">
	.st0{fill:#FFFFFF;}
</style>
<g>
	<g>
		<g>
			<g>
				<path class="st0" d="M271.2,1.6H21.7C9.6,1.6,0,11.5,0,23.3v65.8c0,12.1,9.6,21.7,21.7,21.7l0,0l249.5,0
					c12.1,0,21.7-9.6,21.7-21.7V23.3C292.9,11.5,283.3,1.6,271.2,1.6z M279.2,89.1c0,4.6-3.7,8-8,8H21.7c-4.3,0-8.2-3.7-8.2-8
					l0-65.8c-0.1-4.3,3.4-8.3,8.2-8.2H271c4.3,0,8.2,3.9,8.2,8.2V89.1z"/>
			</g>
			<path class="st0" d="M37.5,40.3h28c3.5,0,5.5,1.5,5.5,3.6c0,1.2-0.5,2.4-1,3.4l-5.6,11c-1.2,2.5-3.4,4.6-7.9,4.6H40.7l-5,9.7
				H21.1L37.5,40.3z M43.3,57.5h5.5c1.7,0,2.5-0.7,3-1.7l4-7.8c0.2-0.5,0.4-0.9,0.4-1.2c0-0.6-0.5-1.1-1.6-1.1h-5.3L43.3,57.5z
				 M101.5,52.6H87.4l3.1-6.3h14.1l3.2-6.1H79.2L62.8,72.6h28.6l2.9-5.8H80.3l4.2-8.4h14.1L101.5,52.6z M127.4,40.3h-13.6L97.5,72.6
				h12.1l7-13.9c0.6-1.2,1.3-3.5,1.3-3.5l2.5,17.5h13.9l16.4-32.4h-12.1l-7.3,14.8c-0.6,1.2-1.3,3.4-1.3,3.4L127.4,40.3z
				 M161.3,68.5c-2.3,0-3.5-0.5-3.5-1.7c0-1,0.6-2.3,1.3-3.8l0.4-0.7h-14.9l-1.3,2.7c-0.5,1-0.8,1.9-0.8,3c0,3.3,2.7,5.8,17.6,5.8
				c13.5,0,17.1-0.7,19.3-5l2.4-4.7c1-1.8,1.7-3.8,1.7-5.5c0-1.6-0.6-3.4-4.4-4.4l-11.3-3c-1.3-0.4-1.8-0.8-1.8-1.5
				c0-0.6,0.2-1.1,0.5-1.6l0.5-1c1.1-2.2,2.1-2.7,4.7-2.7c2.5,0,3.5,0.6,3.5,1.8c0,1.1-0.6,2.4-1.2,3.6l-0.2,0.5h14.7l1.2-2.4
				c0.5-1,0.8-2.1,0.8-3c0-3.3-1.8-5.8-16.7-5.8c-13.5,0-17.6,0.7-19.8,5l-3.2,6.2c-0.4,0.7-0.7,1.7-0.7,2.9c0,1.6,1,3.4,4.1,4.2
				l11.9,3.3c1.2,0.4,1.3,1,1.3,1.5c0,0.6-0.4,1.6-0.7,2.3l-0.6,1.2C164.9,68,163.9,68.5,161.3,68.5z M223.4,72.6l-4.4-18.2
				l20.8-14.2h-15.1L207.6,52l5.9-11.8H199l-16.4,32.4h14.5l5.5-10.8L207,60l2.5,12.6H223.4z M264.9,52.6h-14.1l3.2-6.3h14.1
				l3.1-6.1h-28.6l-16.4,32.4h28.6l2.9-5.8h-14.1l4.2-8.4H262L264.9,52.6z"/>
		</g>
	</g>
	<g>
		<line class="st0" x1="326.7" y1="3.1" x2="326.7" y2="109.4"/>
		<path class="st0" d="M326.7,110.9c-0.8,0-1.5-0.6-1.5-1.4V3.1c0-0.8,0.7-1.4,1.5-1.4s1.5,0.6,1.5,1.4v106.3
			C328.2,110.2,327.6,110.9,326.7,110.9z"/>
	</g>
	<path class="st0" d="M360.6,1.7h8.6c4.7,0,9.2,1.5,9.2,7.1c0,3.6-2.1,6.2-5.7,6.7l6.5,10.9h-5.3l-5.7-10.4H365v10.4h-4.4V1.7z
		 M368.4,12.1c2.5,0,5.4-0.2,5.4-3.4c0-2.9-2.7-3.3-5-3.3H365v6.7H368.4z"/>
	<path class="st0" d="M384.3,19.4c0.3,2.5,2.2,4,4.5,4c2.1,0,3.4-1,4.5-2.3l3,2.3c-1.9,2.4-4.4,3.3-7.1,3.3c-5,0-9.1-3.5-9.1-8.8
		c0-5.3,4-8.8,9.1-8.8c4.7,0,7.8,3.3,7.8,9.1v1.1H384.3z M392.9,16.3c0-2.4-1.6-4-4.2-4c-2.5,0-4,1.6-4.3,4H392.9z"/>
	<path class="st0" d="M400.2,9.6h4v2.7h0.1c0.8-1.7,2.3-3.1,5.1-3.1c4.5,0,6.1,3.2,6.1,6.6v10.6h-4.2v-8.5c0-1.8-0.1-4.9-3.1-4.9
		c-2.8,0-3.8,2-3.8,4.2v9.1h-4.2V9.6z"/>
	<path class="st0" d="M418.6,13.2V9.6h3.4V4.8h4.2v4.8h4.6v3.6h-4.6v7.3c0,1.7,0.5,2.7,2.3,2.7c0.7,0,1.7-0.1,2.3-0.5v3.5
		c-0.9,0.4-2.3,0.6-3.3,0.6c-4.4,0-5.5-2-5.5-5.9v-7.7H418.6z"/>
	<path class="st0" d="M445.5,24h-0.1c-1.2,1.9-3.1,2.7-5.4,2.7c-3.1,0-6.1-1.7-6.1-5c0-5.4,6.3-5.8,10.5-5.8h1v-0.5
		c0-2.1-1.6-3.1-3.8-3.1c-1.7,0-3.3,0.7-4.5,1.7l-2.2-2.2c1.8-1.9,4.5-2.7,7.1-2.7c7.1,0,7.1,5.2,7.1,7.5v9.6h-3.8V24z M445.2,18.8
		h-0.9c-2.3,0-6.3,0.2-6.3,2.6c0,1.5,1.6,2.2,2.9,2.2c2.9,0,4.2-1.5,4.2-3.8V18.8z"/>
	<path class="st0" d="M453.4,0h4.2v26.3h-4.2V0z"/>
	<path class="st0" d="M360.6,43.9h4.4v20.7h10.5v4h-14.9V43.9z"/>
	<path class="st0" d="M382.3,61.7c0.3,2.5,2.2,4,4.5,4c2.1,0,3.4-1,4.5-2.3l3,2.3c-1.9,2.4-4.4,3.3-7.1,3.3c-5,0-9.1-3.5-9.1-8.8
		c0-5.3,4-8.8,9.1-8.8c4.7,0,7.8,3.3,7.8,9.1v1.1H382.3z M390.8,58.6c0-2.4-1.6-4-4.2-4c-2.5,0-4,1.6-4.3,4H390.8z"/>
	<path class="st0" d="M409.4,66.3h-0.1c-1.2,1.9-3.1,2.7-5.4,2.7c-3.1,0-6.1-1.7-6.1-5c0-5.4,6.3-5.8,10.5-5.8h1v-0.5
		c0-2.1-1.6-3.1-3.8-3.1c-1.7,0-3.3,0.7-4.5,1.7l-2.2-2.2c1.8-1.9,4.5-2.7,7.1-2.7c7.1,0,7.1,5.2,7.1,7.5v9.6h-3.8V66.3z
		 M409.1,61.1h-0.9c-2.3,0-6.3,0.2-6.3,2.6c0,1.5,1.6,2.2,2.9,2.2c2.9,0,4.2-1.5,4.2-3.8V61.1z"/>
	<path class="st0" d="M426.7,56.5c-0.8-1.1-1.8-1.7-3.3-1.7c-1.1,0-2.4,0.5-2.4,1.8c0,3,9,0.6,9,7.1c0,4-3.8,5.4-7.2,5.4
		c-2.6,0-4.8-0.7-6.5-2.6l2.8-2.6c1.1,1.2,2.2,2.1,4,2.1c1.2,0,2.8-0.6,2.8-1.9c0-3.4-9-0.7-9-7.1c0-3.7,3.3-5.4,6.7-5.4
		c2.2,0,4.6,0.7,6,2.5L426.7,56.5z"/>
	<path class="st0" d="M435.1,43.7c1.5,0,2.7,1.1,2.7,2.5c0,1.4-1.2,2.5-2.7,2.5c-1.5,0-2.6-1.2-2.6-2.5
		C432.5,44.9,433.6,43.7,435.1,43.7z M433.1,51.9h4.2v16.7h-4.2V51.9z"/>
	<path class="st0" d="M441.8,51.9h4v2.7h0.1c0.8-1.7,2.3-3.1,5.1-3.1c4.5,0,6.1,3.2,6.1,6.6v10.6h-4.2v-8.5c0-1.8-0.1-4.9-3.1-4.9
		c-2.8,0-3.8,2-3.8,4.2v9.1h-4.2V51.9z"/>
	<path class="st0" d="M477.4,51.9v15.2c0,6-2.9,9.9-9.4,9.9c-3.1,0-5.9-0.7-8.3-2.8l2.5-3.4c1.7,1.5,3.4,2.4,5.7,2.4
		c4,0,5.3-2.3,5.3-5.6v-1.2h-0.1c-1.2,1.6-3.4,2.4-5.5,2.4c-5,0-8.3-3.8-8.3-8.6c0-4.9,3.1-8.8,8.3-8.8c2.3,0,4.5,0.9,5.7,2.9h0.1
		v-2.5H477.4z M463.5,60.2c0,2.6,2.1,4.8,4.9,4.8c3.1,0,5-2.1,5-4.9c0-2.9-1.9-4.9-4.9-4.9C465.6,55.2,463.5,57.2,463.5,60.2z"/>
	<path class="st0" d="M360.6,86.2h4.4v20.7h10.5v4h-14.9V86.2z"/>
	<path class="st0" d="M386.6,93.7c5,0,9.1,3.5,9.1,8.8c0,5.3-4,8.8-9.1,8.8c-5,0-9.1-3.5-9.1-8.8C377.5,97.2,381.5,93.7,386.6,93.7z
		 M386.6,107.5c3.1,0,4.9-2.4,4.9-5c0-2.6-1.8-5-4.9-5c-3.1,0-4.9,2.4-4.9,5C381.6,105.1,383.5,107.5,386.6,107.5z"/>
	<path class="st0" d="M416.4,94.1v15.2c0,6-2.9,9.9-9.4,9.9c-3.1,0-5.9-0.7-8.3-2.8l2.5-3.4c1.7,1.5,3.4,2.4,5.7,2.4
		c4,0,5.3-2.3,5.3-5.6v-1.2h-0.1c-1.2,1.6-3.4,2.4-5.5,2.4c-5,0-8.3-3.8-8.3-8.6c0-4.9,3.1-8.8,8.3-8.8c2.3,0,4.5,0.9,5.7,2.9h0.1
		v-2.5H416.4z M402.5,102.5c0,2.6,2.1,4.8,4.9,4.8c3.1,0,5-2.1,5-4.9c0-2.9-1.9-4.9-4.9-4.9C404.5,97.5,402.5,99.5,402.5,102.5z"/>
	<path class="st0" d="M423,86c1.5,0,2.7,1.1,2.7,2.5c0,1.4-1.2,2.5-2.7,2.5c-1.5,0-2.6-1.2-2.6-2.5S421.5,86,423,86z M421,94.1h4.2
		v16.7H421V94.1z"/>
	<path class="st0" d="M439.1,98.7c-0.8-1.1-1.8-1.7-3.3-1.7c-1.1,0-2.4,0.5-2.4,1.8c0,3,9,0.6,9,7.1c0,4-3.8,5.4-7.2,5.4
		c-2.6,0-4.8-0.7-6.5-2.6l2.8-2.6c1.1,1.2,2.2,2.1,4,2.1c1.2,0,2.8-0.6,2.8-1.9c0-3.4-9-0.7-9-7.1c0-3.7,3.3-5.4,6.7-5.4
		c2.2,0,4.6,0.7,6,2.5L439.1,98.7z"/>
	<path class="st0" d="M444.6,97.6v-3.6h3.4v-4.8h4.2v4.8h4.6v3.6h-4.6v7.3c0,1.7,0.5,2.7,2.3,2.7c0.7,0,1.7-0.1,2.3-0.5v3.5
		c-0.9,0.4-2.3,0.6-3.3,0.6c-4.4,0-5.5-2-5.5-5.9v-7.7H444.6z"/>
	<path class="st0" d="M463.2,85.9c1.5,0,2.7,1.1,2.7,2.5s-1.2,2.5-2.7,2.5s-2.6-1.2-2.6-2.5S461.7,85.9,463.2,85.9z M461.2,94.1h4.2
		v16.7h-4.2V94.1z"/>
	<path class="st0" d="M480.8,99.1c-1-1-2.1-1.7-3.2-1.7c-3.1,0-4.9,2.4-4.9,5c0,2.6,1.8,5,4.9,5c1.3,0,2.5-0.6,3.2-1.6l2.8,3
		c-1.7,1.7-4.6,2.3-6,2.3c-5,0-9.1-3.5-9.1-8.8c0-5.3,4-8.8,9.1-8.8c2.1,0,4.5,0.8,6.1,2.5L480.8,99.1z"/>
	<path class="st0" d="M496.5,98.7c-0.8-1.1-1.8-1.7-3.3-1.7c-1.1,0-2.4,0.5-2.4,1.8c0,3,9,0.6,9,7.1c0,4-3.8,5.4-7.2,5.4
		c-2.6,0-4.8-0.7-6.5-2.6l2.8-2.6c1.1,1.2,2.2,2.1,4,2.1c1.2,0,2.8-0.6,2.8-1.9c0-3.4-9-0.7-9-7.1c0-3.7,3.3-5.4,6.7-5.4
		c2.2,0,4.6,0.7,6,2.5L496.5,98.7z"/>
</g>
</svg>
