<?xml version="1.0" encoding="utf-8"?>
<!-- Generator: Adobe Illustrator 20.1.0, SVG Export Plug-In . SVG Version: 6.00 Build 0)  -->
<svg version="1.1" id="Layer_1" xmlns="http://www.w3.org/2000/svg" xmlns:xlink="http://www.w3.org/1999/xlink" x="0px" y="0px"
	 viewBox="0 0 103.9 28" style="enable-background:new 0 0 103.9 28;" xml:space="preserve">
<style type="text/css">
	.st0{fill:#FFFFFF;}
</style>
<title>Artboard 1</title>
<g id="stanford">
	<path class="st0" d="M49.2,15.5c-1.4,0.2-2.6-0.8-2.8-2.2c0-0.2,0-0.3,0-0.5c-0.1-1.2,0.7-2.3,1.9-2.6c1.7-0.6,2.1-0.7,3.3-1.1V8.8
		c0-0.4,0-0.7-0.1-1.1c-0.3-0.7-1-1.2-1.8-1.1c-0.8,0-1.5,0.4-1.9,1l-0.1,0.2l-0.5-0.3V7.4c0.5-1.3,1.9-2.2,3.3-2
		c1.1-0.1,2.2,0.3,2.8,1.2c0.4,0.8,0.5,1.7,0.4,2.5c0,0.8,0,1.8,0,2.5c0,0.5,0,1,0,1.2c0,0.7,0.1,1.2,0.7,1.2c0.1,0,0.2,0,0.3-0.1
		l0.2-0.1l0.3,0.4l-0.1,0.1c-0.4,0.7-1.1,1.1-1.9,1.1c-0.7,0.1-1.3-0.4-1.5-1C51,15.1,50.1,15.5,49.2,15.5z M51.5,10.3
		c-0.7,0.2-1.5,0.5-2.2,0.8c-0.6,0.3-0.9,0.9-0.8,1.5c-0.1,0.7,0.5,1.3,1.2,1.4c0.1,0,0.2,0,0.2,0c0.5,0,1.1-0.1,1.5-0.5L51.5,10.3z
		"/>
	<path class="st0" d="M33,15.5c-1.1,0-2.2-0.1-3.2-0.5h-0.1v-0.7c0-1,0-1.3,0-1.6v-0.5h0.6v0.2c0,0.4,0.2,0.8,0.4,1.2
		c0.6,0.5,1.4,0.8,2.3,0.8c1.9,0,2.7-0.7,2.7-2.2c0-1.3-0.8-1.8-1.9-2.6l-0.2-0.1l-1.2-0.8c-1.6-1.1-2.5-1.9-2.5-3.7
		c0-0.8,0.3-3.6,4.4-3.6c1,0,2,0.1,3,0.2h0.2v0.2c0,0,0,0.5,0,1.1s0,0.8,0,1.3v0.3H37V4.3c0-0.4-0.2-0.9-0.5-1.2
		c-0.6-0.4-1.4-0.6-2.2-0.6c-2.2,0-2.4,1.1-2.4,2c0,1.2,0.6,1.5,1.9,2.4l1.5,1c1.3,0.8,2.5,1.6,2.5,3.7C37.7,15.1,34.4,15.5,33,15.5
		z"/>
	<path class="st0" d="M42.7,15.5c-1.5,0-2.3-0.5-2.7-1.8c-0.1-0.7-0.2-1.3-0.2-2c0-1.6,0-2.8,0-4.3V6.8h-1.3V6.4l0.1,0
		c0.4-0.1,0.8-0.4,1.1-0.6c0.7-0.6,1.2-1.2,1.6-2l0.2-0.4H42v2.2h3.3v1.2H42V12c0,1.5,0.3,2.4,1.7,2.4c0.4,0,0.8-0.1,1.2-0.3
		l0.2-0.1l0.2,0.4l-0.1,0.1C44.6,15.2,43.7,15.6,42.7,15.5z"/>
	<path class="st0" d="M56,15.4v-0.5h0.2c0.3,0,0.6-0.2,0.9-0.4c0.3-0.3,0.3-1.2,0.3-2.8V8.9c0.1-0.7,0-1.4-0.2-2
		c-0.2-0.2-0.6-0.4-0.9-0.3h-0.1H56V6h0.2h0.2c0.6,0,1.2-0.1,1.8-0.2c0.4-0.1,0.7-0.2,1-0.3l0.1,0l0.2,0.1v0.8
		c0.8-0.6,1.8-0.9,2.8-0.9c1.5-0.2,2.9,0.8,3.2,2.3c0.1,0.6,0.1,1.2,0.1,1.8v2.8c0,1.6,0.1,2.1,0.4,2.3c0.2,0.2,0.5,0.3,0.8,0.3H67
		v0.5h-0.5c-0.7,0-1.3-0.1-1.9-0.1c-0.7,0-1.5,0-2.2,0.1h-0.2v-0.5h0.2c0.3,0,0.6-0.1,0.8-0.3c0.3-0.3,0.3-1.1,0.4-1.7
		c0-0.1,0-0.2,0-0.3c0-0.4,0-1.1,0-1.7c0-0.7,0-1.5-0.1-2.2c0-1-0.8-1.9-1.8-1.9c-0.1,0-0.2,0-0.3,0c-0.6,0-1.3,0.1-1.8,0.4v5.1
		c0,1.6,0.1,2.1,0.4,2.3c0.2,0.2,0.5,0.3,0.8,0.3h0.2v0.5h-0.5c-0.7,0-1.3-0.1-1.9-0.1c-0.7,0-1.5,0-2.2,0.1L56,15.4z"/>
	<path class="st0" d="M68.2,15.4v-0.5h0.2c0.3,0,0.6-0.2,0.9-0.4c0.3-0.3,0.3-1.2,0.3-2.8V6.8h-1.3V6.3l0.1,0
		c0.4-0.2,0.8-0.4,1.2-0.6c0-0.9,0-1.8,0.1-2.6c0.4-2,1.7-3,3.9-3c0.9,0,1.7,0.3,2.4,0.8l0.1,0.1V1l-1,1.3h-0.1l-0.1-0.1
		c-0.2-0.7-0.9-1.2-1.7-1.2c-0.4,0-0.7,0.1-1,0.3c-0.4,0.4-0.5,1-0.5,2.3v1.9h2.2v1.2h-2.2v5.4c-0.1,0.7,0,1.5,0.2,2.2
		c0.3,0.4,1.1,0.4,1.3,0.4h0.2v0.5h-0.2c-1.1-0.1-1.9-0.1-2.4-0.1s-1.6,0-2.4,0.1L68.2,15.4z"/>
	<path class="st0" d="M79.4,15.6c-3,0-4.8-1.9-4.8-5c0-2.4,1.3-5.2,5-5.2c3,0,4.8,1.9,4.8,5C84.4,12.7,83.1,15.6,79.4,15.6z
		 M79.5,6.5c-0.5,0-1,0.1-1.4,0.5C77.4,7.6,77,8.8,77,10.5c0,0.7,0.1,3.9,2.5,3.9c0.5,0,1-0.1,1.4-0.4c0.8-0.7,1.2-1.9,1.2-3.6
		C82.1,9.8,81.9,6.5,79.5,6.5L79.5,6.5z"/>
	<path class="st0" d="M85.3,15.4v-0.5h0.2c0.3,0,0.6-0.2,0.9-0.4c0.3-0.3,0.3-1.1,0.3-2.8V8.9c0.1-0.7,0-1.4-0.2-2
		c-0.2-0.2-0.6-0.4-0.9-0.3h-0.1h-0.2V6h0.4c0.6,0,1.2-0.1,1.8-0.2c0.3-0.1,0.7-0.2,1-0.3l0.1,0l0.2,0.1v0.8
		c0.6-0.6,1.4-0.9,2.3-0.9c0.6,0,1.2,0.2,1.6,0.5l0.1,0.1v0.3l-0.8,1.5h-0.4l-0.1-0.1C91.2,7.3,90.6,7,89.9,7
		c-0.4,0-0.8,0.1-1.1,0.3v4.9c-0.1,0.7,0,1.5,0.2,2.2c0.3,0.4,1.1,0.4,1.3,0.4h0.2v0.5h-0.2c-1.1-0.1-1.9-0.1-2.4-0.1
		s-1.6,0-2.4,0.1L85.3,15.4z"/>
	<path class="st0" d="M100.7,15.5l-0.3-0.1v-0.8c-0.8,0.6-1.7,0.9-2.7,0.9c-2.7,0-4.4-1.9-4.4-4.7c0-0.9,0.2-1.8,0.5-2.6
		c0.8-1.8,2.7-2.9,4.7-2.8c0.6,0,1.3,0.1,1.9,0.2V3.5c0.1-0.7,0-1.4-0.2-2.1C100,1.1,99.6,1,99.3,1h-0.1h-0.2V0.6h0.2
		c0.7-0.1,1.4-0.2,2.1-0.3c0.3,0,0.7-0.1,1-0.2h0.1l0.2,0.1v0.1c-0.1,0.8-0.1,2.5-0.1,3.8v8c-0.1,0.7,0,1.5,0.2,2.2
		c0.2,0.2,0.5,0.4,0.9,0.4h0.3v0.5h-0.2c-0.6,0-1.3,0.1-1.9,0.2C101.4,15.4,101.1,15.5,100.7,15.5L100.7,15.5z M98.4,6.5
		c-1.9,0-2.8,1.3-2.8,4c0,1.1,0.3,3.6,3.1,3.6h0.1c0.5,0,1.1-0.1,1.6-0.4V7.2C99.8,6.7,99.1,6.5,98.4,6.5L98.4,6.5z"/>
	<path class="st0" d="M29.8,19.2h1.6l1.5,4l0.5,1.5l0,0l0.6-1.5l1.4-4h1.6v8.1h-1.3v-3.7c0-0.8,0.1-1.8,0.2-2.6l0,0l-0.7,1.8
		l-1.4,3.7h-0.7l-1.4-3.7L30.9,21l0,0c0.1,0.8,0.2,1.8,0.2,2.6v3.7h-1.4V19.2z"/>
	<path class="st0" d="M42.2,19.2h4.9v1.2h-3.4v2.1h2.9v1.2h-2.9v2.4h3.6v1.2h-5L42.2,19.2L42.2,19.2z"/>
	<path class="st0" d="M51.9,19.2h2.2c2.5,0,4,1.3,4,4s-1.5,4.1-3.9,4.1h-2.3V19.2z M54,26.2c1.6,0,2.6-0.9,2.6-2.9s-0.9-2.9-2.6-2.9
		h-0.6v5.8H54z"/>
	<path class="st0" d="M62.9,19.2h1.4v8.1h-1.4V19.2z"/>
	<path class="st0" d="M72.8,19c0.9,0,1.7,0.4,2.3,1l-0.8,0.9c-0.4-0.4-0.9-0.7-1.5-0.7c-1.3,0-2.3,1.1-2.3,3s0.9,3,2.2,3
		c0.7,0,1.3-0.3,1.7-0.8l0.8,0.9c-0.6,0.8-1.6,1.2-2.5,1.2c-2.1,0-3.7-1.5-3.7-4.2S70.7,19,72.8,19z"/>
	<path class="st0" d="M79.8,19.2h1.4v8.1h-1.4V19.2z"/>
	<path class="st0" d="M86.4,19.2h1.5l2.5,4.6l0.8,1.7l0,0c-0.1-0.8-0.2-1.9-0.2-2.8v-3.5h1.4v8.1h-1.5l-2.5-4.6L87.6,21h-0.1
		c0.1,0.9,0.2,1.8,0.2,2.8v3.6h-1.4V19.2z"/>
	<path class="st0" d="M97.7,19.2h4.9v1.2h-3.5v2.1h2.9v1.2h-2.9v2.4h3.6v1.2h-5L97.7,19.2z"/>
	<path class="st0" d="M16.8,5.2L17,5.4l0.5,0.1V4.7l-1-0.6v0.6C16.7,4.8,16.8,5,16.8,5.2z"/>
	<path class="st0" d="M17.3,20c0-0.1,0-0.3,0-0.4l0,0v-0.7l0,0c0-0.4,0-0.8,0-1.1l-0.3-0.2c0,0.6,0,1.3,0,2.1
		C17,19.8,17.1,19.9,17.3,20z"/>
	<path class="st0" d="M15.7,15.9c0,0.3,0.4,0.5,1,0.8c0-0.7,0-1.3-0.1-1.8C15.9,15.3,15.7,15.6,15.7,15.9z"/>
	<path class="st0" d="M18.1,18.4c0-0.2-0.3-0.3-0.7-0.5c0,0.3,0,0.6,0,1C18,18.6,18.1,18.5,18.1,18.4z"/>
	<path class="st0" d="M15.3,5.2C15,5.1,15,5,14.9,4.8s0-0.1-0.1-0.1h-0.1c-0.3,0-0.5,0.1-0.6,0.3c-0.1,0.3,0,1.1,1.8,2.7l0.4,0.4
		V5.5C16,5.4,15.7,5.4,15.3,5.2z"/>
	<path class="st0" d="M17.3,20.9c0-0.3-0.1-0.3-0.3-0.4c0,0.2,0,0.5,0,0.8l0,0c0,0.1,0.1,0.1,0.2,0.1c0.1,0,0.1,0,0.2-0.1v-0.1l0,0
		V20.9z"/>
	<path class="st0" d="M17.5,13.4c0.7-0.3,1.1-0.7,1.1-1s-0.4-1.1-1-1.8C17.5,11.4,17.5,12.3,17.5,13.4z"/>
	<path class="st0" d="M18.4,6.3l-0.1-0.9c-0.3,0.2-0.5,0.4-0.6,0.7h-0.2V5.6h-0.2v0.3h-0.1l-0.3-0.5l-0.2-0.1c0,0-0.1,0.1-0.2,0.1
		v2.9l0.9,0.9C17.6,7.3,17.9,6.8,18.4,6.3z"/>
	<path class="st0" d="M22.2,0.8H11.8V28c0.8-0.4,1.5-0.9,2.2-1.3C26.5,18,23.2,3.1,22.2,0.8z M19.6,12.5c-0.1,0.8-0.9,1.3-2.1,1.9
		c0,0.8,0,1.6,0,2.5l0.2,0.1c1.1,0.5,1.3,1,1.3,1.3c-0.1,0.6-0.8,1-1.5,1.2c0,0.2,0,0.4,0,0.6c0.2,0.1,0.3,0.4,0.3,0.6
		c0,0.2-0.1,0.4-0.3,0.5c0,0,0,0.1,0,0.2c0,0.2-0.2,0.3-0.3,0.3c-0.2,0-0.3-0.1-0.3-0.2l-0.2,0.1c-0.1,0-0.2,0.1-0.3,0.1
		c-0.1,0-0.1,0-0.1-0.1c0-0.1,0-0.2,0.1-0.2c0.1-0.1,0.3-0.2,0.4-0.3c0-0.1,0-0.3,0-0.4c-0.1,0-0.1-0.1-0.2-0.1
		c-0.4-0.2-0.5-0.5-0.5-0.8c0.1-0.3,0.5-0.6,0.7-0.6c0-0.5,0-1,0-1.5L16,17.3c-1-0.4-1.2-1-1.2-1.4c0.2-0.9,0.8-1.7,1.7-2
		c-0.2-2.5-0.5-3-0.8-3.2h-0.1L16,9.9l0.3,0.2V9.6C16.2,9.4,16,9.2,15.8,9s-1.4-1.5-1.6-1.7c-0.3-0.4-0.5-0.8-0.7-1.2
		c-0.2-0.5-0.2-1.1,0.1-1.5C13.9,4.1,14.5,3.9,15,4c0.1,0,0.2,0,0.3,0c0.1,0,0.1,0,0.2,0c0.2,0,0.3,0.1,0.4,0.2
		c0.1,0.1,0.2,0.2,0.3,0.3V3.8l1.3,0.8v1.2c0.2-0.2,0.4-0.4,0.7-0.5h0.1l0.2,1.2l0,0c-0.5,0.4-0.8,1-1,2.9
		C19.1,10.8,19.7,11.7,19.6,12.5z"/>
	<path class="st0" d="M16.5,9.7v0.7l-0.5-0.3l-0.2,0.4c0.4,0.2,0.8,0.8,1,6.2l0.4,0.2c0-2.9,0-5,0.1-6.4l-0.6-0.5L16.5,9.7z"/>
	<path class="st0" d="M11.6,0.8H1.2C0,4.5-0.3,8.5,0.4,12.4h11.2V0.8z M9.9,9.2c-0.3,0.2-0.7,0.2-1,0C8.8,9.4,8.6,9.6,8.4,9.8
		C8.7,9.9,9,10,9.2,10.2c-0.4,0.2-0.8,0.2-1.1-0.1c-0.2,0.2-0.3,0.3-0.5,0.4c0.3,0.1,0.5,0.3,0.7,0.6c-0.6,0.1-1,0-1.2-0.4
		c-0.2,0.1-0.3,0.1-0.5,0.2c0.2,0.1,0.3,0.3,0.4,0.5c-0.4,0-0.6-0.1-0.7-0.4c-0.1,0-0.2,0-0.3,0v0.8l-0.5-0.2V11H5.2
		c-0.1,0.2-0.2,0.3-0.6,0.3c0-0.2,0.2-0.3,0.3-0.4c-0.2-0.1-0.4-0.1-0.5-0.2c-0.1,0.4-0.5,0.5-1.1,0.4c0.2-0.3,0.4-0.5,0.7-0.6
		c-0.2-0.1-0.3-0.2-0.5-0.3c-0.3,0.3-0.8,0.3-1.1,0.1C2.6,10,2.8,9.9,3.1,9.8C3,9.6,2.8,9.4,2.7,9.2C2.3,9.5,1.9,9.5,1.6,9.3
		C1.8,9,2,8.9,2.4,8.8C2.3,8.7,2.2,8.6,2.1,8.4c-0.1,0-0.2,0-0.3-0.1c-0.1-0.2-0.2-0.5,0-0.6s0.4,0,0.5,0.2c0.1,0.1,0.1,0.2,0,0.3
		c0.1,0.2,0.2,0.3,0.3,0.4c0-0.4,0-0.7,0.2-1.1C3.1,8,3.1,8.6,2.8,9C3,9.2,3.1,9.3,3.3,9.5c0-0.3,0-0.7,0.1-1
		c0.3,0.4,0.4,0.9,0.2,1.4c0.1,0.1,0.3,0.2,0.5,0.3C4,9.9,4,9.5,4.1,9.2c0.4,0.3,0.5,0.8,0.5,1.3c0.2,0.1,0.3,0.1,0.5,0.2
		C5,10.5,4.9,10.2,4.9,10c0.2,0.1,0.4,0.4,0.4,0.7c0,0,0.2,0.1,0.2,0.1v-0.7C5.1,10,4.7,9.6,4.6,9.2c0.3,0,0.6,0.2,0.9,0.4V9.1
		C4.8,9,4.1,8.5,3.9,7.7C4.5,7.8,5,8.1,5.5,8.4V8.1C4.9,8,4.4,7.5,4.2,6.8c0.5,0.1,0.9,0.3,1.3,0.6V7C4.9,6.9,4.4,6.4,4.2,5.7
		C4.7,5.8,5.1,6,5.5,6.3V5.8C4.9,5.8,4.3,5.3,4.2,4.7C4.7,4.8,5.1,5,5.5,5.3V4.8c-0.4,0-0.8-0.3-1-1.1c0.4,0.1,0.7,0.3,1,0.5V3.7
		C5.2,3.6,4.9,3.5,4.7,2.9C5,2.9,5.3,3,5.5,3.2V2.9C5.3,2.7,5.3,2.4,5.3,2.1c0-0.3,0.1-0.5,0.4-0.5s0.4,0.2,0.4,0.5
		c0.1,0.3,0,0.6-0.2,0.8v0.3C6.2,3,6.5,2.9,6.8,2.9C6.6,3.5,6.3,3.6,6,3.7v0.5C6.3,4,6.6,3.8,7,3.6C6.8,4.4,6.4,4.7,6,4.8v0.5
		C6.4,5,6.8,4.8,7.2,4.6C7.1,5.3,6.6,5.8,5.9,5.8v0.5C6.3,6,6.8,5.8,7.2,5.7C7.1,6.3,6.6,6.8,5.9,7v0.4c0.4-0.3,0.8-0.5,1.3-0.6
		C7.1,7.4,6.6,8,5.9,8.1v0.3c0.5-0.3,1-0.6,1.5-0.7C7.3,8.4,6.7,9,5.9,9.1v0.4c0.3-0.2,0.6-0.3,0.9-0.4C6.8,9.5,6.4,9.9,5.9,10v0.7
		h0.2c0-0.3,0.2-0.6,0.4-0.7c0,0.2-0.1,0.4-0.2,0.7c0.2,0,0.3-0.1,0.5-0.2C6.9,10,7,9.5,7.4,9.2c0.1,0.3,0.1,0.7,0,1
		c0.2-0.1,0.4-0.2,0.5-0.4c-0.2-0.5-0.1-1,0.2-1.4c0.1,0.3,0.1,0.7,0.1,1.1c0.2-0.2,0.3-0.4,0.5-0.5c-0.3-0.3-0.3-0.7,0-1.3
		C8.9,8,9,8.3,9,8.6C9.1,8.4,9.2,8.2,9.3,8c-0.1-0.1-0.1-0.3,0-0.4c0.1-0.2,0.3-0.3,0.5-0.2s0.1,0.3,0,0.5c0,0.1-0.2,0.2-0.3,0.2
		C9.4,8.4,9.2,8.6,9.1,8.8C9.4,8.8,9.7,9,9.9,9.2z"/>
	<rect x="6.4" y="19.2" class="st0" width="0.7" height="1.8"/>
	<rect x="6.4" y="17.9" class="st0" width="1.8" height="0.7"/>
	<rect x="6.3" y="16.7" class="st0" width="0.6" height="0.6"/>
	<rect x="7.6" y="20.3" class="st0" width="1.8" height="0.7"/>
	<rect x="7.5" y="15.3" class="st0" width="0.7" height="1.8"/>
	<rect x="8.8" y="17.9" class="st0" width="0.7" height="1.8"/>
	<rect x="5" y="15.3" class="st0" width="1.8" height="0.7"/>
	<rect x="5" y="16.8" class="st0" width="0.7" height="1.8"/>
	<rect x="7.7" y="19.2" class="st0" width="0.6" height="0.6"/>
	<path class="st0" d="M11.6,12.7H0.4c1,5.7,4.2,10.7,9,13.9c0.7,0.5,1.4,0.9,2.2,1.3L11.6,12.7L11.6,12.7z M10.1,21.6H5.7v-2.5H4.4
		v-4.4h4.4v2.5h1.4V21.6z"/>
	<path class="st0" d="M15.4,5C15.5,5,15.5,5,15.4,5c0.1-0.1,0.1-0.2,0-0.2c-0.1,0-0.1,0-0.2,0c0,0,0,0.1,0,0.1
		C15.3,4.9,15.3,4.9,15.4,5L15.4,5z M15.3,4.8c0,0,0.1,0,0.1,0s0.1,0.1,0.1,0.1s-0.1,0-0.1,0S15.3,4.9,15.3,4.8L15.3,4.8z"/>
	<ellipse transform="matrix(0.4764 -0.8792 0.8792 0.4764 3.7529 16.1173)" class="st0" cx="15.4" cy="4.9" rx="0.1" ry="0.1"/>
	<path class="st0" d="M15.7,4.5C15.7,4.5,15.8,4.5,15.7,4.5C15.8,4.5,15.8,4.4,15.7,4.5c0.1-0.1,0.1-0.2,0-0.2c-0.1,0-0.1,0-0.2,0
		c0,0,0,0,0,0.1C15.6,4.5,15.6,4.5,15.7,4.5L15.7,4.5z M15.6,4.3c0,0,0.1,0,0.1,0s0,0.1,0,0.1s-0.1,0-0.1,0S15.6,4.3,15.6,4.3
		L15.6,4.3z"/>
	<ellipse transform="matrix(0.6748 -0.738 0.738 0.6748 1.8684 12.9918)" class="st0" cx="15.7" cy="4.4" rx="0.1" ry="0.1"/>
</g>
</svg>
