<?xml version="1.0" encoding="utf-8"?>
<!-- Generator: Adobe Illustrator 20.1.0, SVG Export Plug-In . SVG Version: 6.00 Build 0)  -->
<svg version="1.1" id="Layer_1" xmlns="http://www.w3.org/2000/svg" xmlns:xlink="http://www.w3.org/1999/xlink" x="0px" y="0px"
	 viewBox="0 0 80.9 52.5" style="enable-background:new 0 0 80.9 52.5;" xml:space="preserve">
<style type="text/css">
	.st0{fill:#FFFFFF;}
</style>
<title>Artboard 1</title>
<g id="trip_advisor">
	<circle class="st0" cx="27" cy="17.2" r="2.1"/>
	<circle class="st0" cx="52.5" cy="17.2" r="2.1"/>
	<path class="st0" d="M27.3,11c-3.4,0-6.2,2.7-6.2,6.1s2.7,6.2,6.1,6.2s6.2-2.7,6.2-6.1c0,0,0,0,0,0C33.4,13.8,30.7,11.1,27.3,11z
		 M27.3,21.5c-2.4,0-4.3-1.9-4.3-4.3s1.9-4.3,4.3-4.3c2.4,0,4.3,1.9,4.3,4.3C31.6,19.6,29.7,21.5,27.3,21.5
		C27.3,21.5,27.3,21.5,27.3,21.5L27.3,21.5z M65.7,4.7h-8.5c-5.1-3.2-11-4.9-17-4.7c-6.8,0-13.1,1.8-17.4,4.7h-8.1
		c1.2,1.4,2.1,3.2,2.5,5c-4.3,5.6-3.2,13.5,2.3,17.8s13.5,3.2,17.8-2.3c1,1.3,2,2.6,2.8,4c0,0,1.8-2.7,2.8-4
		c4.3,5.6,12.3,6.6,17.8,2.3s6.6-12.3,2.3-17.8C63.6,7.9,64.5,6.2,65.7,4.7z M27.4,27.5c-5.6,0-10.2-4.6-10.2-10.2S21.8,7,27.5,7
		c5.6,0,10.2,4.6,10.2,10.2C37.7,22.9,33.1,27.5,27.4,27.5C27.5,27.5,27.4,27.5,27.4,27.5z M27.4,4.5c4-1.7,8.3-2.5,12.7-2.4
		c4.2,0,8.4,0.8,12.3,2.5c-6.8,0.2-12.3,5.8-12.3,12.7C40.2,10.2,34.5,4.5,27.4,4.5C27.4,4.5,27.4,4.5,27.4,4.5z M52.8,27.5
		c-5.6,0-10.2-4.6-10.2-10.3C42.7,11.6,47.3,7,52.9,7c5.6,0,10.2,4.6,10.2,10.2C63.1,22.9,58.5,27.5,52.8,27.5L52.8,27.5L52.8,27.5z
		 M52.8,11c-3.4,0-6.2,2.8-6.2,6.2c0,3.4,2.8,6.2,6.2,6.2c3.4,0,6.2-2.8,6.2-6.2v0C59,13.8,56.3,11,52.8,11L52.8,11z M52.8,21.5
		c-2.4,0-4.3-1.9-4.3-4.3s1.9-4.3,4.3-4.3c2.4,0,4.3,1.9,4.3,4.3v0C57.1,19.5,55.2,21.5,52.8,21.5L52.8,21.5z"/>
	<path class="st0" d="M68.6,6.7h-0.4V5.1h0.6c0.3,0,0.7,0,0.7,0.5c0,0.2-0.1,0.4-0.3,0.5l0.4,0.8H69l-0.3-0.7h-0.1V6.7z M68.6,5.7
		c0.1,0,0.2,0,0.3,0C69,5.7,69,5.6,69,5.5s0-0.2-0.1-0.2c-0.1,0-0.2,0-0.3,0V5.7z"/>
	<path class="st0" d="M68.8,4.5c-0.9,0-1.5,0.7-1.5,1.5s0.7,1.5,1.5,1.5c0.9,0,1.5-0.7,1.5-1.5C70.4,5.1,69.7,4.5,68.8,4.5L68.8,4.5
		z M68.8,7.2c-0.7,0-1.2-0.6-1.2-1.2s0.6-1.2,1.2-1.2s1.2,0.6,1.2,1.2S69.5,7.2,68.8,7.2z"/>
	<path class="st0" d="M79.1,42h-0.4v-1.7h0.6c0.3,0,0.7,0,0.7,0.5c0,0.2-0.1,0.4-0.3,0.4L80,42h-0.4l-0.3-0.7h-0.1V42z M79.1,41
		c0.1,0,0.2,0,0.3,0c0.1,0,0.1-0.1,0.1-0.2s0-0.2-0.1-0.2c-0.1,0-0.2,0-0.3,0V41z"/>
	<path class="st0" d="M79.3,39.6c-0.9,0-1.5,0.7-1.5,1.5s0.7,1.5,1.5,1.5c0.9,0,1.5-0.7,1.5-1.5c0,0,0,0,0,0
		C80.9,40.3,80.2,39.6,79.3,39.6C79.3,39.6,79.3,39.6,79.3,39.6z M79.3,42.4c-0.7,0-1.2-0.6-1.2-1.2c0-0.7,0.6-1.2,1.2-1.2
		s1.2,0.6,1.2,1.2C80.6,41.9,80,42.4,79.3,42.4z"/>
	<path class="st0" d="M5.4,41.7v-1.4H3.1v-2.1l-1.8,0.5v1.6H0v1.4h1.3v4.5c0,2,0.8,3,2.4,3c0.5,0,1-0.1,1.5-0.2l0,0l-0.1-1.4H5.1
		c-0.3,0.1-0.6,0.1-0.9,0.1c-0.3,0-0.6-0.1-0.8-0.4C3.1,47,3,46.5,3,46.1v-4.4H5.4z"/>
	<path class="st0" d="M11.4,40.2c-0.1,0-0.3,0-0.5,0c-0.5,0-1.1,0.2-1.5,0.5c-0.4,0.3-0.7,0.6-0.9,1.1l-0.1-1.4H6.9v0.1
		c0,0.7,0.1,1.6,0.1,2.7V49h1.8v-4.6c0-0.7,0.2-1.4,0.6-1.9c0.4-0.4,0.9-0.7,1.5-0.7c0.2,0,0.4,0,0.5,0.1h0.1L11.4,40.2L11.4,40.2z"
		/>
	<rect x="13" y="40.3" class="st0" width="1.8" height="8.7"/>
	<path class="st0" d="M13.9,38.9c0.6,0,1.1-0.4,1.1-1c0,0,0-0.1,0-0.1c0-0.3-0.1-0.6-0.3-0.8c-0.2-0.2-0.5-0.3-0.8-0.3
		c-0.3,0-0.6,0.1-0.8,0.3c-0.2,0.2-0.3,0.5-0.3,0.8c0,0.3,0.1,0.6,0.3,0.8C13.3,38.8,13.6,38.9,13.9,38.9z"/>
	<path class="st0" d="M23.4,41.3c-0.6-0.8-1.6-1.3-2.6-1.2c-1.2,0-2.3,0.5-3,1.5l-0.1-1.3h-1.6v0.1c0,0.7,0.1,1.7,0.1,2.8v9.3H18
		v-4.4c0.3,0.3,0.6,0.6,0.9,0.8c0.5,0.2,1,0.4,1.6,0.4c1.1,0,2.1-0.5,2.8-1.3c0.8-1,1.2-2.2,1.1-3.4C24.5,43.4,24.1,42.2,23.4,41.3z
		 M19.1,42c0.4-0.3,0.8-0.4,1.2-0.4c0.7,0,1.3,0.3,1.7,0.8c0.5,0.6,0.7,1.4,0.7,2.1c0,0.8-0.2,1.6-0.7,2.3c-0.8,1-2.2,1.1-3.1,0.3
		c-0.1-0.1-0.1-0.1-0.2-0.2c-0.4-0.4-0.7-1-0.7-1.7V44c0-0.3,0.1-0.7,0.2-1C18.4,42.6,18.7,42.3,19.1,42L19.1,42z"/>
	<path class="st0" d="M32.4,48.9c-0.1-0.7-0.2-1.3-0.1-2v-3.2c0.1-1-0.2-1.9-0.9-2.7c-0.7-0.7-1.6-1-2.6-0.9c-1.1,0-2.1,0.2-3,0.8
		l0,0l0.4,1.2h0.1c0.7-0.4,1.5-0.7,2.3-0.6c0.5,0,1,0.1,1.4,0.5c0.3,0.4,0.5,0.9,0.5,1.4v0.1c-1.4-0.1-2.7,0.2-3.9,0.8
		c-0.9,0.5-1.4,1.4-1.4,2.4c0,0.7,0.3,1.3,0.8,1.8c0.5,0.5,1.3,0.8,2,0.7c1,0,2-0.4,2.6-1.2l0.2,1h1.6V48.9z M29.9,47.3
		c-0.4,0.4-1,0.6-1.5,0.6c-0.4,0-0.7-0.1-1-0.4c-0.3-0.3-0.4-0.6-0.4-1c0-0.5,0.3-1,0.8-1.3c0.9-0.4,1.8-0.5,2.7-0.5V46
		C30.5,46.5,30.3,46.9,29.9,47.3L29.9,47.3z"/>
	<path class="st0" d="M41.4,49v-0.1c0-0.5-0.1-1.3-0.1-2.2V36.3h-1.8v4.9c-0.2-0.3-0.5-0.5-0.9-0.7c-0.5-0.3-1-0.4-1.6-0.4
		c-1.1,0-2.1,0.5-2.8,1.3c-0.8,1-1.2,2.1-1.1,3.4c0,1.2,0.3,2.3,1.1,3.2c0.6,0.8,1.6,1.3,2.7,1.3c0.6,0,1.2-0.1,1.8-0.4
		c0.4-0.2,0.8-0.6,1-1l0.1,1.2L41.4,49z M39.6,43.9v1.4c0,0.7-0.2,1.3-0.7,1.8c-0.4,0.4-0.9,0.7-1.5,0.7c-0.7,0-1.3-0.3-1.7-0.8
		c-0.4-0.6-0.7-1.4-0.6-2.2c0-0.8,0.2-1.6,0.7-2.2c0.7-0.9,2.1-1.1,3-0.4c0.1,0.1,0.1,0.1,0.2,0.2C39.4,42.7,39.6,43.3,39.6,43.9
		L39.6,43.9z"/>
	<path class="st0" d="M48.8,40.3c0,0-2.2,4.5-2.4,5c-0.2-0.6-2.4-5-2.4-5h-1.9l4.4,8.7l4.3-8.7L48.8,40.3z"/>
	<rect x="51.5" y="40.3" class="st0" width="1.8" height="8.7"/>
	<path class="st0" d="M52.4,38.9c0.6,0,1.1-0.4,1.1-1c0,0,0-0.1,0-0.1c0-0.3-0.1-0.6-0.3-0.8c-0.2-0.2-0.5-0.3-0.8-0.3
		c-0.3,0-0.6,0.1-0.8,0.3c-0.2,0.2-0.3,0.5-0.3,0.8c0,0.3,0.1,0.6,0.3,0.8C51.8,38.8,52.1,38.9,52.4,38.9z"/>
	<path class="st0" d="M60.4,45c-0.5-0.5-1.1-0.9-1.8-1.1c-0.5-0.1-0.9-0.4-1.3-0.7c-0.2-0.2-0.3-0.4-0.3-0.7c0-0.3,0.1-0.6,0.3-0.8
		c0.3-0.2,0.6-0.3,1-0.3c0.6,0,1.3,0.2,1.8,0.5h0.1l0.4-1.3h-0.1c-0.7-0.4-1.4-0.6-2.2-0.5c-0.8,0-1.6,0.2-2.3,0.8
		c-0.6,0.5-0.9,1.2-0.9,1.9c0,1.1,0.8,1.9,2.4,2.5c0.4,0.1,0.9,0.3,1.2,0.6c0.2,0.2,0.3,0.5,0.3,0.8c0,0.3-0.1,0.6-0.4,0.8
		c-0.3,0.2-0.8,0.3-1.2,0.3c-0.8,0-1.5-0.2-2.1-0.7h-0.1l-0.4,1.4H55c0.8,0.4,1.6,0.6,2.5,0.6c0.9,0,1.7-0.2,2.4-0.7
		c0.6-0.5,0.9-1.2,0.9-1.9C60.9,46,60.7,45.4,60.4,45z"/>
	<path class="st0" d="M69.1,41.4c-0.8-0.8-1.9-1.3-3-1.2c-1.2,0-2.3,0.4-3.1,1.3c-0.8,0.9-1.3,2.1-1.2,3.4c0,1.2,0.4,2.3,1.2,3.2
		c0.8,0.8,1.9,1.3,3,1.2c0.8,0,1.5-0.2,2.2-0.6c0.7-0.4,1.2-0.9,1.6-1.6c0.4-0.8,0.6-1.6,0.6-2.4C70.3,43.4,69.9,42.2,69.1,41.4z
		 M66,47.8c-0.7,0-1.3-0.3-1.7-0.9c-0.5-0.7-0.7-1.4-0.7-2.3c0-0.8,0.2-1.6,0.7-2.3c0.4-0.6,1.1-0.9,1.8-0.9c0.7,0,1.4,0.3,1.8,0.9
		c0.5,0.7,0.7,1.4,0.7,2.2c0,0.8-0.2,1.6-0.7,2.3C67.3,47.5,66.7,47.8,66,47.8z"/>
	<path class="st0" d="M76.2,40.2c-0.1,0-0.3,0-0.4,0c-0.5,0-1.1,0.2-1.5,0.5c-0.4,0.3-0.7,0.7-0.9,1.1l-0.1-1.5h-1.6v0.1
		c0,0.7,0.1,1.6,0.1,2.7V49h1.8v-4.6c0-0.7,0.2-1.4,0.6-1.9c0.4-0.4,0.9-0.7,1.5-0.7c0.2,0,0.4,0,0.6,0.1h0.1L76.2,40.2L76.2,40.2z"
		/>
</g>
</svg>
