<?xml version="1.0" encoding="utf-8"?>
<!-- Generator: Adobe Illustrator 20.1.0, SVG Export Plug-In . SVG Version: 6.00 Build 0)  -->
<svg version="1.1" id="Layer_1" xmlns="http://www.w3.org/2000/svg" xmlns:xlink="http://www.w3.org/1999/xlink" x="0px" y="0px"
	 viewBox="0 0 82.3 26.7" style="enable-background:new 0 0 82.3 26.7;" xml:space="preserve">
<style type="text/css">
	.st0{fill:#FFFFFF;}
</style>
<title>Artboard 1</title>
<g id="visa">
	<polygon class="st0" points="35.6,26.2 28.9,26.2 33.1,0.5 39.8,0.5 	"/>
	<path class="st0" d="M23.3,0.5l-6.4,17.7l-0.8-3.8l0,0L13.9,2.7c0,0-0.3-2.3-3.2-2.3H0.1L0,0.9c2.5,0.6,4.8,1.6,7,3l5.8,22.4h7
		L30.5,0.5H23.3z"/>
	<path class="st0" d="M76.1,26.2h6.2L76.9,0.5h-5.4c-1.3-0.1-2.6,0.7-3.1,1.9l-10,23.9h7l1.4-3.8h8.5L76.1,26.2z M68.7,17.1l3.5-9.6
		l2,9.7L68.7,17.1z"/>
	<path class="st0" d="M58.9,6.7l1-5.5c-1.9-0.7-4-1.1-6-1.1c-3.3,0-11.2,1.5-11.2,8.5c0,6.7,9.3,6.8,9.3,10.2s-8.3,2.9-11.1,0.7
		l-1,5.8c2.4,1,5,1.5,7.6,1.5c4.6,0,11.5-2.4,11.5-8.8c0-6.7-9.4-7.3-9.4-10.2S56,5.1,58.9,6.7z"/>
</g>
</svg>
