<?xml version="1.0" encoding="utf-8"?>
<!-- Generator: Adobe Illustrator 20.1.0, SVG Export Plug-In . SVG Version: 6.00 Build 0)  -->
<svg version="1.1" id="Layer_1" xmlns="http://www.w3.org/2000/svg" xmlns:xlink="http://www.w3.org/1999/xlink" x="0px" y="0px"
	 viewBox="0 0 101.7 15.5" style="enable-background:new 0 0 101.7 15.5;" xml:space="preserve">
<style type="text/css">
	.st0{fill:#FFFFFF;}
</style>
<title>Artboard 1</title>
<g id="vmware">
	<path class="st0" d="M43.7,14.3L39.3,1.9c-0.1-0.2-0.1-0.4-0.1-0.6c0-0.6,0.5-1,1.1-1c0.5,0,1,0.4,1.1,0.9L45,11.9l3.7-10.7
		c0.1-0.5,0.6-0.9,1.1-0.9h0.1c0.5,0,1,0.4,1.1,0.9l3.7,10.7l3.8-10.7c0.1-0.5,0.5-0.8,1-0.8c0.6,0,1,0.4,1.1,0.9c0,0,0,0.1,0,0.1
		c0,0.2-0.1,0.4-0.1,0.6L56,14.3c-0.1,0.6-0.6,1-1.2,1h-0.1c-0.6,0-1.1-0.4-1.2-1L49.9,3.8l-3.7,10.5c-0.1,0.6-0.6,1-1.2,1h-0.1
		C44.3,15.3,43.8,14.9,43.7,14.3"/>
	<path class="st0" d="M76.2,1.4c0-0.6,0.5-1.1,1.1-1.1c0.6,0,1.1,0.5,1.1,1.1c0,0,0,0,0,0v2.5c0.9-2,2.8-3.4,5.1-3.6
		c0.6,0,1.1,0.4,1.1,1c0,0,0,0.1,0,0.1c0,0.6-0.4,1.1-1,1.1c-2.8,0.3-5.2,2.5-5.2,6.7v5c0,0.6-0.5,1.1-1.1,1.1s-1.1-0.5-1.1-1.1
		L76.2,1.4"/>
	<path class="st0" d="M91.5,15.4c-4,0-7.2-3.2-7.2-7.2c0-0.1,0-0.2,0-0.4V7.8c0-4.2,2.9-7.6,6.9-7.6c4.3,0,6.7,3.5,6.7,7.4
		c0,0.6-0.4,1-1,1H86.5c0,2.8,2.3,5,5.1,4.9c1.6,0,3-0.6,4.2-1.7c0.4-0.3,1-0.3,1.3,0.1c0.2,0.2,0.2,0.4,0.2,0.6
		c0,0.3-0.1,0.5-0.3,0.7C95.5,14.7,93.6,15.5,91.5,15.4 M95.8,7c-0.2-2.7-1.7-5-4.6-5c-2.5,0-4.4,2.1-4.7,5H95.8z"/>
	<path class="st0" d="M60.7,10.9L60.7,10.9c0-3.2,2.6-4.8,6.3-4.8c1.5,0,3,0.2,4.5,0.6V6.2c0-2.6-1.6-4-4.4-4
		c-1.2,0-2.3,0.2-3.4,0.7C63.5,2.9,63.4,3,63.3,3c-0.5,0-1-0.4-1-0.9c0-0.4,0.2-0.8,0.6-0.9c1.4-0.6,2.9-0.9,4.4-0.8
		C69,0.2,70.7,0.7,72,1.9c1.1,1.2,1.6,2.7,1.5,4.3v8.1c0,0.6-0.4,1-0.9,1.1c0,0-0.1,0-0.1,0c-0.6,0-1-0.4-1-1v-1.4
		c-1.3,1.6-3.2,2.6-5.3,2.5C63.4,15.4,60.7,13.9,60.7,10.9 M71.5,9.7V8.3c-1.4-0.4-2.9-0.6-4.3-0.6c-2.8,0-4.3,1.2-4.3,3v0.1
		c0,1.9,1.7,2.9,3.7,2.9C69.2,13.7,71.4,12.1,71.5,9.7"/>
	<path class="st0" d="M4,1.2c-0.5-1-1.7-1.5-2.7-1c0,0,0,0,0,0c-1,0.4-1.5,1.6-1.1,2.6c0,0.1,0,0.1,0.1,0.2L4.9,13
		c0.7,1.6,1.5,2.4,3,2.4s2.2-0.9,3-2.4l4.1-8.9c0.1-0.2,0.3-0.4,0.6-0.4c0.4,0,0.6,0.3,0.6,0.7V13c-0.1,1.2,0.7,2.3,1.9,2.4
		c1.2,0.1,2.3-0.7,2.4-1.9c0-0.2,0-0.3,0-0.5V6c-0.1-1.2,0.9-2.2,2.1-2.3c0.1,0,0.2,0,0.2,0c1.2-0.1,2.2,0.8,2.2,2
		c0,0.1,0,0.2,0,0.2V13c-0.1,1.2,0.7,2.3,1.9,2.4c0.1,0,0.2,0,0.3,0c1.2,0,2.2-1,2.2-2.2c0-0.1,0-0.2,0-0.2V6
		c-0.1-1.2,0.9-2.2,2.1-2.3c0.1,0,0.2,0,0.2,0c1.2-0.1,2.2,0.8,2.3,2c0,0.1,0,0.2,0,0.3V13c-0.1,1.2,0.7,2.3,1.9,2.4
		c0.1,0,0.2,0,0.3,0c1.2,0,2.2-1,2.2-2.2c0-0.1,0-0.2,0-0.2V5c0-2.8-2.2-5-5-5c-0.1,0-0.2,0-0.2,0c-1.8,0-3.4,0.8-4.7,2
		c-1.1-1.4-2.7-2.1-4.5-2c-1.6,0.2-3.2,0.9-4.4,2c-0.9-1.2-2.4-1.9-3.9-2c-2.1-0.1-4,1.2-4.7,3.2l-3,7L4,1.2"/>
	<path class="st0" d="M98.1,2.1L98.1,2.1c0-1,0.8-1.8,1.8-1.8c1,0,1.8,0.8,1.8,1.8l0,0c0,1-0.8,1.8-1.8,1.8
		C98.9,3.9,98.1,3.1,98.1,2.1 M101.4,2.1L101.4,2.1c0.1-0.8-0.5-1.5-1.3-1.6S98.5,1,98.4,1.8c0,0.1,0,0.2,0,0.2l0,0
		c-0.1,0.8,0.5,1.5,1.3,1.6s1.5-0.5,1.6-1.3C101.4,2.2,101.4,2.2,101.4,2.1"/>
	<path class="st0" d="M99.2,1.3c0-0.1,0.1-0.2,0.2-0.2l0,0h0.6c0.2,0,0.4,0.1,0.5,0.2c0.1,0.1,0.2,0.3,0.2,0.4l0,0
		c0,0.2-0.1,0.4-0.3,0.5l0.3,0.3c0,0,0.1,0.1,0.1,0.2c0,0.1-0.1,0.2-0.2,0.2l0,0c-0.1,0-0.1,0-0.2-0.1l-0.4-0.5h-0.3v0.4
		c0,0.1-0.1,0.2-0.2,0.2l0,0c-0.1,0-0.2-0.1-0.2-0.2l0,0V1.3z M100,2c0.2,0,0.3-0.1,0.3-0.2l0,0c0-0.2-0.1-0.2-0.3-0.2h-0.4V2L100,2
		z"/>
</g>
</svg>
