<?xml version="1.0" encoding="utf-8"?>
<!-- Generator: Adobe Illustrator 20.1.0, SVG Export Plug-In . SVG Version: 6.00 Build 0)  -->
<svg version="1.1" id="Layer_1" xmlns="http://www.w3.org/2000/svg" xmlns:xlink="http://www.w3.org/1999/xlink" x="0px" y="0px"
	 viewBox="0 0 158.3 101.2" style="enable-background:new 0 0 158.3 101.2;" xml:space="preserve">
<style type="text/css">
	.st0{fill:#FFFFFF;}
</style>
<g>
	<polygon class="st0" points="0,51.8 49.4,101.2 49.4,76.3 24.8,51.8 	"/>
	<polygon class="st0" points="76.3,51.8 51.8,76.3 51.8,101.2 101.2,51.8 	"/>
	<polygon class="st0" points="0,49.4 24.8,49.4 49.4,24.9 49.4,0.1 	"/>
	<polygon class="st0" points="52.8,0 52.9,10.7 77.5,10.7 48.1,48.4 101.5,48.4 101.5,37.7 75.5,37.7 104.7,0 	"/>
	<path class="st0" d="M148.2,12.9l7.1-9.1c0,0-33.7-11.7-46.8,5.9c0,0-8.6,15.1,16.1,18.3c0,0,16.8,1.1,14.1,6.8
		c-2.7,5.7-18.4,4.2-26.6-1.1l-7.8,9.5c0,0,12,6.5,30.4,5.2c18.4-1.3,23.1-8,23.4-14.4c0.3-6.4,0.3-11.4-20.4-15.2
		c0,0-13.1-1.6-10.5-6.5C130,7.3,145.9,11,148.2,12.9"/>
	<path class="st0" d="M107.2,64.3h-0.8V51.8h2.2c1,0,1.9,0.1,2.7,0.7c0.8,0.6,1.1,1.6,1.1,2.6c0,0.9-0.3,1.9-1,2.5
		c-0.8,0.7-1.8,0.8-2.8,0.8h-1.4V64.3z M108.6,57.6c0.8,0,1.5-0.1,2.2-0.7c0.5-0.5,0.8-1.1,0.8-1.9c0-0.8-0.3-1.6-0.9-2
		c-0.6-0.5-1.4-0.5-2.2-0.5h-1.3v5.1H108.6z"/>
	<path class="st0" d="M115,50.6v7.2h0c0.4-0.8,1.3-1.4,2.3-1.4c2,0,2.5,1.2,2.5,3.2v4.6H119v-4.6c0-1.4-0.2-2.5-1.8-2.5
		c-1.9,0-2.2,1.8-2.2,3.3v3.8h-0.7V50.6H115z"/>
	<path class="st0" d="M129.2,64.3h-0.7v-1.4h0c-0.6,1-1.8,1.5-2.9,1.5c-2.3,0-3.8-1.8-3.8-4c0-2.2,1.4-3.9,3.7-3.9
		c1.2,0,2.3,0.5,2.9,1.5h0v-1.3h0.7V64.3z M122.4,60.4c0,1.8,1.2,3.3,3,3.3c2,0,3-1.6,3-3.4c0-1.8-1.2-3.2-3.1-3.2
		C123.6,57.1,122.4,58.7,122.4,60.4"/>
	<path class="st0" d="M132.6,57.6L132.6,57.6c0.3-0.7,0.9-1.2,1.7-1.2c0.3,0,0.5,0.1,0.8,0.2l-0.4,0.7c-0.2-0.1-0.3-0.1-0.5-0.1
		c-1.7,0-1.6,2.1-1.6,3.2v3.9h-0.7v-7.7h0.7V57.6z"/>
	<path class="st0" d="M137.4,57.6L137.4,57.6c0.4-0.7,1.1-1.1,2-1.1c1,0,1.8,0.5,2.2,1.4c0.4-0.9,1.3-1.4,2.2-1.4c2,0,2.4,1.3,2.4,3
		v4.8h-0.7v-4.9c0-1.2-0.2-2.2-1.6-2.2c-1.6,0-2,1.4-2,2.7v4.4H141v-4.7c0-1.2-0.2-2.4-1.7-2.4c-1.6,0-1.9,1.7-1.9,2.9v4.2h-0.7
		v-7.6h0.7V57.6z"/>
	<path class="st0" d="M155.5,64.3h-0.7v-1.4h0c-0.6,1-1.8,1.5-2.9,1.5c-2.3,0-3.8-1.8-3.8-4c0-2.2,1.4-3.9,3.7-3.9
		c1.2,0,2.3,0.5,2.9,1.5h0v-1.3h0.7V64.3z M148.8,60.4c0,1.8,1.2,3.3,3,3.3c2,0,3-1.6,3-3.4c0-1.8-1.2-3.2-3.1-3.2
		C150,57.1,148.8,58.7,148.8,60.4"/>
</g>
</svg>
