<?xml version="1.0" encoding="utf-8"?>
<!-- Generator: Adobe Illustrator 20.1.0, SVG Export Plug-In . SVG Version: 6.00 Build 0)  -->
<svg version="1.1" id="Layer_1" xmlns="http://www.w3.org/2000/svg" xmlns:xlink="http://www.w3.org/1999/xlink" x="0px" y="0px"
	 viewBox="0 0 94 94" style="enable-background:new 0 0 94 94;" xml:space="preserve">
<style type="text/css">
	.st0{fill:#666766;}
</style>
<path class="st0" d="M47,0C21,0,0,21,0,47s21,47,47,47c26,0,47-21,47-47S73,0,47,0z M46.3,9.3c3.4,0,6.1,2.7,6.1,6.1
	c0,3.4-2.7,6.1-6.1,6.1c-3.3,0-6.1-2.7-6.1-6.1C40.2,12.1,42.9,9.3,46.3,9.3L46.3,9.3z M72.6,29l-18.1,2.3l0,18.1l8.8,29.2
	c0.5,1.9-0.6,3.7-2.5,4.2c-1.8,0.5-3.7-0.6-4.2-2.4l-9-26.6H45l-8.3,27.2c-0.7,1.8-2.7,2.6-4.4,1.9c-1.8-0.7-2.8-2.7-2.1-4.5
	l7.6-28.7V31.3L21.1,29c-1.7-0.1-2.9-1.6-2.7-3.4c0.1-1.7,1.7-3,3.4-2.9l20.2,1.7h8.9l21.5-1.8c1.7-0.1,3.2,1.3,3.2,3
	C75.7,27.4,74.3,28.9,72.6,29L72.6,29z"/>
</svg>
