<?xml version="1.0" encoding="utf-8"?>
<!-- Generator: Adobe Illustrator 20.1.0, SVG Export Plug-In . SVG Version: 6.00 Build 0)  -->
<svg version="1.1" id="Layer_1" xmlns="http://www.w3.org/2000/svg" xmlns:xlink="http://www.w3.org/1999/xlink" x="0px" y="0px"
	 viewBox="0 0 89 95" style="enable-background:new 0 0 89 95;" xml:space="preserve">
<style type="text/css">
	.st0{fill:#666766;}
</style>
<path class="st0" d="M38,0c-1.9,0-3.6,1.4-4,3.3l-0.9,4.6c-6.3,1.9-12.1,5.2-16.9,9.8l-4.3-1.5C10,15.6,8,16.4,7,18.1L0.5,29.4
	c-1,1.7-0.6,3.9,0.8,5.2l3.4,3.1C4,41,3.6,44.2,3.6,47.5c0,3.2,0.4,6.5,1.2,9.8l-3.4,3.1c-1.5,1.3-1.8,3.5-0.8,5.2L7,76.9
	c1,1.7,3,2.5,4.9,1.9l4.3-1.5c4.7,4.6,10.5,8,16.9,9.8l0.9,4.6c0.4,1.9,2.1,3.3,4,3.3h13c1.9,0,3.6-1.4,4-3.3l0.9-4.6
	c6.3-1.9,12.1-5.2,16.9-9.8l4.3,1.5c1.8,0.6,3.8-0.2,4.8-1.9l6.5-11.4c1-1.7,0.6-3.9-0.8-5.2l-3.4-3.1c0.8-3.3,1.2-6.6,1.2-9.8
	c0-3.3-0.4-6.5-1.2-9.8l3.4-3.1c1.5-1.3,1.8-3.5,0.8-5.2L82,18.1c-1-1.7-3-2.5-4.9-1.9l-4.3,1.5c-4.7-4.6-10.5-8-16.9-9.8L55,3.3
	C54.6,1.4,52.9,0,51,0H38z M27.1,33c0.9,0,1.7,0.6,2,1.5L36.3,58c0.1,0.2,0.1,0.4,0.1,0.6v1.2c0,1.1-0.9,2.1-2,2.1
	c-1.1,0-2-0.9-2-2.1v-1l-1-3.2H23l-1,3.2v1c0,1.1-0.9,2.1-2,2.1c-1.1,0-2-0.9-2-2.1v-1.2c0-0.2,0-0.4,0.1-0.6l7.2-23.5
	C25.4,33.7,26.2,33,27.1,33z M42.4,33h8.2c3.4,0,6.1,2.8,6.1,6.2v6.2c0,3.4-2.8,6.2-6.1,6.2h-6.1v8.3c0,1.1-0.9,2.1-2,2.1
	c-1.1,0-2-0.9-2-2.1V35.1C40.4,34,41.3,33,42.4,33z M62.9,33H67c1.1,0,2,0.9,2,2.1c0,1.1-0.9,2.1-2,2.1v20.7c1.1,0,2,0.9,2,2.1
	S68.1,62,67,62h-4.1c-1.1,0-2-0.9-2-2.1s0.9-2.1,2-2.1V37.2c-1.1,0-2-0.9-2-2.1C60.8,34,61.8,33,62.9,33z M44.5,37.2v10.3h6.1
	c1.1,0,2-0.9,2-2.1v-6.2c0-1.1-0.9-2.1-2-2.1H44.5z M27.1,42.1l-2.9,9.5H30L27.1,42.1z"/>
</svg>
