<?xml version="1.0" encoding="utf-8"?>
<!-- Generator: Adobe Illustrator 20.1.0, SVG Export Plug-In . SVG Version: 6.00 Build 0)  -->
<svg version="1.1" id="Layer_1" xmlns="http://www.w3.org/2000/svg" xmlns:xlink="http://www.w3.org/1999/xlink" x="0px" y="0px"
	 viewBox="0 0 87 87" style="enable-background:new 0 0 87 87;" xml:space="preserve">
<style type="text/css">
	.st0{fill:#666766;}
</style>
<path class="st0" d="M43.5,0C29.1,0,17.4,11.7,17.4,26.1c0,22.6,26.1,48.3,26.1,48.3s26.1-26.1,26.1-48.3C69.6,11.7,57.9,0,43.5,0z
	 M43.5,17c4.8,0,9.1,4.3,9.1,9.1c0,5.2-3.9,9.1-9.1,9.1s-9.1-4.3-9.1-9.1C34.4,20.9,38.7,17,43.5,17z M20.8,57.1
	c-5.5,1.1-10.1,2.5-13.7,4.5c-1.8,1-3.5,2.1-4.8,3.5C1,66.6,0,68.7,0,71c0,3.6,2.3,6.2,4.9,8c2.6,1.8,5.8,3.2,9.7,4.3
	c7.7,2.3,17.7,3.7,29,3.7c11.2,0,21.3-1.4,29-3.7c3.8-1.1,7.1-2.5,9.7-4.3c2.6-1.8,4.9-4.5,4.9-8c0-4.5-3.4-7.5-7.1-9.5
	c-3.7-2-8.4-3.4-14-4.4l-1.4,8.6c4.9,0.8,8.7,2.1,11.1,3.4c1.6,0.9,2.2,1.6,2.4,1.9c-0.1,0.2-0.4,0.5-1.1,1c-1.4,1-3.8,2.2-7.1,3.1
	c-6.5,1.9-16,3.3-26.5,3.3C33,78.3,23.5,77,17,75c-3.2-1-5.7-2.2-7.1-3.1c-0.6-0.5-1-0.8-1.1-1c0.3-0.4,1.1-1,2.3-1.6
	c2.4-1.3,6.6-2.6,11.6-3.7L20.8,57.1z"/>
</svg>
