<?xml version="1.0" encoding="utf-8"?>
<!-- Generator: Adobe Illustrator 20.1.0, SVG Export Plug-In . SVG Version: 6.00 Build 0)  -->
<svg version="1.1" id="Layer_1" xmlns="http://www.w3.org/2000/svg" xmlns:xlink="http://www.w3.org/1999/xlink" x="0px" y="0px"
	 viewBox="0 0 60 92" style="enable-background:new 0 0 60 92;" xml:space="preserve">
<style type="text/css">
	.st0{fill:#666766;}
</style>
<path class="st0" d="M30,0C13.5,0,0,13.5,0,30c0,12.3,5.6,18.3,9.6,22.6c2.6,2.7,4.4,4.7,4.4,7.4v10h14V40.8l-7.4-7.4
	c-0.8-0.8-0.8-2.1,0-2.9c0.8-0.8,2.1-0.8,2.9,0l6.6,6.6l6.6-6.6c0.8-0.8,2.1-0.8,2.9,0c0.8,0.8,0.8,2.1,0,2.9L32,40.8V70h14V60
	c0-3.8,2.2-6.2,5-9.1c4-4.2,9-9.4,9-20.9C60,13.5,46.5,0,30,0z M14,74v6c0,3.3,2.7,6,6,6h2.3c0.9,3.4,4,6,7.7,6c3.7,0,6.8-2.6,7.7-6
	H40c3.3,0,6-2.7,6-6v-6H14z"/>
</svg>
