<?xml version="1.0" encoding="utf-8"?>
<!-- Generator: Adobe Illustrator 20.1.0, SVG Export Plug-In . SVG Version: 6.00 Build 0)  -->
<svg version="1.1" id="Layer_1" xmlns="http://www.w3.org/2000/svg" xmlns:xlink="http://www.w3.org/1999/xlink" x="0px" y="0px"
	 viewBox="0 0 520 520" style="enable-background:new 0 0 520 520;" xml:space="preserve">
<style type="text/css">
	.st0{fill:#666666;}
</style>
<path class="st0" d="M422.5,0h-325C43.6,0,0,43.6,0,97.5v325C0,476.4,43.6,520,97.5,520h325c53.9,0,97.5-43.6,97.5-97.5v-325
	C520,43.6,476.4,0,422.5,0z M120,440c-22.1,0-40-17.9-40-40s17.9-40,40-40s40,17.9,40,40S142.1,440,120,440z M280,450
	c-16.6,0-30-13.4-30-30c0-82.7-67.3-150-150-150c-16.6,0-30-13.4-30-30s13.4-30,30-30c115.8,0,210,94.2,210,210
	C310,436.6,296.6,450,280,450z M420,450c-16.6,0-30-13.4-30-30c0-159.9-130.1-290-290-290c-16.6,0-30-13.4-30-30s13.4-30,30-30
	c193,0,350,157,350,350C450,436.6,436.6,450,420,450z"/>
</svg>
