<?xml version="1.0" encoding="utf-8"?>
<!-- Generator: Adobe Illustrator 20.1.0, SVG Export Plug-In . SVG Version: 6.00 Build 0)  -->
<svg version="1.1" id="Layer_1" xmlns="http://www.w3.org/2000/svg" xmlns:xlink="http://www.w3.org/1999/xlink" x="0px" y="0px"
	 viewBox="0 0 56.7 56.6" style="enable-background:new 0 0 56.7 56.6;" xml:space="preserve">
<style type="text/css">
	.st0{fill:none;}
	.st1{fill:#666666;}
</style>
<g>
	<rect x="-182.4" y="-24" class="st0" width="255.2" height="96.6"/>
	<g>
		<polyline class="st1" points="45.9,4.4 30.7,19.6 37,25.9 52.2,10.7 45.9,4.4 		"/>
		<rect x="37" y="30.7" transform="matrix(0.707 -0.7072 0.7072 0.707 -17.1594 41.4495)" class="st1" width="8.9" height="21.5"/>
		<path class="st1" d="M32.8,52.2c0,2.5-2,4.5-4.5,4.5c-2.5,0-4.5-2-4.5-4.5c0-2.5,2-4.5,4.5-4.5C30.8,47.7,32.8,49.7,32.8,52.2"/>
		<path class="st1" d="M32.8,4.4c0,2.5-2,4.5-4.5,4.5c-2.5,0-4.5-2-4.5-4.5c0-2.4,2-4.4,4.5-4.4C30.8,0,32.8,2,32.8,4.4"/>
		<path class="st1" d="M52.2,23.9c2.5,0,4.5,2,4.5,4.5c0,2.5-2,4.5-4.5,4.5c-2.5,0-4.5-2-4.5-4.5C47.7,25.8,49.7,23.9,52.2,23.9"/>
		<path class="st1" d="M4.5,23.9c2.5,0,4.5,2,4.5,4.5c0,2.5-2,4.5-4.5,4.5c-2.5,0-4.5-2-4.5-4.5C0,25.9,2,23.9,4.5,23.9"/>
		<polyline class="st1" points="4.5,10.7 22,28.3 4.5,45.9 10.7,52.2 34.6,28.3 10.7,4.4 4.5,10.7 		"/>
	</g>
</g>
</svg>
