<?xml version="1.0" encoding="utf-8"?>
<!-- Generator: Adobe Illustrator 20.1.0, SVG Export Plug-In . SVG Version: 6.00 Build 0)  -->
<svg version="1.1" id="Layer_1" xmlns="http://www.w3.org/2000/svg" xmlns:xlink="http://www.w3.org/1999/xlink" x="0px" y="0px"
	 viewBox="0 0 61 61" style="enable-background:new 0 0 61 61;" xml:space="preserve">
<style type="text/css">
	.st0{fill-rule:evenodd;clip-rule:evenodd;fill:#0F84BE;}
	.st1{fill:#FFFFFF;}
</style>
<path class="st0" d="M30.5,0C47.3,0,61,13.7,61,30.5S47.3,61,30.5,61C13.7,61,0,47.3,0,30.5S13.7,0,30.5,0z"/>
<path class="st1" d="M24.8,20.3c0,1.4-0.9,2.5-2.5,2.5c-1.5,0-2.5-1.1-2.5-2.4c0-1.4,1-2.6,2.5-2.6C23.8,17.8,24.8,19,24.8,20.3z
	 M19.8,40.2h5V24h-5V40.2z M36.7,24.3c-2.6,0-4.1,1.5-4.7,2.5h-0.1l-0.2-2.1h-4.5c0,1.4,0.1,3,0.1,4.8v10.7h5v-8.8
	c0-0.5,0-0.9,0.1-1.2c0.4-0.9,1-2,2.4-2c1.7,0,2.5,1.5,2.5,3.5v8.6h5V31C42.2,26.4,39.8,24.3,36.7,24.3z"/>
</svg>
