<?xml version="1.0" encoding="utf-8"?>
<!-- Generator: Adobe Illustrator 20.1.0, SVG Export Plug-In . SVG Version: 6.00 Build 0)  -->
<svg version="1.1" id="Layer_1" xmlns="http://www.w3.org/2000/svg" xmlns:xlink="http://www.w3.org/1999/xlink" x="0px" y="0px"
	 viewBox="0 0 22.3 22.3" style="enable-background:new 0 0 22.3 22.3;" xml:space="preserve">
<style type="text/css">
	.st0{fill:#FFFFFF;}
</style>
<path class="st0" d="M5,2.5C5,3.8,4.1,5,2.5,5C1,5,0,3.8,0,2.6C0,1.2,1,0,2.5,0S5,1.1,5,2.5z M0,22.3h5V6.2H0V22.3z M16.9,6.5
	c-2.6,0-4.1,1.5-4.7,2.5H12l-0.2-2.1H7.3c0,1.4,0.1,3,0.1,4.8v10.7h5v-8.8c0-0.5,0-0.9,0.1-1.2c0.4-0.9,1-2,2.4-2
	c1.7,0,2.5,1.5,2.5,3.5v8.6h5v-9.2C22.3,8.6,20,6.5,16.9,6.5z"/>
</svg>
